<?xml version="1.0" standalone="no"?>
<!DOCTYPE svg PUBLIC "-//W3C//DTD SVG 20010904//EN"
 "http://www.w3.org/TR/2001/REC-SVG-20010904/DTD/svg10.dtd">
<svg version="1.0" xmlns="http://www.w3.org/2000/svg"
 width="1024.000000pt" height="1024.000000pt" viewBox="0 0 1024.000000 1024.000000"
 preserveAspectRatio="xMidYMid meet">

<g transform="translate(0.000000,1024.000000) scale(0.100000,-0.100000)"
fill="#25333D" stroke="none">
<path fill="#66C2E9" d="M2018 6053 l-48 -4 0 -783 c0 -706 2 -784 16 -790 9 -3 209 -6 444
-6 425 0 429 0 440 21 17 30 9 241 -9 262 -12 15 -44 17 -272 17 -240 0 -259
1 -259 18 0 9 -3 283 -6 607 -6 657 -3 627 -75 652 -32 11 -129 14 -231 6z"/>
<path fill="#B2E0F4" d="M3021 6046 c-9 -11 -11 -151 -8 -558 3 -483 5 -550 21 -603 66 -223
220 -370 443 -422 104 -24 293 -24 383 0 175 47 313 154 383 297 68 137 69
155 74 737 5 518 5 521 -16 542 -19 19 -32 21 -160 21 -114 0 -143 -3 -155
-16 -14 -14 -16 -75 -16 -529 0 -489 -1 -517 -20 -568 -24 -63 -77 -118 -145
-149 -41 -18 -67 -22 -145 -22 -115 0 -179 23 -239 89 -70 76 -71 82 -71 661
0 497 -1 514 -19 524 -11 5 -82 10 -159 10 -108 0 -142 -3 -151 -14z"/>
<path fill="#25333D" d="M5124 6045 c-98 -18 -135 -30 -236 -82 -195 -100 -346 -293 -400
-511 -30 -123 -30 -297 0 -405 120 -425 527 -674 967 -592 74 14 197 57 219
77 17 14 21 10 89 -71 55 -65 72 -80 104 -86 36 -6 40 -4 76 37 21 23 51 63
67 87 24 36 28 47 18 64 -6 12 -171 187 -367 390 l-356 368 -67 -71 c-38 -40
-68 -78 -68 -85 0 -7 64 -88 143 -180 78 -92 143 -173 145 -180 4 -19 -90 -39
-176 -37 -261 4 -457 188 -479 449 -20 237 129 443 358 493 33 7 96 11 151 8
86 -3 103 -8 171 -41 118 -58 216 -184 246 -317 17 -75 13 -191 -10 -264 l-20
-67 70 -77 c114 -126 146 -155 168 -148 36 12 101 157 128 288 56 266 -56 586
-270 770 -186 159 -433 226 -671 183z"/>
<path fill="#FF8F3D" d="M6269 6033 c-14 -37 -1 -1532 13 -1550 8 -9 51 -13 154 -13 116 0
145 3 158 16 14 14 16 99 16 788 l0 773 -37 7 c-21 3 -95 6 -166 6 l-127 0
-11 -27z"/>
<path fill="#195F88" d="M6936 6044 c-9 -8 -16 -18 -16 -20 0 -14 50 -93 256 -405 124 -189
228 -348 231 -354 2 -7 -37 -71 -87 -144 -167 -243 -393 -585 -397 -601 -2 -9
5 -24 16 -34 18 -16 35 -18 176 -13 138 4 157 6 170 23 8 11 85 125 171 254
86 129 159 237 161 240 8 8 47 -45 208 -287 l155 -233 168 0 c172 0 192 4 192
40 0 8 -73 121 -162 251 -90 129 -203 294 -252 366 l-89 132 180 273 c316 479
316 479 307 502 -10 25 -40 29 -200 21 l-153 -7 -171 -259 c-94 -142 -173
-259 -175 -259 -3 0 -82 116 -176 258 -94 141 -176 260 -183 264 -6 4 -79 8
-163 8 -125 0 -154 -3 -167 -16z"/>
<path d="M4827 4096 c-45 -16 -83 -49 -103 -88 -17 -32 -18 -115 -3 -155 35
-92 147 -132 239 -84 40 20 40 20 40 1 0 -14 7 -20 24 -20 28 0 36 28 36 127
l0 64 -92 -3 c-92 -3 -93 -3 -93 -28 0 -23 4 -25 48 -28 53 -3 62 -20 25 -46
-41 -29 -115 -17 -145 23 -16 21 -16 111 0 132 32 42 99 51 140 19 26 -21 72
-26 96 -11 36 23 -56 92 -139 105 -20 3 -52 0 -73 -8z"/>
<path d="M7137 4104 c-4 -4 -7 -85 -7 -181 l0 -173 110 0 110 0 0 30 0 30 -70
0 -70 0 0 45 0 45 61 0 c60 0 60 0 57 28 -3 26 -6 27 -60 30 l-58 3 0 44 0 45
75 0 c72 0 75 1 75 24 0 13 -6 26 -13 29 -20 8 -202 8 -210 1z"/>
<path d="M3052 3928 l3 -173 98 -3 97 -3 0 31 0 30 -60 0 -60 0 0 145 0 145
-40 0 -40 0 2 -172z"/>
<path d="M3623 4068 c-6 -18 -34 -97 -62 -175 l-51 -143 39 0 c34 0 40 4 50
30 10 29 11 30 80 30 68 0 69 -1 80 -30 9 -27 14 -30 50 -30 27 0 41 4 40 13
0 6 -26 84 -58 172 l-57 160 -50 3 c-49 3 -51 2 -61 -30z m81 -120 c10 -29 21
-59 23 -65 4 -9 -9 -13 -45 -13 l-50 0 21 65 c12 36 24 65 27 65 3 0 14 -24
24 -52z"/>
<path fill="#009ADB" d="M4120 3924 l0 -175 38 3 37 3 -3 109 c-3 70 0 107 6 105 6 -2 42 -53
81 -112 l71 -108 43 3 42 3 0 43 c-1 23 -2 101 -3 172 l-2 130 -35 0 -35 0 0
-110 c0 -60 -3 -110 -7 -110 -5 1 -39 50 -77 110 l-70 110 -43 0 -43 0 0 -176z"/>
<path d="M5347 4093 c-10 -10 -8 -192 3 -237 5 -22 22 -53 39 -69 38 -39 126
-50 176 -23 57 31 69 66 73 209 l4 127 -41 0 -41 0 0 -111 c0 -105 -8 -144
-34 -161 -21 -14 -66 -8 -86 12 -18 18 -20 33 -20 140 l0 120 -33 0 c-19 0
-37 -3 -40 -7z"/>
<path fill="#FF8F3D" d="M6049 4093 c-14 -3 -129 -298 -129 -330 0 -8 14 -13 35 -13 28 0 37
5 50 30 15 29 18 30 81 30 63 0 65 -1 75 -30 10 -26 16 -30 50 -30 21 0 39 3
39 8 0 4 -25 82 -57 175 l-57 167 -36 -1 c-19 -1 -42 -3 -51 -6z m60 -152 c7
-23 15 -49 18 -57 4 -11 -5 -14 -35 -14 -23 0 -43 4 -46 8 -7 12 36 124 44
115 4 -4 12 -28 19 -52z"/>
<path d="M6594 4081 c-112 -69 -111 -241 2 -307 38 -23 54 -26 107 -22 98 6
146 49 162 146 l7 42 -101 0 -101 0 0 -25 c0 -24 3 -25 55 -25 63 0 72 -15 29
-49 -88 -70 -206 49 -145 146 26 41 81 54 124 29 27 -15 117 -23 117 -10 0 20
-39 66 -66 79 -46 22 -151 20 -190 -4z"/>
<path d="M4937 1842 c-16 -3 -17 -21 -15 -200 l3 -197 193 -2 c174 -2 192 0
193 15 7 133 8 232 3 302 l-6 85 -177 0 c-97 0 -185 -1 -194 -3z"/>
<path d="M4920 760 l0 -200 198 2 197 3 3 165 c2 91 0 180 -3 198 l-6 32 -194
0 -195 0 0 -200z"/>
</g>
</svg>
