<?xml version="1.0" standalone="no"?>
<!DOCTYPE svg PUBLIC "-//W3C//DTD SVG 20010904//EN"
 "http://www.w3.org/TR/2001/REC-SVG-20010904/DTD/svg10.dtd">
<svg version="1.0" xmlns="http://www.w3.org/2000/svg"
 width="500.000000pt" height="500.000000pt" viewBox="0 0 500.000000 500.000000"
 preserveAspectRatio="xMidYMid meet">

<g transform="translate(0.000000,500.000000) scale(0.100000,-0.100000)"
fill="#000000" stroke="none">
<path d="M2875 2927 c-66 -37 -85 -101 -34 -114 8 -3 7 0 -3 7 -10 6 -18 21
-18 33 0 21 1 21 23 -5 17 -21 33 -28 70 -31 26 -2 53 -9 59 -15 7 -7 17 -12
23 -12 6 0 24 -14 41 -32 l29 -31 -32 21 c-17 12 -36 22 -42 22 -6 0 -20 5
-30 11 -25 16 -68 3 -102 -31 l-29 -29 -16 32 c-45 88 -117 147 -179 147 -58
0 -137 -62 -164 -130 -10 -25 -10 -25 -10 -2 -1 13 6 37 15 55 l15 32 -20 -25
-21 -25 0 33 c0 21 -9 41 -25 57 -29 30 -45 32 -52 5 -4 -14 -11 -19 -24 -15
-11 4 -26 -2 -38 -14 -20 -20 -21 -33 -21 -208 0 -204 -10 -296 -36 -324 -24
-26 -70 -34 -98 -16 -38 25 -71 164 -90 377 -2 25 -3 -13 -2 -85 1 -71 -1
-116 -5 -100 -10 43 -9 246 1 270 7 17 9 16 11 -10 1 -21 5 -12 11 28 11 64
-2 98 -47 119 -57 26 -113 -19 -141 -115 -35 -117 -24 -362 21 -479 4 -10 -22
-13 -117 -13 -68 0 -137 -3 -155 -7 l-31 -7 -6 62 c-2 34 -12 155 -20 269 -9
114 -22 222 -29 240 -13 32 -13 31 -11 -32 l3 -65 -12 65 c-10 52 -17 67 -37
77 -31 16 -65 16 -92 2 -20 -11 -20 -17 -14 -118 4 -58 16 -191 27 -296 14
-123 19 -217 15 -268 -4 -50 -2 -85 5 -98 12 -24 21 -24 199 5 52 9 141 16
196 16 113 0 131 9 120 57 -18 79 -10 95 21 46 114 -186 309 -183 415 4 l31
55 17 -53 c22 -73 46 -106 91 -130 51 -25 133 -25 176 0 30 19 32 19 48 1 38
-42 105 -28 105 22 0 19 1 19 29 -1 16 -12 44 -21 63 -21 18 0 42 -7 52 -15
29 -22 53 -18 78 10 13 15 28 23 38 20 11 -4 41 32 110 132 l93 137 45 -49
c24 -28 75 -91 113 -142 62 -84 89 -109 89 -85 0 15 -81 134 -143 212 -84 104
-89 115 -21 44 33 -34 88 -107 124 -162 36 -56 73 -104 83 -108 23 -8 57 22
57 51 0 24 -116 207 -191 301 -27 34 -49 65 -49 69 0 7 67 88 144 176 23 25
-6 -2 -63 -60 -106 -108 -99 -93 28 59 39 47 71 89 71 95 0 5 -7 28 -16 51
-19 51 -49 62 -98 39 -34 -16 -152 -129 -183 -175 -9 -14 -18 -27 -20 -29 -1
-2 -31 23 -65 55 -81 77 -126 111 -161 119 -15 4 -33 15 -40 25 -32 44 -91 51
-152 17z m-1438 -197 c1 -99 1 -180 -1 -180 -7 0 -28 339 -21 349 16 27 20 -1
22 -169z m1271 23 c42 -54 70 -113 87 -185 16 -70 20 -214 6 -222 -5 -3 -21
14 -35 39 -15 24 -35 49 -46 55 -43 23 -110 3 -110 -34 0 -7 9 -25 20 -39 23
-29 26 -42 8 -31 -7 5 -1 -8 13 -27 75 -100 74 -99 59 -109 -23 -14 -66 -12
-80 4 -36 45 -60 262 -42 380 8 49 8 74 1 82 -14 17 -3 50 28 92 31 42 55 41
91 -5z m416 -111 c69 -59 71 -64 39 -114 -15 -24 -50 -87 -79 -141 -43 -84
-52 -95 -58 -75 -3 13 -9 109 -13 213 l-8 190 -5 -135 -6 -135 -2 153 -2 154
42 -34 c23 -18 65 -52 92 -76z m-247 -84 c-2 -24 -4 -7 -4 37 0 44 2 63 4 43
2 -21 2 -57 0 -80z m-185 -272 c10 -19 10 -20 -6 -7 -9 8 -22 24 -28 35 -10
19 -10 20 6 7 9 -8 22 -24 28 -35z"/>
<path d="M2883 2803 c9 -2 23 -2 30 0 6 3 -1 5 -18 5 -16 0 -22 -2 -12 -5z"/>
<path d="M1625 2118 c-44 -4 -91 -13 -105 -18 -22 -9 -21 -9 10 -5 19 3 112 8
207 11 95 4 170 11 167 15 -6 11 -172 9 -279 -3z"/>
<path d="M3182 2088 c-9 -9 -8 -16 5 -30 16 -17 -10 -18 -730 -18 -740 0 -747
0 -747 -20 0 -20 7 -20 752 -20 l751 0 -22 -23 c-17 -19 -19 -26 -9 -35 16
-13 110 53 106 75 -2 8 -24 30 -49 49 -34 25 -48 31 -57 22z"/>
</g>
</svg>
