<svg xmlns="http://www.w3.org/2000/svg" version="1.1" viewBox="14 10.78 218.37 133.32">
<g stroke-width="2.00" fill="none" stroke-linecap="butt">
<path stroke="#655a75" vector-effect="non-scaling-stroke" d="   M 189.06 120.52   Q 187.76 123.83 185.91 127.86   Q 184.19 131.60 187.19 133.66   Q 203.39 144.82 216.11 131.33   Q 221.23 125.90 221.79 118.83   C 222.40 111.12 218.36 104.07 212.90 98.48   Q 200.37 85.62 183.90 82.18   A 0.68 0.68 0.0 0 1 183.41 81.26   Q 185.27 76.64 188.37 72.43   C 191.54 68.13 196.13 65.80 201.27 64.92   Q 207.50 63.85 213.97 62.42   Q 216.64 61.84 218.92 62.65   Q 219.76 62.95 220.43 62.37   C 226.59 57.11 233.61 47.81 230.55 39.35   C 228.70 34.20 226.25 28.22 222.87 24.05   Q 214.68 13.93 201.67 12.09   Q 196.46 11.35 191.32 12.39   C 182.05 14.27 174.64 19.37 170.20 28.10   Q 164.14 40.01 156.95 50.78   Q 156.70 51.16 156.42 50.80   Q 145.15 36.11 128.67 29.71   C 96.09 17.04 60.91 34.24 43.03 62.41   C 42.39 63.41 41.83 63.72 40.71 64.00   Q 32.57 66.03 24.83 66.77   C 22.57 66.99 21.96 69.49 22.64 71.30   Q 25.73 79.56 33.45 85.71   A 0.66 0.66 0.0 0 1 33.46 86.73   C 24.20 94.47 14.87 107.13 15.00 119.69   C 15.13 133.30 30.10 136.19 40.22 131.04   C 42.98 129.64 41.47 125.11 40.86 122.81   Q 40.60 121.83 41.35 122.52   C 47.78 128.37 52.46 132.44 61.80 131.38   C 66.52 130.85 67.02 126.27 65.15 122.78   C 63.29 119.33 60.28 114.93 62.11 111.05   A 0.89 0.88 -66.2 0 1 63.23 110.61   Q 73.06 114.54 83.18 115.83   A 0.62 0.61 -73.5 0 1 83.65 116.71   C 81.71 120.65 79.29 125.59 78.81 130.00   Q 78.76 130.51 79.03 130.96   Q 80.22 132.96 82.20 134.47   C 85.76 137.21 89.73 139.97 93.93 141.37   Q 107.03 145.71 118.96 137.91   Q 121.28 136.39 120.78 133.73   Q 119.59 127.46 119.38 121.33   A 0.69 0.69 0.0 0 1 120.02 120.62   C 134.52 119.46 147.82 115.02 160.71 108.47   Q 162.87 107.37 163.87 109.52   C 166.27 114.66 163.33 119.94 161.25 124.72   Q 159.34 129.11 163.32 131.00   C 173.74 135.96 182.28 126.87 188.63 120.24   Q 189.55 119.29 189.06 120.52"/>
<path stroke="#53624b" vector-effect="non-scaling-stroke" d="   M 175.54 50.67   Q 185.54 61.45 200.00 59.55   Q 205.14 58.87 215.26 56.37   A 0.65 0.65 0.0 0 0 215.73 55.57   C 214.85 52.09 212.62 50.79 209.50 49.71   Q 207.51 49.03 209.61 48.86   Q 217.35 48.23 219.76 54.48   Q 219.98 55.04 220.48 54.72   Q 221.77 53.89 222.21 52.30"/>
<path stroke="#676d4d" vector-effect="non-scaling-stroke" d="   M 222.21 52.30   Q 228.70 44.87 223.83 36.95"/>
<path stroke="#75785e" vector-effect="non-scaling-stroke" d="   M 223.83 36.95   Q 220.92 29.75 218.22 26.78   Q 208.20 15.76 194.03 17.29   C 185.46 18.21 178.58 23.42 174.64 31.10   Q 172.09 36.07 169.41 41.12   Q 169.18 41.56 169.46 41.98   L 175.54 50.67"/>
<path stroke="#adc466" vector-effect="non-scaling-stroke" d="   M 223.83 36.95   Q 221.69 36.94 220.31 34.92   C 215.34 27.65 211.29 21.25 201.78 19.71   Q 185.99 17.14 177.35 29.82   Q 172.23 37.32 175.91 44.65   Q 178.44 49.70 182.00 52.78   Q 182.17 52.92 182.20 53.13   Q 182.24 53.38 182.18 53.72"/>
<path stroke="#98b964" vector-effect="non-scaling-stroke" d="   M 182.18 53.72   Q 178.57 51.06 175.54 50.67"/>
<path stroke="#8bae53" vector-effect="non-scaling-stroke" d="   M 222.21 52.30   L 221.20 46.84"/>
<path stroke="#676d4d" vector-effect="non-scaling-stroke" d="   M 221.20 46.84   C 221.57 42.50 218.02 41.33 214.87 43.50"/>
<path stroke="#8bae53" vector-effect="non-scaling-stroke" d="   M 214.87 43.50   L 206.11 47.32   Q 204.80 47.90 206.00 48.69   L 206.72 49.17   Q 207.33 49.57 206.70 49.97   Q 202.02 52.89 197.27 54.31   Q 189.55 56.64 182.18 53.72"/>
<path stroke="#53624b" vector-effect="non-scaling-stroke" d="   M 221.20 46.84   L 214.87 43.50"/>
<path stroke="#53624b" vector-effect="non-scaling-stroke" d="   M 72.22 80.11   Q 71.88 87.86 77.18 90.95   Q 80.66 92.98 87.56 92.44   Q 94.57 91.90 101.06 90.05   C 103.38 89.39 106.01 88.01 107.17 85.90   Q 111.04 78.87 110.72 70.28"/>
<path stroke="#676d4d" vector-effect="non-scaling-stroke" d="   M 110.72 70.28   Q 111.48 58.31 109.20 47.50"/>
<path stroke="#75785e" vector-effect="non-scaling-stroke" d="   M 109.20 47.50   Q 108.91 40.17 105.69 36.05   Q 102.53 32.02 97.34 32.10   C 91.41 32.19 83.35 34.33 79.22 39.10   Q 76.92 41.75 76.21 43.98   Q 70.99 60.29 72.22 80.11"/>
<path stroke="#adc466" vector-effect="non-scaling-stroke" d="   M 109.20 47.50   Q 105.82 40.06 99.09 37.62   C 89.85 34.28 83.35 40.90 80.41 48.93   Q 78.04 55.42 77.21 60.95"/>
<path stroke="#75785e" vector-effect="non-scaling-stroke" d="   M 77.21 60.95   L 76.35 62.91"/>
<path stroke="#98b964" vector-effect="non-scaling-stroke" d="   M 76.35 62.91   L 72.22 80.11"/>
<path stroke="#53624b" vector-effect="non-scaling-stroke" d="   M 108.27 57.20   Q 106.31 55.69 105.14 53.87   Q 104.20 52.41 100.42 51.32   C 89.86 48.26 83.05 54.98 77.53 62.75   Q 77.17 63.26 76.35 62.91"/>
<path stroke="#8bae53" vector-effect="non-scaling-stroke" d="   M 110.72 70.28   L 108.27 57.20"/>
<path stroke="#676d4d" vector-effect="non-scaling-stroke" d="   M 108.27 57.20   Q 104.33 49.03 95.72 48.28   C 89.71 47.76 84.33 51.61 80.79 56.09   Q 80.76 56.13 79.21 58.51   Q 78.41 59.74 77.21 60.95"/>
<path stroke="#53624b" vector-effect="non-scaling-stroke" d="   M 114.51 67.78   Q 114.36 73.58 114.16 80.00   Q 114.06 83.34 116.55 83.91   Q 117.85 84.21 120.35 83.34   Q 126.93 81.05 133.55 78.89"/>
<path stroke="#676d4d" vector-effect="non-scaling-stroke" d="   M 133.55 78.89   Q 133.69 78.90 133.80 78.98   Q 133.91 79.07 133.88 79.20   L 133.77 79.67"/>
<path stroke="#75785e" vector-effect="non-scaling-stroke" d="   M 133.77 79.67   Q 120.07 87.35 112.57 92.56   C 101.01 100.58 89.29 114.09 84.72 128.25   Q 84.56 128.72 84.91 129.08   Q 88.62 132.92 93.92 135.64"/>
<path stroke="#676d4d" vector-effect="non-scaling-stroke" d="   M 93.92 135.64   L 101.02 137.62"/>
<path stroke="#53624b" vector-effect="non-scaling-stroke" d="   M 101.02 137.62   Q 108.54 138.09 114.36 134.40   Q 115.36 133.77 115.07 132.62   Q 111.73 119.34 117.34 106.37   C 121.74 96.20 129.03 90.44 138.72 85.35"/>
<path stroke="#676d4d" vector-effect="non-scaling-stroke" d="   M 138.72 85.35   L 144.77 83.86   Q 146.00 83.56 144.96 84.29   L 141.47 86.75"/>
<path stroke="#53624b" vector-effect="non-scaling-stroke" d="   M 141.47 86.75   Q 135.53 90.96 129.97 96.84   Q 129.53 97.31 130.17 97.23   Q 142.97 95.75 156.31 91.15"/>
<path stroke="#676d4d" vector-effect="non-scaling-stroke" d="   M 156.31 91.15   L 161.31 88.55"/>
<path stroke="#53624b" vector-effect="non-scaling-stroke" d="   M 161.31 88.55   Q 170.63 85.00 176.94 77.92   C 181.82 72.44 180.97 64.92 177.62 58.82"/>
<path stroke="#676d4d" vector-effect="non-scaling-stroke" d="   M 177.62 58.82   Q 175.23 54.79 172.09 50.09   C 171.02 48.48 170.42 46.82 169.71 45.01"/>
<path stroke="#75785e" vector-effect="non-scaling-stroke" d="   M 169.71 45.01   Q 169.37 40.25 165.99 46.30   C 160.97 55.27 153.31 63.03 145.20 69.23   Q 141.82 71.82 138.24 74.85"/>
<path stroke="#676d4d" vector-effect="non-scaling-stroke" d="   M 138.24 74.85   L 134.17 76.94"/>
<path stroke="#53624b" vector-effect="non-scaling-stroke" d="   M 134.17 76.94   Q 142.58 69.66 148.28 63.02   Q 149.68 61.39 151.48 58.24   Q 151.75 57.77 151.37 57.38   C 143.23 49.01 128.39 44.06 118.67 52.55   Q 118.56 52.65 118.44 52.57   Q 118.32 52.50 118.20 52.42"/>
<path stroke="#676d4d" vector-effect="non-scaling-stroke" d="   M 118.20 52.42   C 125.46 43.69 140.64 46.61 148.91 51.36   Q 150.59 52.33 149.40 50.80   Q 145.40 45.66 139.97 42.16"/>
<path stroke="#75785e" vector-effect="non-scaling-stroke" d="   M 139.97 42.16   Q 133.52 36.96 124.22 33.76   C 120.90 32.62 113.71 30.50 111.26 33.06   Q 109.44 34.95 110.28 37.38   Q 112.19 42.85 112.76 46.00   Q 114.29 54.47 114.51 67.78"/>
<path stroke="#adc466" vector-effect="non-scaling-stroke" d="   M 139.97 42.16   Q 130.30 38.54 125.00 37.53   Q 120.97 36.76 117.08 37.10   A 0.84 0.84 0.0 0 0 116.31 37.98   L 117.01 53.40"/>
<path stroke="#98b964" vector-effect="non-scaling-stroke" d="   M 117.01 53.40   L 114.51 67.78"/>
<path stroke="#8bae53" vector-effect="non-scaling-stroke" d="   M 118.20 52.42   L 117.01 53.40"/>
<path stroke="#8bae53" vector-effect="non-scaling-stroke" d="   M 177.62 58.82   Q 177.11 65.53 175.93 68.42   Q 172.99 75.59 166.16 82.68   Q 162.75 86.23 161.31 88.55"/>
<path stroke="#8bae53" vector-effect="non-scaling-stroke" d="   M 156.31 91.15   Q 149.57 87.48 141.47 86.75"/>
<path stroke="#8bae53" vector-effect="non-scaling-stroke" d="   M 138.72 85.35   Q 138.59 84.32 138.09 83.69   Q 137.74 83.25 137.20 83.22   Q 136.57 83.19 136.15 83.57"/>
<path stroke="#adc466" vector-effect="non-scaling-stroke" d="   M 136.15 83.57   Q 134.03 82.10 133.77 79.67"/>
<path stroke="#8bae53" vector-effect="non-scaling-stroke" d="   M 133.55 78.89   Q 133.48 77.59 134.17 76.94"/>
<path stroke="#adc466" vector-effect="non-scaling-stroke" d="   M 169.71 45.01   Q 167.61 50.55 166.72 51.98   Q 162.71 58.47 155.15 65.90   Q 147.62 73.31 138.24 74.85"/>
<path stroke="#8bae53" vector-effect="non-scaling-stroke" d="   M 101.02 137.62   Q 101.01 129.69 101.94 123.75   Q 103.86 111.46 111.23 99.56"/>
<path stroke="#98b964" vector-effect="non-scaling-stroke" d="   M 136.15 83.57   Q 120.93 88.42 111.23 99.56"/>
<path stroke="#adc466" vector-effect="non-scaling-stroke" d="   M 111.23 99.56   Q 107.68 101.38 104.69 105.43   Q 97.56 115.10 94.64 124.74   Q 93.41 128.82 93.92 135.64"/>
<path stroke="#53624b" vector-effect="non-scaling-stroke" d="   M 40.70 82.86   Q 50.46 88.46 60.26 90.53   Q 65.38 91.62 67.27 90.94   Q 69.78 90.03 69.35 86.99   Q 69.03 84.80 68.38 77.46"/>
<path stroke="#75785e" vector-effect="non-scaling-stroke" d="   M 68.38 77.46   Q 67.95 67.27 69.00 61.25   Q 69.99 55.55 71.05 49.84   Q 71.45 47.67 70.21 46.01   C 68.69 43.99 65.11 45.32 63.53 46.72   Q 53.22 55.82 45.82 68.09   Q 42.06 74.30 40.70 82.86"/>
<path stroke="#98b964" vector-effect="non-scaling-stroke" d="   M 68.38 77.46   Q 65.97 75.05 66.36 72.25   Q 66.77 69.33 66.68 66.60"/>
<path stroke="#75785e" vector-effect="non-scaling-stroke" d="   M 66.68 66.60   Q 67.15 64.85 66.45 63.37"/>
<path stroke="#adc466" vector-effect="non-scaling-stroke" d="   M 66.45 63.37   Q 69.07 58.28 66.40 52.58   A 1.64 1.64 0.0 0 0 64.09 51.85   Q 59.55 54.49 56.35 59.07   Q 55.88 59.75 55.95 60.44"/>
<path stroke="#75785e" vector-effect="non-scaling-stroke" d="   M 55.95 60.44   Q 55.37 60.78 54.88 61.33   Q 50.41 66.37 46.74 72.46"/>
<path stroke="#98b964" vector-effect="non-scaling-stroke" d="   M 46.74 72.46   Q 43.22 76.71 40.70 82.86"/>
<path stroke="#676d4d" vector-effect="non-scaling-stroke" d="   M 66.45 63.37   Q 63.82 57.04 58.56 59.41   Q 57.29 59.99 55.95 60.44"/>
<path stroke="#53624b" vector-effect="non-scaling-stroke" d="   M 66.68 66.60   Q 66.00 65.39 65.36 64.19   C 63.72 61.10 60.39 60.00 57.44 62.18   Q 54.24 64.56 46.74 72.46"/>
<path stroke="#53624b" vector-effect="non-scaling-stroke" d="   M 29.07 72.01   A 0.52 0.52 0.0 0 0 28.75 72.86   L 35.38 80.65   A 0.52 0.52 0.0 0 0 36.27 80.47   L 39.29 71.19   A 0.52 0.52 0.0 0 0 38.72 70.51   L 29.07 72.01"/>
<path stroke="#676d4d" vector-effect="non-scaling-stroke" d="   M 179.66 87.64   L 178.31 89.54   Q 177.98 90.01 178.47 90.32   L 180.54 91.58"/>
<path stroke="#53624b" vector-effect="non-scaling-stroke" d="   M 180.54 91.58   Q 186.42 94.90 188.51 96.77   C 198.37 105.63 197.48 118.48 191.45 129.55   Q 191.20 130.00 191.65 130.25   Q 196.57 132.95 201.97 133.17"/>
<path stroke="#676d4d" vector-effect="non-scaling-stroke" d="   M 201.97 133.17   Q 206.43 132.44 208.03 130.99"/>
<path stroke="#75785e" vector-effect="non-scaling-stroke" d="   M 208.03 130.99   Q 215.16 126.72 216.20 120.00   C 217.33 112.67 214.12 106.78 208.79 101.67   Q 196.86 90.26 180.61 86.75   Q 180.10 86.64 179.83 87.10   Q 179.60 87.48 179.66 87.64"/>
<path stroke="#adc466" vector-effect="non-scaling-stroke" d="   M 208.03 130.99   Q 218.63 113.83 205.50 101.98   Q 194.68 92.23 179.66 87.64"/>
<path stroke="#8bae53" vector-effect="non-scaling-stroke" d="   M 201.97 133.17   Q 207.88 119.96 202.25 108.00   Q 196.68 96.16 183.06 91.42   Q 182.61 91.26 182.13 91.33   L 180.54 91.58"/>
<path stroke="#784e3d" vector-effect="non-scaling-stroke" d="   M 131.21 102.28   L 125.43 102.82   Q 124.86 102.87 124.60 103.38   Q 121.86 108.62 120.42 114.08   A 0.39 0.39 0.0 0 0 120.83 114.57   Q 133.70 113.45 145.54 109.12   Q 154.87 105.71 162.84 98.20"/>
<path stroke="#86614a" vector-effect="non-scaling-stroke" d="   M 162.84 98.20   Q 167.48 95.18 171.44 89.41   A 0.24 0.23 1.1 0 0 171.12 89.08   C 159.05 96.61 145.28 100.37 131.21 102.28"/>
<path stroke="#cf8e41" vector-effect="non-scaling-stroke" d="   M 162.84 98.20   Q 147.71 104.35 132.44 107.34   A 0.66 0.65 -8.4 0 1 131.66 106.77   L 131.21 102.28"/>
<path stroke="#784e3d" vector-effect="non-scaling-stroke" d="   M 54.16 99.56   Q 69.88 108.45 87.02 110.49   Q 87.52 110.54 87.84 110.15   L 93.55 103.09"/>
<path stroke="#86614a" vector-effect="non-scaling-stroke" d="   M 93.55 103.09   L 99.78 97.07   Q 101.14 95.76 99.28 96.11   Q 76.51 100.35 54.49 94.14   Q 48.85 92.55 43.94 90.24   Q 41.83 89.25 43.36 91.01   Q 48.02 96.38 54.16 99.56"/>
<path stroke="#cf8e41" vector-effect="non-scaling-stroke" d="   M 93.55 103.09   L 54.16 99.56"/>
<path stroke="#53624b" vector-effect="non-scaling-stroke" d="   M 26.22 127.72   Q 30.08 128.40 34.67 127.33   Q 35.69 127.09 35.51 126.06   Q 34.17 118.41 34.77 111.18   Q 35.25 105.47 39.94 102.14   Q 40.40 101.81 40.21 101.28   L 36.99 92.44"/>
<path stroke="#75785e" vector-effect="non-scaling-stroke" d="   M 36.99 92.44   Q 37.05 91.87 36.78 91.66   Q 36.42 91.39 36.08 91.68   Q 25.30 100.82 21.51 112.30   C 19.51 118.37 19.64 124.60 26.22 127.72"/>
<path stroke="#98b964" vector-effect="non-scaling-stroke" d="   M 36.99 92.44   Q 31.98 100.19 29.36 106.55   Q 25.44 116.03 26.22 127.72"/>
<path stroke="#676d4d" vector-effect="non-scaling-stroke" d="   M 195.89 28.84   C 196.21 30.21 196.09 31.56 196.73 32.84   C 199.70 38.77 207.13 38.91 213.03 37.62   A 0.44 0.44 0.0 0 0 213.37 37.10   Q 211.55 28.27 205.04 24.75   C 203.74 24.05 200.63 23.55 199.14 23.77   Q 195.59 24.30 192.54 25.45   A 0.50 0.49 -40.1 0 0 192.46 26.34   L 195.27 28.00   Q 195.76 28.29 195.89 28.84"/>
<path stroke="#75785e" vector-effect="non-scaling-stroke" d="   M 206.4766 32.7353   A 3.49 2.66 17.6 0 0 203.9543 29.1445   A 3.49 2.66 17.6 0 0 199.8234 30.6247   A 3.49 2.66 17.6 0 0 202.3457 34.2155   A 3.49 2.66 17.6 0 0 206.4766 32.7353"/>
</g>
<path fill="#9b92a5" d="   M 185.87 124.53   C 180.58 129.53 175.35 133.71 167.73 133.20   C 162.16 132.82 157.72 129.41 160.80 123.23   C 162.80 119.23 164.85 113.96 163.08 109.76   A 1.21 1.21 0.0 0 0 161.41 109.15   C 148.61 115.73 135.36 120.23 120.97 121.47   Q 120.42 121.52 120.43 122.07   Q 120.52 127.37 121.70 133.40   C 122.16 135.75 121.45 137.33 119.48 138.66   Q 103.55 149.39 86.97 138.98   Q 82.99 136.48 79.32 133.07   C 77.81 131.67 77.45 129.73 78.09 127.81   Q 79.99 122.12 82.43 117.10   A 0.32 0.32 0.0 0 0 82.19 116.64   Q 72.50 115.32 63.45 111.70   Q 62.55 111.34 62.52 112.31   C 62.33 117.68 66.42 121.06 67.00 126.07   Q 67.60 131.32 61.83 132.27   C 54.16 133.53 48.83 130.34 43.27 125.61   Q 42.11 124.63 42.50 126.10   Q 43.67 130.43 40.29 132.03   C 36.22 133.97 31.41 135.18 26.93 134.32   Q 21.44 133.27 17.90 129.42   C 11.19 122.13 14.50 110.44 19.09 102.42   Q 24.21 93.49 32.16 86.54   A 0.44 0.43 44.2 0 0 32.15 85.87   Q 25.58 80.62 22.06 72.46   C 20.80 69.55 21.72 66.24 25.28 65.82   Q 33.33 64.85 40.85 63.00   Q 41.63 62.81 42.05 62.15   C 53.58 44.03 71.34 30.76 92.09 26.12   Q 102.39 23.81 112.38 24.82   C 129.53 26.56 145.79 35.53 156.27 49.08   Q 156.64 49.56 156.97 49.05   Q 163.95 38.34 169.20 27.91   Q 174.04 18.27 182.71 14.30   C 189.03 11.40 195.70 10.08 202.54 11.24   Q 218.46 13.95 226.48 27.98   Q 229.04 32.48 231.78 40.04   C 232.33 41.57 232.50 43.30 232.26 44.86   C 231.20 51.81 227.04 57.22 222.08 62.23   Q 221.12 63.20 219.93 63.68   Q 219.45 63.88 218.98 63.68   Q 216.88 62.82 214.89 63.25   Q 208.58 64.61 201.88 65.77   C 192.86 67.33 187.85 72.62 184.71 80.88   A 0.47 0.47 0.0 0 0 185.05 81.51   C 195.85 83.81 204.90 89.41 212.92 97.12   C 218.44 102.42 222.57 109.73 222.75 117.34   Q 222.94 125.27 216.62 132.20   Q 212.97 136.21 207.79 138.34   C 199.85 141.60 191.70 138.76 185.50 133.39   C 182.94 131.17 185.11 127.17 186.23 124.78   Q 186.72 123.73 185.87 124.53   Z   M 189.06 120.52   Q 187.76 123.83 185.91 127.86   Q 184.19 131.60 187.19 133.66   Q 203.39 144.82 216.11 131.33   Q 221.23 125.90 221.79 118.83   C 222.40 111.12 218.36 104.07 212.90 98.48   Q 200.37 85.62 183.90 82.18   A 0.68 0.68 0.0 0 1 183.41 81.26   Q 185.27 76.64 188.37 72.43   C 191.54 68.13 196.13 65.80 201.27 64.92   Q 207.50 63.85 213.97 62.42   Q 216.64 61.84 218.92 62.65   Q 219.76 62.95 220.43 62.37   C 226.59 57.11 233.61 47.81 230.55 39.35   C 228.70 34.20 226.25 28.22 222.87 24.05   Q 214.68 13.93 201.67 12.09   Q 196.46 11.35 191.32 12.39   C 182.05 14.27 174.64 19.37 170.20 28.10   Q 164.14 40.01 156.95 50.78   Q 156.70 51.16 156.42 50.80   Q 145.15 36.11 128.67 29.71   C 96.09 17.04 60.91 34.24 43.03 62.41   C 42.39 63.41 41.83 63.72 40.71 64.00   Q 32.57 66.03 24.83 66.77   C 22.57 66.99 21.96 69.49 22.64 71.30   Q 25.73 79.56 33.45 85.71   A 0.66 0.66 0.0 0 1 33.46 86.73   C 24.20 94.47 14.87 107.13 15.00 119.69   C 15.13 133.30 30.10 136.19 40.22 131.04   C 42.98 129.64 41.47 125.11 40.86 122.81   Q 40.60 121.83 41.35 122.52   C 47.78 128.37 52.46 132.44 61.80 131.38   C 66.52 130.85 67.02 126.27 65.15 122.78   C 63.29 119.33 60.28 114.93 62.11 111.05   A 0.89 0.88 -66.2 0 1 63.23 110.61   Q 73.06 114.54 83.18 115.83   A 0.62 0.61 -73.5 0 1 83.65 116.71   C 81.71 120.65 79.29 125.59 78.81 130.00   Q 78.76 130.51 79.03 130.96   Q 80.22 132.96 82.20 134.47   C 85.76 137.21 89.73 139.97 93.93 141.37   Q 107.03 145.71 118.96 137.91   Q 121.28 136.39 120.78 133.73   Q 119.59 127.46 119.38 121.33   A 0.69 0.69 0.0 0 1 120.02 120.62   C 134.52 119.46 147.82 115.02 160.71 108.47   Q 162.87 107.37 163.87 109.52   C 166.27 114.66 163.33 119.94 161.25 124.72   Q 159.34 129.11 163.32 131.00   C 173.74 135.96 182.28 126.87 188.63 120.24   Q 189.55 119.29 189.06 120.52   Z"/>
<path fill="#2f2145" d="   M 188.63 120.24   C 182.28 126.87 173.74 135.96 163.32 131.00   Q 159.34 129.11 161.25 124.72   C 163.33 119.94 166.27 114.66 163.87 109.52   Q 162.87 107.37 160.71 108.47   C 147.82 115.02 134.52 119.46 120.02 120.62   A 0.69 0.69 0.0 0 0 119.38 121.33   Q 119.59 127.46 120.78 133.73   Q 121.28 136.39 118.96 137.91   Q 107.03 145.71 93.93 141.37   C 89.73 139.97 85.76 137.21 82.20 134.47   Q 80.22 132.96 79.03 130.96   Q 78.76 130.51 78.81 130.00   C 79.29 125.59 81.71 120.65 83.65 116.71   A 0.62 0.61 -73.5 0 0 83.18 115.83   Q 73.06 114.54 63.23 110.61   A 0.89 0.88 -66.2 0 0 62.11 111.05   C 60.28 114.93 63.29 119.33 65.15 122.78   C 67.02 126.27 66.52 130.85 61.80 131.38   C 52.46 132.44 47.78 128.37 41.35 122.52   Q 40.60 121.83 40.86 122.81   C 41.47 125.11 42.98 129.64 40.22 131.04   C 30.10 136.19 15.13 133.30 15.00 119.69   C 14.87 107.13 24.20 94.47 33.46 86.73   A 0.66 0.66 0.0 0 0 33.45 85.71   Q 25.73 79.56 22.64 71.30   C 21.96 69.49 22.57 66.99 24.83 66.77   Q 32.57 66.03 40.71 64.00   C 41.83 63.72 42.39 63.41 43.03 62.41   C 60.91 34.24 96.09 17.04 128.67 29.71   Q 145.15 36.11 156.42 50.80   Q 156.70 51.16 156.95 50.78   Q 164.14 40.01 170.20 28.10   C 174.64 19.37 182.05 14.27 191.32 12.39   Q 196.46 11.35 201.67 12.09   Q 214.68 13.93 222.87 24.05   C 226.25 28.22 228.70 34.20 230.55 39.35   C 233.61 47.81 226.59 57.11 220.43 62.37   Q 219.76 62.95 218.92 62.65   Q 216.64 61.84 213.97 62.42   Q 207.50 63.85 201.27 64.92   C 196.13 65.80 191.54 68.13 188.37 72.43   Q 185.27 76.64 183.41 81.26   A 0.68 0.68 0.0 0 0 183.90 82.18   Q 200.37 85.62 212.90 98.48   C 218.36 104.07 222.40 111.12 221.79 118.83   Q 221.23 125.90 216.11 131.33   Q 203.39 144.82 187.19 133.66   Q 184.19 131.60 185.91 127.86   Q 187.76 123.83 189.06 120.52   Q 189.55 119.29 188.63 120.24   Z   M 175.54 50.67   Q 185.54 61.45 200.00 59.55   Q 205.14 58.87 215.26 56.37   A 0.65 0.65 0.0 0 0 215.73 55.57   C 214.85 52.09 212.62 50.79 209.50 49.71   Q 207.51 49.03 209.61 48.86   Q 217.35 48.23 219.76 54.48   Q 219.98 55.04 220.48 54.72   Q 221.77 53.89 222.21 52.30   Q 228.70 44.87 223.83 36.95   Q 220.92 29.75 218.22 26.78   Q 208.20 15.76 194.03 17.29   C 185.46 18.21 178.58 23.42 174.64 31.10   Q 172.09 36.07 169.41 41.12   Q 169.18 41.56 169.46 41.98   L 175.54 50.67   Z   M 72.22 80.11   Q 71.88 87.86 77.18 90.95   Q 80.66 92.98 87.56 92.44   Q 94.57 91.90 101.06 90.05   C 103.38 89.39 106.01 88.01 107.17 85.90   Q 111.04 78.87 110.72 70.28   Q 111.48 58.31 109.20 47.50   Q 108.91 40.17 105.69 36.05   Q 102.53 32.02 97.34 32.10   C 91.41 32.19 83.35 34.33 79.22 39.10   Q 76.92 41.75 76.21 43.98   Q 70.99 60.29 72.22 80.11   Z   M 114.51 67.78   Q 114.36 73.58 114.16 80.00   Q 114.06 83.34 116.55 83.91   Q 117.85 84.21 120.35 83.34   Q 126.93 81.05 133.55 78.89   Q 133.69 78.90 133.80 78.98   Q 133.91 79.07 133.88 79.20   L 133.77 79.67   Q 120.07 87.35 112.57 92.56   C 101.01 100.58 89.29 114.09 84.72 128.25   Q 84.56 128.72 84.91 129.08   Q 88.62 132.92 93.92 135.64   L 101.02 137.62   Q 108.54 138.09 114.36 134.40   Q 115.36 133.77 115.07 132.62   Q 111.73 119.34 117.34 106.37   C 121.74 96.20 129.03 90.44 138.72 85.35   L 144.77 83.86   Q 146.00 83.56 144.96 84.29   L 141.47 86.75   Q 135.53 90.96 129.97 96.84   Q 129.53 97.31 130.17 97.23   Q 142.97 95.75 156.31 91.15   L 161.31 88.55   Q 170.63 85.00 176.94 77.92   C 181.82 72.44 180.97 64.92 177.62 58.82   Q 175.23 54.79 172.09 50.09   C 171.02 48.48 170.42 46.82 169.71 45.01   Q 169.37 40.25 165.99 46.30   C 160.97 55.27 153.31 63.03 145.20 69.23   Q 141.82 71.82 138.24 74.85   L 134.17 76.94   Q 142.58 69.66 148.28 63.02   Q 149.68 61.39 151.48 58.24   Q 151.75 57.77 151.37 57.38   C 143.23 49.01 128.39 44.06 118.67 52.55   Q 118.56 52.65 118.44 52.57   Q 118.32 52.50 118.20 52.42   C 125.46 43.69 140.64 46.61 148.91 51.36   Q 150.59 52.33 149.40 50.80   Q 145.40 45.66 139.97 42.16   Q 133.52 36.96 124.22 33.76   C 120.90 32.62 113.71 30.50 111.26 33.06   Q 109.44 34.95 110.28 37.38   Q 112.19 42.85 112.76 46.00   Q 114.29 54.47 114.51 67.78   Z   M 40.70 82.86   Q 50.46 88.46 60.26 90.53   Q 65.38 91.62 67.27 90.94   Q 69.78 90.03 69.35 86.99   Q 69.03 84.80 68.38 77.46   Q 67.95 67.27 69.00 61.25   Q 69.99 55.55 71.05 49.84   Q 71.45 47.67 70.21 46.01   C 68.69 43.99 65.11 45.32 63.53 46.72   Q 53.22 55.82 45.82 68.09   Q 42.06 74.30 40.70 82.86   Z   M 29.07 72.01   A 0.52 0.52 0.0 0 0 28.75 72.86   L 35.38 80.65   A 0.52 0.52 0.0 0 0 36.27 80.47   L 39.29 71.19   A 0.52 0.52 0.0 0 0 38.72 70.51   L 29.07 72.01   Z   M 179.66 87.64   L 178.31 89.54   Q 177.98 90.01 178.47 90.32   L 180.54 91.58   Q 186.42 94.90 188.51 96.77   C 198.37 105.63 197.48 118.48 191.45 129.55   Q 191.20 130.00 191.65 130.25   Q 196.57 132.95 201.97 133.17   Q 206.43 132.44 208.03 130.99   Q 215.16 126.72 216.20 120.00   C 217.33 112.67 214.12 106.78 208.79 101.67   Q 196.86 90.26 180.61 86.75   Q 180.10 86.64 179.83 87.10   Q 179.60 87.48 179.66 87.64   Z   M 131.21 102.28   L 125.43 102.82   Q 124.86 102.87 124.60 103.38   Q 121.86 108.62 120.42 114.08   A 0.39 0.39 0.0 0 0 120.83 114.57   Q 133.70 113.45 145.54 109.12   Q 154.87 105.71 162.84 98.20   Q 167.48 95.18 171.44 89.41   A 0.24 0.23 1.1 0 0 171.12 89.08   C 159.05 96.61 145.28 100.37 131.21 102.28   Z   M 54.16 99.56   Q 69.88 108.45 87.02 110.49   Q 87.52 110.54 87.84 110.15   L 93.55 103.09   L 99.78 97.07   Q 101.14 95.76 99.28 96.11   Q 76.51 100.35 54.49 94.14   Q 48.85 92.55 43.94 90.24   Q 41.83 89.25 43.36 91.01   Q 48.02 96.38 54.16 99.56   Z   M 26.22 127.72   Q 30.08 128.40 34.67 127.33   Q 35.69 127.09 35.51 126.06   Q 34.17 118.41 34.77 111.18   Q 35.25 105.47 39.94 102.14   Q 40.40 101.81 40.21 101.28   L 36.99 92.44   Q 37.05 91.87 36.78 91.66   Q 36.42 91.39 36.08 91.68   Q 25.30 100.82 21.51 112.30   C 19.51 118.37 19.64 124.60 26.22 127.72   Z"/>
<path fill="#bace77" d="   M 223.83 36.95   Q 221.69 36.94 220.31 34.92   C 215.34 27.65 211.29 21.25 201.78 19.71   Q 185.99 17.14 177.35 29.82   Q 172.23 37.32 175.91 44.65   Q 178.44 49.70 182.00 52.78   Q 182.17 52.92 182.20 53.13   Q 182.24 53.38 182.18 53.72   Q 178.57 51.06 175.54 50.67   L 169.46 41.98   Q 169.18 41.56 169.41 41.12   Q 172.09 36.07 174.64 31.10   C 178.58 23.42 185.46 18.21 194.03 17.29   Q 208.20 15.76 218.22 26.78   Q 220.92 29.75 223.83 36.95   Z"/>
<path fill="#9fb955" d="   M 223.83 36.95   Q 228.70 44.87 222.21 52.30   L 221.20 46.84   C 221.57 42.50 218.02 41.33 214.87 43.50   L 206.11 47.32   Q 204.80 47.90 206.00 48.69   L 206.72 49.17   Q 207.33 49.57 206.70 49.97   Q 202.02 52.89 197.27 54.31   Q 189.55 56.64 182.18 53.72   Q 182.24 53.38 182.20 53.13   Q 182.17 52.92 182.00 52.78   Q 178.44 49.70 175.91 44.65   Q 172.23 37.32 177.35 29.82   Q 185.99 17.14 201.78 19.71   C 211.29 21.25 215.34 27.65 220.31 34.92   Q 221.69 36.94 223.83 36.95   Z   M 195.89 28.84   C 196.21 30.21 196.09 31.56 196.73 32.84   C 199.70 38.77 207.13 38.91 213.03 37.62   A 0.44 0.44 0.0 0 0 213.37 37.10   Q 211.55 28.27 205.04 24.75   C 203.74 24.05 200.63 23.55 199.14 23.77   Q 195.59 24.30 192.54 25.45   A 0.50 0.49 -40.1 0 0 192.46 26.34   L 195.27 28.00   Q 195.76 28.29 195.89 28.84   Z"/>
<path fill="#2f2145" d="   M 195.27 28.00   L 192.46 26.34   A 0.50 0.49 -40.1 0 1 192.54 25.45   Q 195.59 24.30 199.14 23.77   C 200.63 23.55 203.74 24.05 205.04 24.75   Q 211.55 28.27 213.37 37.10   A 0.44 0.44 0.0 0 1 213.03 37.62   C 207.13 38.91 199.70 38.77 196.73 32.84   C 196.09 31.56 196.21 30.21 195.89 28.84   Q 195.76 28.29 195.27 28.00   Z   M 206.4766 32.7353   A 3.49 2.66 17.6 0 0 203.9543 29.1445   A 3.49 2.66 17.6 0 0 199.8234 30.6247   A 3.49 2.66 17.6 0 0 202.3457 34.2155   A 3.49 2.66 17.6 0 0 206.4766 32.7353   Z"/>
<ellipse fill="#bace77" cx="0.00" cy="0.00" transform="translate(203.15,31.68) rotate(17.6)" rx="3.49" ry="2.66"/>
<path fill="#bace77" d="   M 109.20 47.50   Q 105.82 40.06 99.09 37.62   C 89.85 34.28 83.35 40.90 80.41 48.93   Q 78.04 55.42 77.21 60.95   L 76.35 62.91   L 72.22 80.11   Q 70.99 60.29 76.21 43.98   Q 76.92 41.75 79.22 39.10   C 83.35 34.33 91.41 32.19 97.34 32.10   Q 102.53 32.02 105.69 36.05   Q 108.91 40.17 109.20 47.50   Z"/>
<path fill="#bace77" d="   M 139.97 42.16   Q 130.30 38.54 125.00 37.53   Q 120.97 36.76 117.08 37.10   A 0.84 0.84 0.0 0 0 116.31 37.98   L 117.01 53.40   L 114.51 67.78   Q 114.29 54.47 112.76 46.00   Q 112.19 42.85 110.28 37.38   Q 109.44 34.95 111.26 33.06   C 113.71 30.50 120.90 32.62 124.22 33.76   Q 133.52 36.96 139.97 42.16   Z"/>
<path fill="#9fb955" d="   M 109.20 47.50   Q 111.48 58.31 110.72 70.28   L 108.27 57.20   Q 104.33 49.03 95.72 48.28   C 89.71 47.76 84.33 51.61 80.79 56.09   Q 80.76 56.13 79.21 58.51   Q 78.41 59.74 77.21 60.95   Q 78.04 55.42 80.41 48.93   C 83.35 40.90 89.85 34.28 99.09 37.62   Q 105.82 40.06 109.20 47.50   Z"/>
<path fill="#9fb955" d="   M 139.97 42.16   Q 145.40 45.66 149.40 50.80   Q 150.59 52.33 148.91 51.36   C 140.64 46.61 125.46 43.69 118.20 52.42   L 117.01 53.40   L 116.31 37.98   A 0.84 0.84 0.0 0 1 117.08 37.10   Q 120.97 36.76 125.00 37.53   Q 130.30 38.54 139.97 42.16   Z"/>
<path fill="#bace77" d="   M 169.71 45.01   Q 167.61 50.55 166.72 51.98   Q 162.71 58.47 155.15 65.90   Q 147.62 73.31 138.24 74.85   Q 141.82 71.82 145.20 69.23   C 153.31 63.03 160.97 55.27 165.99 46.30   Q 169.37 40.25 169.71 45.01   Z"/>
<path fill="#2f2145" d="   M 221.20 46.84   L 214.87 43.50   C 218.02 41.33 221.57 42.50 221.20 46.84   Z"/>
<path fill="#76a350" d="   M 214.87 43.50   L 221.20 46.84   L 222.21 52.30   Q 221.77 53.89 220.48 54.72   Q 219.98 55.04 219.76 54.48   Q 217.35 48.23 209.61 48.86   Q 207.51 49.03 209.50 49.71   C 212.62 50.79 214.85 52.09 215.73 55.57   A 0.65 0.65 0.0 0 1 215.26 56.37   Q 205.14 58.87 200.00 59.55   Q 185.54 61.45 175.54 50.67   Q 178.57 51.06 182.18 53.72   Q 189.55 56.64 197.27 54.31   Q 202.02 52.89 206.70 49.97   Q 207.33 49.57 206.72 49.17   L 206.00 48.69   Q 204.80 47.90 206.11 47.32   L 214.87 43.50   Z"/>
<path fill="#bace77" d="   M 68.38 77.46   Q 65.97 75.05 66.36 72.25   Q 66.77 69.33 66.68 66.60   Q 67.15 64.85 66.45 63.37   Q 69.07 58.28 66.40 52.58   A 1.64 1.64 0.0 0 0 64.09 51.85   Q 59.55 54.49 56.35 59.07   Q 55.88 59.75 55.95 60.44   Q 55.37 60.78 54.88 61.33   Q 50.41 66.37 46.74 72.46   Q 43.22 76.71 40.70 82.86   Q 42.06 74.30 45.82 68.09   Q 53.22 55.82 63.53 46.72   C 65.11 45.32 68.69 43.99 70.21 46.01   Q 71.45 47.67 71.05 49.84   Q 69.99 55.55 69.00 61.25   Q 67.95 67.27 68.38 77.46   Z"/>
<path fill="#9fb955" d="   M 169.71 45.01   C 170.42 46.82 171.02 48.48 172.09 50.09   Q 175.23 54.79 177.62 58.82   Q 177.11 65.53 175.93 68.42   Q 172.99 75.59 166.16 82.68   Q 162.75 86.23 161.31 88.55   L 156.31 91.15   Q 149.57 87.48 141.47 86.75   L 144.96 84.29   Q 146.00 83.56 144.77 83.86   L 138.72 85.35   Q 138.59 84.32 138.09 83.69   Q 137.74 83.25 137.20 83.22   Q 136.57 83.19 136.15 83.57   Q 134.03 82.10 133.77 79.67   L 133.88 79.20   Q 133.91 79.07 133.80 78.98   Q 133.69 78.90 133.55 78.89   Q 133.48 77.59 134.17 76.94   L 138.24 74.85   Q 147.62 73.31 155.15 65.90   Q 162.71 58.47 166.72 51.98   Q 167.61 50.55 169.71 45.01   Z"/>
<path fill="#2f2145" d="   M 108.27 57.20   Q 106.31 55.69 105.14 53.87   Q 104.20 52.41 100.42 51.32   C 89.86 48.26 83.05 54.98 77.53 62.75   Q 77.17 63.26 76.35 62.91   L 77.21 60.95   Q 78.41 59.74 79.21 58.51   Q 80.76 56.13 80.79 56.09   C 84.33 51.61 89.71 47.76 95.72 48.28   Q 104.33 49.03 108.27 57.20   Z"/>
<path fill="#76a350" d="   M 134.17 76.94   Q 133.48 77.59 133.55 78.89   Q 126.93 81.05 120.35 83.34   Q 117.85 84.21 116.55 83.91   Q 114.06 83.34 114.16 80.00   Q 114.36 73.58 114.51 67.78   L 117.01 53.40   L 118.20 52.42   Q 118.32 52.50 118.44 52.57   Q 118.56 52.65 118.67 52.55   C 128.39 44.06 143.23 49.01 151.37 57.38   Q 151.75 57.77 151.48 58.24   Q 149.68 61.39 148.28 63.02   Q 142.58 69.66 134.17 76.94   Z"/>
<path fill="#76a350" d="   M 108.27 57.20   L 110.72 70.28   Q 111.04 78.87 107.17 85.90   C 106.01 88.01 103.38 89.39 101.06 90.05   Q 94.57 91.90 87.56 92.44   Q 80.66 92.98 77.18 90.95   Q 71.88 87.86 72.22 80.11   L 76.35 62.91   Q 77.17 63.26 77.53 62.75   C 83.05 54.98 89.86 48.26 100.42 51.32   Q 104.20 52.41 105.14 53.87   Q 106.31 55.69 108.27 57.20   Z"/>
<path fill="#9fb955" d="   M 66.45 63.37   Q 63.82 57.04 58.56 59.41   Q 57.29 59.99 55.95 60.44   Q 55.88 59.75 56.35 59.07   Q 59.55 54.49 64.09 51.85   A 1.64 1.64 0.0 0 1 66.40 52.58   Q 69.07 58.28 66.45 63.37   Z"/>
<path fill="#2f2145" d="   M 66.45 63.37   Q 67.15 64.85 66.68 66.60   Q 66.00 65.39 65.36 64.19   C 63.72 61.10 60.39 60.00 57.44 62.18   Q 54.24 64.56 46.74 72.46   Q 50.41 66.37 54.88 61.33   Q 55.37 60.78 55.95 60.44   Q 57.29 59.99 58.56 59.41   Q 63.82 57.04 66.45 63.37   Z"/>
<path fill="#76a350" d="   M 177.62 58.82   C 180.97 64.92 181.82 72.44 176.94 77.92   Q 170.63 85.00 161.31 88.55   Q 162.75 86.23 166.16 82.68   Q 172.99 75.59 175.93 68.42   Q 177.11 65.53 177.62 58.82   Z"/>
<path fill="#76a350" d="   M 66.68 66.60   Q 66.77 69.33 66.36 72.25   Q 65.97 75.05 68.38 77.46   Q 69.03 84.80 69.35 86.99   Q 69.78 90.03 67.27 90.94   Q 65.38 91.62 60.26 90.53   Q 50.46 88.46 40.70 82.86   Q 43.22 76.71 46.74 72.46   Q 54.24 64.56 57.44 62.18   C 60.39 60.00 63.72 61.10 65.36 64.19   Q 66.00 65.39 66.68 66.60   Z"/>
<path fill="#76a350" d="   M 29.07 72.01   L 38.72 70.51   A 0.52 0.52 0.0 0 1 39.29 71.19   L 36.27 80.47   A 0.52 0.52 0.0 0 1 35.38 80.65   L 28.75 72.86   A 0.52 0.52 0.0 0 1 29.07 72.01   Z"/>
<path fill="#bace77" d="   M 133.77 79.67   Q 134.03 82.10 136.15 83.57   Q 120.93 88.42 111.23 99.56   Q 107.68 101.38 104.69 105.43   Q 97.56 115.10 94.64 124.74   Q 93.41 128.82 93.92 135.64   Q 88.62 132.92 84.91 129.08   Q 84.56 128.72 84.72 128.25   C 89.29 114.09 101.01 100.58 112.57 92.56   Q 120.07 87.35 133.77 79.67   Z"/>
<path fill="#76a350" d="   M 138.72 85.35   C 129.03 90.44 121.74 96.20 117.34 106.37   Q 111.73 119.34 115.07 132.62   Q 115.36 133.77 114.36 134.40   Q 108.54 138.09 101.02 137.62   Q 101.01 129.69 101.94 123.75   Q 103.86 111.46 111.23 99.56   Q 120.93 88.42 136.15 83.57   Q 136.57 83.19 137.20 83.22   Q 137.74 83.25 138.09 83.69   Q 138.59 84.32 138.72 85.35   Z"/>
<path fill="#76a350" d="   M 141.47 86.75   Q 149.57 87.48 156.31 91.15   Q 142.97 95.75 130.17 97.23   Q 129.53 97.31 129.97 96.84   Q 135.53 90.96 141.47 86.75   Z"/>
<path fill="#bace77" d="   M 208.03 130.99   Q 218.63 113.83 205.50 101.98   Q 194.68 92.23 179.66 87.64   Q 179.60 87.48 179.83 87.10   Q 180.10 86.64 180.61 86.75   Q 196.86 90.26 208.79 101.67   C 214.12 106.78 217.33 112.67 216.20 120.00   Q 215.16 126.72 208.03 130.99   Z"/>
<path fill="#9fb955" d="   M 179.66 87.64   Q 194.68 92.23 205.50 101.98   Q 218.63 113.83 208.03 130.99   Q 206.43 132.44 201.97 133.17   Q 207.88 119.96 202.25 108.00   Q 196.68 96.16 183.06 91.42   Q 182.61 91.26 182.13 91.33   L 180.54 91.58   L 178.47 90.32   Q 177.98 90.01 178.31 89.54   L 179.66 87.64   Z"/>
<path fill="#dda14e" d="   M 162.84 98.20   Q 147.71 104.35 132.44 107.34   A 0.66 0.65 -8.4 0 1 131.66 106.77   L 131.21 102.28   C 145.28 100.37 159.05 96.61 171.12 89.08   A 0.24 0.23 1.1 0 1 171.44 89.41   Q 167.48 95.18 162.84 98.20   Z"/>
<path fill="#dda14e" d="   M 93.55 103.09   L 54.16 99.56   Q 48.02 96.38 43.36 91.01   Q 41.83 89.25 43.94 90.24   Q 48.85 92.55 54.49 94.14   Q 76.51 100.35 99.28 96.11   Q 101.14 95.76 99.78 97.07   L 93.55 103.09   Z"/>
<path fill="#76a350" d="   M 201.97 133.17   Q 196.57 132.95 191.65 130.25   Q 191.20 130.00 191.45 129.55   C 197.48 118.48 198.37 105.63 188.51 96.77   Q 186.42 94.90 180.54 91.58   L 182.13 91.33   Q 182.61 91.26 183.06 91.42   Q 196.68 96.16 202.25 108.00   Q 207.88 119.96 201.97 133.17   Z"/>
<path fill="#bace77" d="   M 36.99 92.44   Q 31.98 100.19 29.36 106.55   Q 25.44 116.03 26.22 127.72   C 19.64 124.60 19.51 118.37 21.51 112.30   Q 25.30 100.82 36.08 91.68   Q 36.42 91.39 36.78 91.66   Q 37.05 91.87 36.99 92.44   Z"/>
<path fill="#76a350" d="   M 36.99 92.44   L 40.21 101.28   Q 40.40 101.81 39.94 102.14   Q 35.25 105.47 34.77 111.18   Q 34.17 118.41 35.51 126.06   Q 35.69 127.09 34.67 127.33   Q 30.08 128.40 26.22 127.72   Q 25.44 116.03 29.36 106.55   Q 31.98 100.19 36.99 92.44   Z"/>
<path fill="#c17a34" d="   M 162.84 98.20   Q 154.87 105.71 145.54 109.12   Q 133.70 113.45 120.83 114.57   A 0.39 0.39 0.0 0 1 120.42 114.08   Q 121.86 108.62 124.60 103.38   Q 124.86 102.87 125.43 102.82   L 131.21 102.28   L 131.66 106.77   A 0.66 0.65 -8.4 0 0 132.44 107.34   Q 147.71 104.35 162.84 98.20   Z"/>
<path fill="#c17a34" d="   M 93.55 103.09   L 87.84 110.15   Q 87.52 110.54 87.02 110.49   Q 69.88 108.45 54.16 99.56   L 93.55 103.09   Z"/>
<path fill="#9fb955" d="   M 111.23 99.56   Q 103.86 111.46 101.94 123.75   Q 101.01 129.69 101.02 137.62   L 93.92 135.64   Q 93.41 128.82 94.64 124.74   Q 97.56 115.10 104.69 105.43   Q 107.68 101.38 111.23 99.56   Z"/>
</svg>