<svg xmlns="http://www.w3.org/2000/svg" version="1.1" viewBox="254.12 273.23 520.77 315.32">
<g stroke-width="2.00" fill="none" stroke-linecap="butt">
<path stroke="#000000" vector-effect="non-scaling-stroke" d="   M 717.46 363.61   A 0.42 0.42 0.0 0 1 717.64 362.89   Q 723.26 361.45 730.00 362.36   C 738.81 363.56 745.33 368.68 747.38 377.54   A 0.20 0.20 0.0 0 0 747.73 377.63   Q 753.33 371.34 757.83 363.00   C 762.09 355.12 762.82 347.98 759.22 339.79   Q 754.43 328.92 749.39 319.79   C 741.07 304.72 727.79 294.19 711.36 289.19   Q 685.74 281.39 660.76 295.44   C 650.33 301.31 642.50 311.52 637.23 322.31   Q 631.14 334.79 625.48 344.99   A 1.56 1.54 -46.0 0 0 625.50 346.53   C 627.24 349.56 629.07 352.70 631.23 355.34   Q 634.74 359.65 637.80 363.84   C 647.68 377.39 663.62 386.07 679.77 388.17   C 687.37 389.16 696.17 388.62 703.90 387.23   Q 719.98 384.34 735.63 380.57   A 0.99 0.99 0.0 0 0 736.38 379.55   C 735.69 369.49 726.99 365.54 718.34 364.15   Q 717.99 364.09 717.72 363.85   L 717.46 363.61" fill="#000000"/>
<path stroke="#000000" vector-effect="non-scaling-stroke" d="   M 503.13 372.00   Q 499.07 375.31 502.30 371.19   Q 509.02 362.66 521.17 359.47   Q 529.31 357.33 536.00 357.60   Q 557.24 358.44 578.30 369.76   A 0.35 0.35 0.0 0 0 578.81 369.36   Q 578.29 367.38 576.86 365.78   Q 553.74 340.08 521.42 328.01   C 511.54 324.32 501.94 321.49 491.45 322.32   C 483.24 322.97 481.84 329.69 484.19 336.31   Q 490.47 354.04 492.35 373.10   Q 494.76 397.43 493.20 422.75   Q 492.84 428.60 492.46 435.30   Q 492.19 440.12 493.19 442.27   C 496.07 448.48 502.85 447.12 507.95 445.15   Q 524.59 438.72 539.99 433.77   Q 540.87 433.48 541.20 434.34   A 0.76 0.73 -32.7 0 1 541.01 435.15   C 537.53 438.41 533.61 440.83 529.38 443.07   Q 515.71 450.31 501.30 459.27   Q 459.05 485.51 434.06 526.54   Q 426.23 539.39 421.82 553.86   A 1.21 1.20 30.4 0 0 422.14 555.07   C 430.42 562.96 441.19 570.72 452.20 573.69   Q 473.00 579.32 492.53 568.52   Q 495.04 567.13 494.36 564.52   Q 486.52 534.07 497.79 504.73   C 506.40 482.32 525.82 461.92 547.04 451.94   Q 555.55 447.94 568.18 445.78   Q 569.36 445.58 568.40 446.30   C 566.71 447.58 564.77 448.52 563.06 449.77   Q 545.75 462.50 530.58 477.46   Q 529.18 478.84 531.13 478.60   Q 561.02 474.96 591.29 465.05   Q 595.72 463.60 599.99 461.53   C 615.26 454.11 630.28 446.41 642.38 434.13   C 657.37 418.91 652.84 396.22 641.78 380.16   Q 638.36 375.20 634.80 370.11   C 630.05 363.33 626.54 356.13 624.84 348.18   A 0.60 0.60 0.0 0 0 623.74 348.00   Q 621.58 351.59 619.38 355.15   Q 603.03 381.60 579.48 402.55   C 570.50 410.55 560.62 417.23 550.96 424.49   C 547.21 427.31 543.14 428.75 539.49 431.46   Q 539.08 431.76 538.78 431.35   L 538.62 431.13   Q 538.53 431.00 538.65 430.90   Q 549.05 422.40 560.86 411.45   Q 573.26 399.95 581.95 386.14   C 582.65 385.02 582.81 383.65 581.81 382.65   Q 569.62 370.41 554.30 364.89   C 538.98 359.38 519.12 359.20 505.88 369.45   C 504.89 370.21 504.07 371.24 503.13 372.00" fill="#000000"/>
<path stroke="#000000" vector-effect="non-scaling-stroke" d="   M 404.75 345.18   Q 400.33 353.59 398.01 364.19   Q 392.14 391.00 391.09 415.51   Q 390.50 429.42 391.68 441.65   C 393.06 455.99 400.90 466.19 416.12 467.11   Q 438.04 468.44 464.04 460.44   Q 471.89 458.03 475.87 450.81   Q 481.85 439.95 483.47 427.22   C 486.41 404.14 484.59 381.01 480.93 357.69   Q 479.18 346.50 475.35 337.68   C 472.37 330.83 467.82 325.96 460.55 323.89   C 450.18 320.93 438.88 323.25 428.72 326.80   C 418.22 330.46 409.98 335.23 404.75 345.18" fill="#000000"/>
<path stroke="#000000" vector-effect="non-scaling-stroke" d="   M 339.53 391.58   C 328.00 407.13 319.93 424.49 315.59 443.47   Q 315.42 444.20 316.14 444.42   C 317.46 444.83 318.58 445.21 319.80 445.89   Q 343.06 458.88 368.86 463.09   Q 373.50 463.85 379.06 463.39   C 381.40 463.20 384.05 461.75 384.94 459.48   Q 385.34 458.47 385.07 456.49   Q 383.69 446.45 382.67 435.90   C 380.35 411.91 383.56 388.04 388.41 364.03   C 389.39 359.19 388.62 354.71 382.91 353.67   C 377.81 352.75 372.52 356.15 368.86 359.44   Q 352.26 374.41 339.53 391.58" fill="#000000"/>
<path stroke="#000000" vector-effect="non-scaling-stroke" d="   M 287.99 419.58   Q 294.96 431.00 304.32 438.92   A 0.52 0.52 0.0 0 0 305.17 438.63   Q 307.39 428.01 312.65 415.90   A 0.82 0.82 0.0 0 0 311.99 414.76   Q 311.28 414.68 310.56 414.80   Q 299.07 416.73 288.52 418.42   Q 287.39 418.60 287.99 419.58" fill="#000000"/>
<path stroke="#000000" vector-effect="non-scaling-stroke" d="   M 663.20 470.78   C 688.96 486.06 695.90 515.40 685.45 542.39   Q 682.60 549.74 679.01 556.89   A 0.73 0.72 25.4 0 0 679.37 557.88   C 687.48 561.46 695.86 565.31 704.74 564.75   C 712.48 564.25 720.22 559.65 725.80 554.53   Q 740.06 541.43 738.41 522.47   C 737.16 508.05 727.09 495.20 716.37 485.55   Q 689.25 461.13 652.54 453.53   A 1.37 1.35 -66.0 0 0 651.16 454.07   L 646.15 461.14   Q 645.72 461.74 646.40 462.05   Q 655.00 465.92 663.20 470.78" fill="#000000"/>
<path stroke="#000000" vector-effect="non-scaling-stroke" d="   M 520.22 519.00   C 549.17 515.23 576.23 506.23 600.52 489.67   C 609.36 483.65 616.95 475.75 624.33 467.92   Q 627.77 464.27 630.29 460.08   Q 631.56 457.97 629.55 459.39   Q 620.65 465.69 609.10 470.76   Q 565.70 489.82 519.47 492.10   A 1.46 1.44 -77.0 0 0 518.27 492.86   Q 511.33 505.72 507.77 519.42   Q 507.67 519.81 508.07 519.80   Q 514.18 519.78 520.22 519.00" fill="#000000"/>
<path stroke="#000000" vector-effect="non-scaling-stroke" d="   M 363.95 492.57   Q 393.89 505.61 428.02 510.17   A 1.29 1.28 23.1 0 0 429.18 509.71   Q 433.23 504.78 437.32 499.53   C 443.85 491.16 450.99 484.39 458.60 477.15   Q 459.76 476.04 458.18 476.33   Q 410.31 485.10 362.06 475.48   C 347.97 472.67 334.52 468.10 321.74 461.61   Q 320.96 461.22 321.16 462.07   Q 321.21 462.31 321.38 462.49   Q 339.71 482.00 363.95 492.57" fill="#000000"/>
<path stroke="#000000" vector-effect="non-scaling-stroke" d="   M 307.52 467.28   Q 307.03 466.02 306.06 465.07   Q 305.63 464.66 305.18 465.05   C 286.34 481.81 269.17 503.72 267.27 528.45   Q 266.16 542.89 277.78 549.88   C 284.22 553.75 295.89 552.12 302.68 550.38   A 0.91 0.90 -13.7 0 0 303.34 549.30   Q 299.47 531.93 300.63 516.00   C 301.42 505.16 304.86 495.20 314.61 489.24   Q 315.09 488.94 314.91 488.41   Q 311.35 477.21 307.52 467.28" fill="#000000"/>
<path stroke="#000000" vector-effect="non-scaling-stroke" d="   M 681.95 306.27   Q 681.13 306.58 680.65 307.21   Q 680.12 307.90 680.87 308.33   L 688.75 312.95   A 1.18 1.18 0.0 0 1 689.31 313.77   C 689.77 316.57 689.67 319.54 690.65 322.19   Q 693.43 329.79 700.44 333.74   Q 704.45 336.00 710.90 336.72   C 717.46 337.46 724.13 336.83 730.75 335.73   A 0.86 0.85 78.6 0 0 731.44 334.69   C 727.98 319.98 719.43 304.36 703.17 302.39   Q 698.92 301.87 692.86 303.09   Q 687.54 304.16 681.95 306.27" fill="#000000"/>
<path stroke="#000000" vector-effect="non-scaling-stroke" d="   M 735.46 350.31   L 749.38 357.91   A 0.11 0.11 0.0 0 0 749.53 357.86   L 749.55 357.84   A 7.93 6.58 28.6 0 0 745.73 348.26   L 745.54 348.16   A 7.93 6.58 28.6 0 0 735.43 350.14   L 735.42 350.16   A 0.11 0.11 0.0 0 0 735.46 350.31" fill="#000000"/>
<path stroke="#000000" vector-effect="non-scaling-stroke" d="   M 713.7900 324.1407   A 7.69 5.89 22.0 0 0 708.8664 315.7989   A 7.69 5.89 22.0 0 0 699.5300 318.3793   A 7.69 5.89 22.0 0 0 704.4536 326.7211   A 7.69 5.89 22.0 0 0 713.7900 324.1407" fill="#000000"/>
<path stroke="#000000" vector-effect="non-scaling-stroke" d="   M 441.59 361.30   C 423.30 363.82 410.32 378.88 403.33 395.74   Q 403.21 396.02 403.32 396.30   Q 403.51 396.78 404.01 396.74   Q 404.47 396.71 404.72 396.32   Q 412.30 384.86 421.62 376.83   Q 435.90 364.54 454.51 367.48   C 464.80 369.10 472.51 374.82 477.53 383.84   A 0.37 0.37 0.0 0 0 478.02 383.99   L 478.30 383.86   Q 478.79 383.62 478.58 383.12   C 472.07 367.74 457.93 359.04 441.59 361.30" fill="#000000"/>
<path stroke="#000000" vector-effect="non-scaling-stroke" d="   M 378.56 403.27   C 378.19 395.85 373.82 386.98 365.49 386.22   C 359.61 385.68 352.57 390.48 348.51 394.56   C 339.38 403.74 332.41 414.78 325.57 425.79   Q 325.50 425.91 325.60 426.01   L 325.90 426.31   A 0.30 0.29 -48.5 0 0 326.35 426.28   Q 338.37 410.51 352.74 397.70   Q 358.25 392.79 364.99 392.38   C 371.76 391.96 375.01 398.85 377.44 404.21   A 0.52 0.52 0.0 0 0 378.38 404.22   Q 378.59 403.77 378.56 403.27" fill="#000000"/>
</g>
<path fill="#000000" d="   M 316.28 538.68   Q 316.13 539.05 316.28 539.41   Q 319.03 546.12 318.93 554.49   C 318.88 557.91 315.21 559.95 312.41 561.11   Q 296.43 567.74 282.14 564.96   Q 262.40 561.12 256.14 543.29   C 251.07 528.84 256.30 510.64 263.32 496.83   C 271.93 479.91 284.77 465.22 299.21 452.41   A 0.45 0.45 0.0 0 0 299.19 451.72   Q 283.96 440.15 275.64 423.83   C 272.30 417.28 268.18 405.70 280.51 405.28   Q 285.96 405.10 291.33 404.10   Q 305.32 401.50 317.75 398.59   Q 319.26 398.23 320.07 396.95   Q 357.83 337.56 422.13 314.94   C 484.16 293.12 555.78 313.54 594.84 368.08   A 0.25 0.25 0.0 0 0 595.25 368.08   C 607.84 350.15 618.13 331.47 628.04 311.52   Q 631.89 303.79 635.17 299.80   C 644.13 288.92 655.98 281.10 669.53 276.87   C 700.84 267.08 733.84 277.49 754.25 302.96   Q 759.79 309.89 764.61 320.36   Q 770.76 333.75 774.26 344.47   C 775.24 347.47 774.95 351.71 774.26 354.94   C 770.83 370.95 760.86 384.63 748.34 395.25   Q 746.84 396.52 744.93 395.77   C 741.50 394.42 738.21 393.96 734.55 394.83   Q 719.78 398.38 704.89 400.59   Q 695.04 402.05 688.54 404.96   C 673.53 411.67 664.23 426.16 658.82 441.30   Q 658.63 441.83 659.20 441.92   Q 664.22 442.64 669.32 444.18   Q 694.47 451.76 715.11 467.79   C 732.52 481.32 750.21 500.55 751.68 523.62   Q 752.48 536.16 747.85 545.81   Q 736.93 568.58 714.53 576.30   C 698.50 581.83 680.27 574.85 666.78 564.90   C 663.02 562.14 662.69 558.23 664.47 553.98   Q 668.72 543.82 672.77 534.67   Q 674.27 531.30 671.73 533.97   C 664.42 541.66 656.44 549.85 647.47 555.95   C 635.98 563.77 620.53 566.06 608.87 558.72   C 602.62 554.79 604.10 548.02 606.72 542.52   Q 610.05 535.52 612.60 528.67   C 614.90 522.52 615.68 513.36 612.13 507.36   Q 609.64 503.15 605.22 505.35   Q 597.43 509.21 590.16 512.68   Q 549.99 531.87 505.54 535.03   A 0.49 0.49 0.0 0 0 505.08 535.53   Q 505.50 552.16 508.85 567.92   C 509.52 571.08 507.99 573.86 505.40 575.60   Q 475.66 595.54 444.45 584.78   C 431.03 580.14 418.83 571.57 409.14 561.51   Q 406.52 558.79 407.52 554.95   Q 411.57 539.50 419.74 524.22   A 0.56 0.55 -73.5 0 0 419.31 523.41   C 403.07 521.90 387.05 517.10 371.61 511.49   Q 369.84 510.84 367.76 510.96   Q 367.21 510.99 367.04 511.52   C 364.85 518.38 365.75 524.07 369.61 530.46   Q 372.62 535.44 375.01 540.09   C 379.04 547.94 378.98 558.12 368.37 560.20   Q 348.15 564.18 332.24 552.05   Q 324.14 545.89 316.81 538.57   A 0.32 0.32 0.0 0 0 316.28 538.68   Z   M 717.46 363.61   A 0.42 0.42 0.0 0 1 717.64 362.89   Q 723.26 361.45 730.00 362.36   C 738.81 363.56 745.33 368.68 747.38 377.54   A 0.20 0.20 0.0 0 0 747.73 377.63   Q 753.33 371.34 757.83 363.00   C 762.09 355.12 762.82 347.98 759.22 339.79   Q 754.43 328.92 749.39 319.79   C 741.07 304.72 727.79 294.19 711.36 289.19   Q 685.74 281.39 660.76 295.44   C 650.33 301.31 642.50 311.52 637.23 322.31   Q 631.14 334.79 625.48 344.99   A 1.56 1.54 -46.0 0 0 625.50 346.53   C 627.24 349.56 629.07 352.70 631.23 355.34   Q 634.74 359.65 637.80 363.84   C 647.68 377.39 663.62 386.07 679.77 388.17   C 687.37 389.16 696.17 388.62 703.90 387.23   Q 719.98 384.34 735.63 380.57   A 0.99 0.99 0.0 0 0 736.38 379.55   C 735.69 369.49 726.99 365.54 718.34 364.15   Q 717.99 364.09 717.72 363.85   L 717.46 363.61   Z   M 503.13 372.00   Q 499.07 375.31 502.30 371.19   Q 509.02 362.66 521.17 359.47   Q 529.31 357.33 536.00 357.60   Q 557.24 358.44 578.30 369.76   A 0.35 0.35 0.0 0 0 578.81 369.36   Q 578.29 367.38 576.86 365.78   Q 553.74 340.08 521.42 328.01   C 511.54 324.32 501.94 321.49 491.45 322.32   C 483.24 322.97 481.84 329.69 484.19 336.31   Q 490.47 354.04 492.35 373.10   Q 494.76 397.43 493.20 422.75   Q 492.84 428.60 492.46 435.30   Q 492.19 440.12 493.19 442.27   C 496.07 448.48 502.85 447.12 507.95 445.15   Q 524.59 438.72 539.99 433.77   Q 540.87 433.48 541.20 434.34   A 0.76 0.73 -32.7 0 1 541.01 435.15   C 537.53 438.41 533.61 440.83 529.38 443.07   Q 515.71 450.31 501.30 459.27   Q 459.05 485.51 434.06 526.54   Q 426.23 539.39 421.82 553.86   A 1.21 1.20 30.4 0 0 422.14 555.07   C 430.42 562.96 441.19 570.72 452.20 573.69   Q 473.00 579.32 492.53 568.52   Q 495.04 567.13 494.36 564.52   Q 486.52 534.07 497.79 504.73   C 506.40 482.32 525.82 461.92 547.04 451.94   Q 555.55 447.94 568.18 445.78   Q 569.36 445.58 568.40 446.30   C 566.71 447.58 564.77 448.52 563.06 449.77   Q 545.75 462.50 530.58 477.46   Q 529.18 478.84 531.13 478.60   Q 561.02 474.96 591.29 465.05   Q 595.72 463.60 599.99 461.53   C 615.26 454.11 630.28 446.41 642.38 434.13   C 657.37 418.91 652.84 396.22 641.78 380.16   Q 638.36 375.20 634.80 370.11   C 630.05 363.33 626.54 356.13 624.84 348.18   A 0.60 0.60 0.0 0 0 623.74 348.00   Q 621.58 351.59 619.38 355.15   Q 603.03 381.60 579.48 402.55   C 570.50 410.55 560.62 417.23 550.96 424.49   C 547.21 427.31 543.14 428.75 539.49 431.46   Q 539.08 431.76 538.78 431.35   L 538.62 431.13   Q 538.53 431.00 538.65 430.90   Q 549.05 422.40 560.86 411.45   Q 573.26 399.95 581.95 386.14   C 582.65 385.02 582.81 383.65 581.81 382.65   Q 569.62 370.41 554.30 364.89   C 538.98 359.38 519.12 359.20 505.88 369.45   C 504.89 370.21 504.07 371.24 503.13 372.00   Z   M 404.75 345.18   Q 400.33 353.59 398.01 364.19   Q 392.14 391.00 391.09 415.51   Q 390.50 429.42 391.68 441.65   C 393.06 455.99 400.90 466.19 416.12 467.11   Q 438.04 468.44 464.04 460.44   Q 471.89 458.03 475.87 450.81   Q 481.85 439.95 483.47 427.22   C 486.41 404.14 484.59 381.01 480.93 357.69   Q 479.18 346.50 475.35 337.68   C 472.37 330.83 467.82 325.96 460.55 323.89   C 450.18 320.93 438.88 323.25 428.72 326.80   C 418.22 330.46 409.98 335.23 404.75 345.18   Z   M 339.53 391.58   C 328.00 407.13 319.93 424.49 315.59 443.47   Q 315.42 444.20 316.14 444.42   C 317.46 444.83 318.58 445.21 319.80 445.89   Q 343.06 458.88 368.86 463.09   Q 373.50 463.85 379.06 463.39   C 381.40 463.20 384.05 461.75 384.94 459.48   Q 385.34 458.47 385.07 456.49   Q 383.69 446.45 382.67 435.90   C 380.35 411.91 383.56 388.04 388.41 364.03   C 389.39 359.19 388.62 354.71 382.91 353.67   C 377.81 352.75 372.52 356.15 368.86 359.44   Q 352.26 374.41 339.53 391.58   Z   M 287.99 419.58   Q 294.96 431.00 304.32 438.92   A 0.52 0.52 0.0 0 0 305.17 438.63   Q 307.39 428.01 312.65 415.90   A 0.82 0.82 0.0 0 0 311.99 414.76   Q 311.28 414.68 310.56 414.80   Q 299.07 416.73 288.52 418.42   Q 287.39 418.60 287.99 419.58   Z   M 663.20 470.78   C 688.96 486.06 695.90 515.40 685.45 542.39   Q 682.60 549.74 679.01 556.89   A 0.73 0.72 25.4 0 0 679.37 557.88   C 687.48 561.46 695.86 565.31 704.74 564.75   C 712.48 564.25 720.22 559.65 725.80 554.53   Q 740.06 541.43 738.41 522.47   C 737.16 508.05 727.09 495.20 716.37 485.55   Q 689.25 461.13 652.54 453.53   A 1.37 1.35 -66.0 0 0 651.16 454.07   L 646.15 461.14   Q 645.72 461.74 646.40 462.05   Q 655.00 465.92 663.20 470.78   Z   M 520.22 519.00   C 549.17 515.23 576.23 506.23 600.52 489.67   C 609.36 483.65 616.95 475.75 624.33 467.92   Q 627.77 464.27 630.29 460.08   Q 631.56 457.97 629.55 459.39   Q 620.65 465.69 609.10 470.76   Q 565.70 489.82 519.47 492.10   A 1.46 1.44 -77.0 0 0 518.27 492.86   Q 511.33 505.72 507.77 519.42   Q 507.67 519.81 508.07 519.80   Q 514.18 519.78 520.22 519.00   Z   M 363.95 492.57   Q 393.89 505.61 428.02 510.17   A 1.29 1.28 23.1 0 0 429.18 509.71   Q 433.23 504.78 437.32 499.53   C 443.85 491.16 450.99 484.39 458.60 477.15   Q 459.76 476.04 458.18 476.33   Q 410.31 485.10 362.06 475.48   C 347.97 472.67 334.52 468.10 321.74 461.61   Q 320.96 461.22 321.16 462.07   Q 321.21 462.31 321.38 462.49   Q 339.71 482.00 363.95 492.57   Z   M 307.52 467.28   Q 307.03 466.02 306.06 465.07   Q 305.63 464.66 305.18 465.05   C 286.34 481.81 269.17 503.72 267.27 528.45   Q 266.16 542.89 277.78 549.88   C 284.22 553.75 295.89 552.12 302.68 550.38   A 0.91 0.90 -13.7 0 0 303.34 549.30   Q 299.47 531.93 300.63 516.00   C 301.42 505.16 304.86 495.20 314.61 489.24   Q 315.09 488.94 314.91 488.41   Q 311.35 477.21 307.52 467.28   Z"/>
<path fill="#fff" d="   M 717.46 363.61   L 717.72 363.85   Q 717.99 364.09 718.34 364.15   C 726.99 365.54 735.69 369.49 736.38 379.55   A 0.99 0.99 0.0 0 1 735.63 380.57   Q 719.98 384.34 703.90 387.23   C 696.17 388.62 687.37 389.16 679.77 388.17   C 663.62 386.07 647.68 377.39 637.80 363.84   Q 634.74 359.65 631.23 355.34   C 629.07 352.70 627.24 349.56 625.50 346.53   A 1.56 1.54 -46.0 0 1 625.48 344.99   Q 631.14 334.79 637.23 322.31   C 642.50 311.52 650.33 301.31 660.76 295.44   Q 685.74 281.39 711.36 289.19   C 727.79 294.19 741.07 304.72 749.39 319.79   Q 754.43 328.92 759.22 339.79   C 762.82 347.98 762.09 355.12 757.83 363.00   Q 753.33 371.34 747.73 377.63   A 0.20 0.20 0.0 0 1 747.38 377.54   C 745.33 368.68 738.81 363.56 730.00 362.36   Q 723.26 361.45 717.64 362.89   A 0.42 0.42 0.0 0 0 717.46 363.61   Z   M 681.95 306.27   Q 681.13 306.58 680.65 307.21   Q 680.12 307.90 680.87 308.33   L 688.75 312.95   A 1.18 1.18 0.0 0 1 689.31 313.77   C 689.77 316.57 689.67 319.54 690.65 322.19   Q 693.43 329.79 700.44 333.74   Q 704.45 336.00 710.90 336.72   C 717.46 337.46 724.13 336.83 730.75 335.73   A 0.86 0.85 78.6 0 0 731.44 334.69   C 727.98 319.98 719.43 304.36 703.17 302.39   Q 698.92 301.87 692.86 303.09   Q 687.54 304.16 681.95 306.27   Z   M 735.46 350.31   L 749.38 357.91   A 0.11 0.11 0.0 0 0 749.53 357.86   L 749.55 357.84   A 7.93 6.58 28.6 0 0 745.73 348.26   L 745.54 348.16   A 7.93 6.58 28.6 0 0 735.43 350.14   L 735.42 350.16   A 0.11 0.11 0.0 0 0 735.46 350.31   Z"/>
<path fill="#000000" d="   M 681.95 306.27   Q 687.54 304.16 692.86 303.09   Q 698.92 301.87 703.17 302.39   C 719.43 304.36 727.98 319.98 731.44 334.69   A 0.86 0.85 78.6 0 1 730.75 335.73   C 724.13 336.83 717.46 337.46 710.90 336.72   Q 704.45 336.00 700.44 333.74   Q 693.43 329.79 690.65 322.19   C 689.67 319.54 689.77 316.57 689.31 313.77   A 1.18 1.18 0.0 0 0 688.75 312.95   L 680.87 308.33   Q 680.12 307.90 680.65 307.21   Q 681.13 306.58 681.95 306.27   Z   M 713.7900 324.1407   A 7.69 5.89 22.0 0 0 708.8664 315.7989   A 7.69 5.89 22.0 0 0 699.5300 318.3793   A 7.69 5.89 22.0 0 0 704.4536 326.7211   A 7.69 5.89 22.0 0 0 713.7900 324.1407   Z"/>
<ellipse fill="#fff" cx="0.00" cy="0.00" transform="translate(706.66,321.26) rotate(22.0)" rx="7.69" ry="5.89"/>
<path fill="#fff" d="   M 503.13 372.00   C 504.07 371.24 504.89 370.21 505.88 369.45   C 519.12 359.20 538.98 359.38 554.30 364.89   Q 569.62 370.41 581.81 382.65   C 582.81 383.65 582.65 385.02 581.95 386.14   Q 573.26 399.95 560.86 411.45   Q 549.05 422.40 538.65 430.90   Q 538.53 431.00 538.62 431.13   L 538.78 431.35   Q 539.08 431.76 539.49 431.46   C 543.14 428.75 547.21 427.31 550.96 424.49   C 560.62 417.23 570.50 410.55 579.48 402.55   Q 603.03 381.60 619.38 355.15   Q 621.58 351.59 623.74 348.00   A 0.60 0.60 0.0 0 1 624.84 348.18   C 626.54 356.13 630.05 363.33 634.80 370.11   Q 638.36 375.20 641.78 380.16   C 652.84 396.22 657.37 418.91 642.38 434.13   C 630.28 446.41 615.26 454.11 599.99 461.53   Q 595.72 463.60 591.29 465.05   Q 561.02 474.96 531.13 478.60   Q 529.18 478.84 530.58 477.46   Q 545.75 462.50 563.06 449.77   C 564.77 448.52 566.71 447.58 568.40 446.30   Q 569.36 445.58 568.18 445.78   Q 555.55 447.94 547.04 451.94   C 525.82 461.92 506.40 482.32 497.79 504.73   Q 486.52 534.07 494.36 564.52   Q 495.04 567.13 492.53 568.52   Q 473.00 579.32 452.20 573.69   C 441.19 570.72 430.42 562.96 422.14 555.07   A 1.21 1.20 30.4 0 1 421.82 553.86   Q 426.23 539.39 434.06 526.54   Q 459.05 485.51 501.30 459.27   Q 515.71 450.31 529.38 443.07   C 533.61 440.83 537.53 438.41 541.01 435.15   A 0.76 0.73 -32.7 0 0 541.20 434.34   Q 540.87 433.48 539.99 433.77   Q 524.59 438.72 507.95 445.15   C 502.85 447.12 496.07 448.48 493.19 442.27   Q 492.19 440.12 492.46 435.30   Q 492.84 428.60 493.20 422.75   Q 494.76 397.43 492.35 373.10   Q 490.47 354.04 484.19 336.31   C 481.84 329.69 483.24 322.97 491.45 322.32   C 501.94 321.49 511.54 324.32 521.42 328.01   Q 553.74 340.08 576.86 365.78   Q 578.29 367.38 578.81 369.36   A 0.35 0.35 0.0 0 1 578.30 369.76   Q 557.24 358.44 536.00 357.60   Q 529.31 357.33 521.17 359.47   Q 509.02 362.66 502.30 371.19   Q 499.07 375.31 503.13 372.00   Z"/>
<path fill="#fff" d="   M 404.75 345.18   C 409.98 335.23 418.22 330.46 428.72 326.80   C 438.88 323.25 450.18 320.93 460.55 323.89   C 467.82 325.96 472.37 330.83 475.35 337.68   Q 479.18 346.50 480.93 357.69   C 484.59 381.01 486.41 404.14 483.47 427.22   Q 481.85 439.95 475.87 450.81   Q 471.89 458.03 464.04 460.44   Q 438.04 468.44 416.12 467.11   C 400.90 466.19 393.06 455.99 391.68 441.65   Q 390.50 429.42 391.09 415.51   Q 392.14 391.00 398.01 364.19   Q 400.33 353.59 404.75 345.18   Z   M 441.59 361.30   C 423.30 363.82 410.32 378.88 403.33 395.74   Q 403.21 396.02 403.32 396.30   Q 403.51 396.78 404.01 396.74   Q 404.47 396.71 404.72 396.32   Q 412.30 384.86 421.62 376.83   Q 435.90 364.54 454.51 367.48   C 464.80 369.10 472.51 374.82 477.53 383.84   A 0.37 0.37 0.0 0 0 478.02 383.99   L 478.30 383.86   Q 478.79 383.62 478.58 383.12   C 472.07 367.74 457.93 359.04 441.59 361.30   Z"/>
<path fill="#000000" d="   M 735.46 350.31   A 0.11 0.11 0.0 0 1 735.42 350.16   L 735.43 350.14   A 7.93 6.58 28.6 0 1 745.54 348.16   L 745.73 348.26   A 7.93 6.58 28.6 0 1 749.55 357.84   L 749.53 357.86   A 0.11 0.11 0.0 0 1 749.38 357.91   L 735.46 350.31   Z"/>
<path fill="#fff" d="   M 315.59 443.47   C 319.93 424.49 328.00 407.13 339.53 391.58   Q 352.26 374.41 368.86 359.44   C 372.52 356.15 377.81 352.75 382.91 353.67   C 388.62 354.71 389.39 359.19 388.41 364.03   C 383.56 388.04 380.35 411.91 382.67 435.90   Q 383.69 446.45 385.07 456.49   Q 385.34 458.47 384.94 459.48   C 384.05 461.75 381.40 463.20 379.06 463.39   Q 373.50 463.85 368.86 463.09   Q 343.06 458.88 319.80 445.89   C 318.58 445.21 317.46 444.83 316.14 444.42   Q 315.42 444.20 315.59 443.47   Z   M 378.56 403.27   C 378.19 395.85 373.82 386.98 365.49 386.22   C 359.61 385.68 352.57 390.48 348.51 394.56   C 339.38 403.74 332.41 414.78 325.57 425.79   Q 325.50 425.91 325.60 426.01   L 325.90 426.31   A 0.30 0.29 -48.5 0 0 326.35 426.28   Q 338.37 410.51 352.74 397.70   Q 358.25 392.79 364.99 392.38   C 371.76 391.96 375.01 398.85 377.44 404.21   A 0.52 0.52 0.0 0 0 378.38 404.22   Q 378.59 403.77 378.56 403.27   Z"/>
<path fill="#000000" d="   M 441.59 361.30   C 457.93 359.04 472.07 367.74 478.58 383.12   Q 478.79 383.62 478.30 383.86   L 478.02 383.99   A 0.37 0.37 0.0 0 1 477.53 383.84   C 472.51 374.82 464.80 369.10 454.51 367.48   Q 435.90 364.54 421.62 376.83   Q 412.30 384.86 404.72 396.32   Q 404.47 396.71 404.01 396.74   Q 403.51 396.78 403.32 396.30   Q 403.21 396.02 403.33 395.74   C 410.32 378.88 423.30 363.82 441.59 361.30   Z"/>
<path fill="#000000" d="   M 365.49 386.22   C 373.82 386.98 378.19 395.85 378.56 403.27   Q 378.59 403.77 378.38 404.22   A 0.52 0.52 0.0 0 1 377.44 404.21   C 375.01 398.85 371.76 391.96 364.99 392.38   Q 358.25 392.79 352.74 397.70   Q 338.37 410.51 326.35 426.28   A 0.30 0.29 -48.5 0 1 325.90 426.31   L 325.60 426.01   Q 325.50 425.91 325.57 425.79   C 332.41 414.78 339.38 403.74 348.51 394.56   C 352.57 390.48 359.61 385.68 365.49 386.22   Z"/>
<path fill="#fff" d="   M 287.99 419.58   Q 287.39 418.60 288.52 418.42   Q 299.07 416.73 310.56 414.80   Q 311.28 414.68 311.99 414.76   A 0.82 0.82 0.0 0 1 312.65 415.90   Q 307.39 428.01 305.17 438.63   A 0.52 0.52 0.0 0 1 304.32 438.92   Q 294.96 431.00 287.99 419.58   Z"/>
<path fill="#fff" d="   M 685.45 542.39   C 695.90 515.40 688.96 486.06 663.20 470.78   Q 655.00 465.92 646.40 462.05   Q 645.72 461.74 646.15 461.14   L 651.16 454.07   A 1.37 1.35 -66.0 0 1 652.54 453.53   Q 689.25 461.13 716.37 485.55   C 727.09 495.20 737.16 508.05 738.41 522.47   Q 740.06 541.43 725.80 554.53   C 720.22 559.65 712.48 564.25 704.74 564.75   C 695.86 565.31 687.48 561.46 679.37 557.88   A 0.73 0.72 25.4 0 1 679.01 556.89   Q 682.60 549.74 685.45 542.39   Z"/>
<path fill="#fff" d="   M 600.52 489.67   C 576.23 506.23 549.17 515.23 520.22 519.00   Q 514.18 519.78 508.07 519.80   Q 507.67 519.81 507.77 519.42   Q 511.33 505.72 518.27 492.86   A 1.46 1.44 -77.0 0 1 519.47 492.10   Q 565.70 489.82 609.10 470.76   Q 620.65 465.69 629.55 459.39   Q 631.56 457.97 630.29 460.08   Q 627.77 464.27 624.33 467.92   C 616.95 475.75 609.36 483.65 600.52 489.67   Z"/>
<path fill="#fff" d="   M 363.95 492.57   Q 339.71 482.00 321.38 462.49   Q 321.21 462.31 321.16 462.07   Q 320.96 461.22 321.74 461.61   C 334.52 468.10 347.97 472.67 362.06 475.48   Q 410.31 485.10 458.18 476.33   Q 459.76 476.04 458.60 477.15   C 450.99 484.39 443.85 491.16 437.32 499.53   Q 433.23 504.78 429.18 509.71   A 1.29 1.28 23.1 0 1 428.02 510.17   Q 393.89 505.61 363.95 492.57   Z"/>
<path fill="#fff" d="   M 307.52 467.28   Q 311.35 477.21 314.91 488.41   Q 315.09 488.94 314.61 489.24   C 304.86 495.20 301.42 505.16 300.63 516.00   Q 299.47 531.93 303.34 549.30   A 0.91 0.90 -13.7 0 1 302.68 550.38   C 295.89 552.12 284.22 553.75 277.78 549.88   Q 266.16 542.89 267.27 528.45   C 269.17 503.72 286.34 481.81 305.18 465.05   Q 305.63 464.66 306.06 465.07   Q 307.03 466.02 307.52 467.28   Z"/>
</svg>