<svg xmlns="http://www.w3.org/2000/svg" version="1.1" width="1024.00" height="1024.00"><rect id="backgroundrect" width="100%" height="100%" x="0" y="0" fill="none" stroke="none"/>












































<g class="currentLayer" style=""><title>Layer 1</title><path fill="#ffffff" d="M102.94117736816406,-1055.88232421875 L1126.941177368164,-1055.88232421875 L1126.941177368164,-31.88232421875 L102.94117736816406,-31.88232421875 L102.94117736816406,-1055.88232421875 zM419.45118713378906,-517.2922973632812 Q420.58119201660156,-516.7123413085938 421.45118713378906,-515.8623046875 Q428.58119201660156,-508.94232177734375 434.7711639404297,-504.162353515625 Q450.4911651611328,-492.04229736328125 470.57118225097656,-495.54229736328125 Q473.83119201660156,-496.1123046875 476.48118591308594,-497.84234619140625 C482.6211700439453,-501.84234619140625 480.2611846923828,-511.54229736328125 477.32118225097656,-516.9523315429688 Q474.9211883544922,-521.392333984375 472.30116271972656,-525.6923217773438 C468.58119201660156,-531.7922973632812 467.5211639404297,-537.7322998046875 469.9911651611328,-544.5223388671875 A0.9700000286102295,0.9600000381469727 -75.80000305175781 0 1 471.0311737060547,-545.1523132324219 Q474.44117736816406,-544.6723327636719 477.59117126464844,-543.5223388671875 C492.4911651611328,-538.1123046875 506.8811798095703,-533.7423095703125 522.4311676025391,-532.5323486328125 Q523.1311798095703,-532.4822998046875 522.8111724853516,-531.8623046875 Q514.9411773681641,-516.8123168945312 510.9911651611328,-502.892333984375 Q510.3911895751953,-500.7623291015625 510.31117248535156,-498.58233642578125 C510.22117614746094,-495.9822998046875 512.4711761474609,-493.93231201171875 514.1911773681641,-492.29229736328125 C532.5811920166016,-474.7823486328125 555.5411834716797,-463.6123046875 581.2111663818359,-468.58233642578125 C591.5811920166016,-470.58233642578125 600.0911712646484,-474.80230712890625 608.5411834716797,-480.54229736328125 Q612.6711883544922,-483.352294921875 611.6311798095703,-488.2322998046875 Q608.1711883544922,-504.45233154296875 607.9611663818359,-520.392333984375 A0.5299999713897705,0.5199999809265137 87.69999694824219 0 1 608.4511871337891,-520.9323120117188 Q647.2311553955078,-523.5823364257812 683.9211578369141,-539.1123046875 Q692.7511749267578,-542.8423461914062 708.4311676025391,-550.8023376464844 Q709.6311798095703,-551.4123229980469 711.0811920166016,-551.4923095703125 C713.7611846923828,-551.642333984375 715.9712066650391,-547.6623229980469 716.5111846923828,-545.5923156738281 Q718.6911773681641,-537.2623291015625 716.6411895751953,-530.352294921875 Q714.6611480712891,-523.662353515625 710.5811920166016,-515.3423461914062 C708.7511749267578,-511.63232421875 705.8311920166016,-503.84234619140625 708.6511993408203,-500.13232421875 C710.4611968994141,-497.7423095703125 713.9511871337891,-495.70233154296875 716.6911773681641,-494.79229736328125 Q732.8211822509766,-489.47235107421875 747.3412017822266,-498.18231201171875 C757.6111602783203,-504.352294921875 766.1611480712891,-513.0523071289062 774.4611968994141,-521.88232421875 Q774.9911651611328,-522.4423217773438 775.6411895751953,-522.8623046875 Q776.9811553955078,-523.7423095703125 776.3111724853516,-522.2823486328125 Q771.6711578369141,-512.2123413085938 767.3911895751953,-501.55230712890625 C764.7611846923828,-495.0123291015625 767.5511627197266,-492.2523193359375 772.6811676025391,-488.892333984375 C784.9411773681641,-480.852294921875 800.8811798095703,-475.0123291015625 814.9211578369141,-478.88232421875 Q834.6211700439453,-484.31231689453125 846.9811553955078,-503.162353515625 Q857.4712066650391,-519.162353515625 853.7111968994141,-538.9223022460938 C851.2212066650391,-551.9323120117188 842.6011505126953,-564.6623229980469 833.2611846923828,-574.372314453125 C815.1311798095703,-593.2123107910156 790.6911773681641,-607.7523193359375 765.6311798095703,-613.3123168945312 C764.4111480712891,-613.5823364257812 763.2311553955078,-613.6723327636719 761.9911651611328,-613.7923278808594 Q761.2911529541016,-613.8623352050781 761.5411529541016,-614.5123291015625 C767.1611480712891,-629.5123291015625 776.1811676025391,-644.4023132324219 791.2212066650391,-650.9923095703125 Q797.6711578369141,-653.8223266601562 807.0211944580078,-655.2223205566406 Q823.5312042236328,-657.7023315429688 839.4911651611328,-661.5223388671875 C842.5711822509766,-662.2623291015625 845.7611846923828,-660.8423156738281 848.6811676025391,-659.9723205566406 Q850.0611724853516,-659.5623168945312 851.1611480712891,-660.5123291015625 C863.9811553955078,-671.5723266601562 874.1811676025391,-685.63232421875 877.3211822509766,-701.7923278808594 Q878.5211944580078,-707.9823303222656 876.6711578369141,-713.0623168945312 Q872.1111602783203,-725.63232421875 866.0411529541016,-738.5923156738281 C856.9411773681641,-757.9823303222656 840.9811553955078,-771.3523254394531 820.7511749267578,-778.4823303222656 C798.8911895751953,-786.1923217773438 775.1511993408203,-783.1023254394531 755.3811798095703,-771.1723327636719 Q738.8511505126953,-761.1923217773438 730.0811920166016,-742.4323120117188 Q717.2511749267578,-714.9823303222656 698.3211822509766,-687.8223266601562 Q697.8911895751953,-687.2123107910156 697.4911651611328,-687.8323364257812 Q693.7311553955078,-693.5923156738281 689.4712066650391,-698.3523254394531 Q664.5312042236328,-726.2723388671875 631.6211700439453,-739.0423278808594 C592.3911895751953,-754.2623291015625 549.8611907958984,-752.6723327636719 511.46116638183594,-735.642333984375 Q455.43116760253906,-710.8023376464844 422.85118103027344,-658.4523315429688 Q422.22117614746094,-657.4423217773438 421.0211639404297,-657.1923217773438 Q411.4111785888672,-655.2023315429688 400.7511749267578,-652.8623352050781 C394.55116271972656,-651.4923095703125 388.22117614746094,-650.7323303222656 381.83119201660156,-650.3023376464844 C372.46116638183594,-649.6723327636719 375.06117248535156,-640.5823364257812 377.4011688232422,-634.9723205566406 Q381.34117126464844,-625.5223388671875 388.0111846923828,-617.7923278808594 C392.31117248535156,-612.8023376464844 396.6711883544922,-607.9723205566406 402.23118591308594,-604.2823181152344 A0.4700000286102295,0.4700000286102295 0 0 1 402.2811737060547,-603.5423278808594 C383.2611846923828,-586.6623229980469 365.97117614746094,-565.38232421875 359.5011749267578,-541.5523071289062 C357.8811798095703,-535.602294921875 356.951171875,-529.2223510742188 357.211181640625,-523.0723266601562 C357.77117919921875,-509.83233642578125 365.0411834716797,-497.6123046875 377.93116760253906,-492.95233154296875 Q394.83119201660156,-486.84234619140625 413.44117736816406,-494.1123046875 C415.9211883544922,-495.08233642578125 421.6211700439453,-497.44232177734375 421.7411651611328,-500.412353515625 Q422.1411895751953,-509.95233154296875 418.95118713378906,-516.8123168945312 Q418.5111846923828,-517.7623291015625 419.45118713378906,-517.2922973632812 zM381.1311798095703,-311.13232421875 A0.6500000357627869,0.64000004529953 -90 0 1 380.4911651611328,-311.7823486328125 Q380.56117248535156,-347.17230224609375 380.7411651611328,-379.21234130859375 C380.7611846923828,-383.47235107421875 379.7411651611328,-387.602294921875 375.4911651611328,-389.47235107421875 C369.10118103027344,-392.2823486328125 360.9211883544922,-389.352294921875 359.86119079589844,-381.95233154296875 Q359.48118591308594,-379.34234619140625 359.47117614746094,-376.392333984375 Q359.4011688232422,-344.42230224609375 359.43116760253906,-308.17230224609375 Q359.44117736816406,-301.2823486328125 360.7711639404297,-298.55230712890625 Q363.43116760253906,-293.09234619140625 371.1211700439453,-293.102294921875 Q393.85118103027344,-293.142333984375 415.8911895751953,-293.07232666015625 C420.30116271972656,-293.06231689453125 424.69117736816406,-294.2523193359375 426.06117248535156,-298.92230224609375 Q427.6511688232422,-304.29229736328125 423.98118591308594,-308.44232177734375 C421.7611846923828,-310.95233154296875 418.30116271972656,-311.372314453125 415.10118103027344,-311.32232666015625 Q397.7511749267578,-311.08233642578125 381.1311798095703,-311.13232421875 zM469.55116271972656,-316.44232177734375 C472.98118591308594,-303.1123046875 481.80116271972656,-295.372314453125 494.69117736816406,-292.642333984375 Q504.45118713378906,-290.57232666015625 514.4311676025391,-291.65234375 C540.8111724853516,-294.4923095703125 547.7711639404297,-313.0323486328125 547.6911773681641,-336.852294921875 Q547.6111907958984,-358.06231689453125 547.7311859130859,-379.43231201171875 C547.8111724853516,-392.97235107421875 526.3411712646484,-395.0023193359375 526.2811737060547,-380.43231201171875 Q526.1811676025391,-358.34234619140625 526.1911773681641,-333.2723388671875 C526.2011871337891,-322.05230712890625 524.2311859130859,-311.46234130859375 510.70118713378906,-309.93231201171875 Q504.1411895751953,-309.19232177734375 500.3811798095703,-310.65234375 Q489.6611785888672,-314.82232666015625 489.30116271972656,-326.44232177734375 Q488.6711883544922,-347.31231689453125 489.0311737060547,-376.71234130859375 C489.11119079589844,-382.69232177734375 488.3711700439453,-388.33233642578125 481.69117736816406,-390.06231689453125 C474.72117614746094,-391.872314453125 467.9011688232422,-387.80230712890625 467.7811737060547,-380.32232666015625 Q467.35118103027344,-354.88232421875 467.7711639404297,-328.46234130859375 Q467.85118103027344,-323.05230712890625 469.55116271972656,-316.44232177734375 zM753.4494781494141,-380.87384033203125 A9.720000267028809,9.720000267028809 0 0 0 743.7464752197266,-390.6107177734375 L742.0265045166016,-390.61370849609375 A9.720000267028809,9.720000267028809 0 0 0 732.2895050048828,-380.91070556640625 L732.1528472900391,-302.65081787109375 A9.720000267028809,9.720000267028809 0 0 0 741.8558502197266,-292.9139404296875 L743.5758819580078,-292.91094970703125 A9.720000267028809,9.720000267028809 0 0 0 753.3128814697266,-302.61395263671875 L753.4494781494141,-380.87384033203125 zM832.1411895751953,-323.2723388671875 Q839.3211822509766,-309.7523193359375 847.2711944580078,-296.97235107421875 C850.9712066650391,-291.0323486328125 859.9611968994141,-290.892333984375 864.6911773681641,-295.07232666015625 C868.5912017822266,-298.5223388671875 867.3412017822266,-302.4923095703125 865.1511993408203,-306.43231201171875 Q854.8511505126953,-324.97235107421875 845.3611602783203,-340.84234619140625 Q844.7111968994141,-341.94232177734375 845.3412017822266,-343.05230712890625 Q855.0211944580078,-360.05230712890625 863.6611480712891,-374.912353515625 Q865.2311553955078,-377.602294921875 865.7911529541016,-380.30230712890625 C867.4611968994141,-388.2623291015625 855.2812042236328,-393.34234619140625 849.4811553955078,-388.33233642578125 Q846.9411773681641,-386.13232421875 845.4712066650391,-383.3623046875 Q839.9611968994141,-372.9923095703125 834.0611724853516,-362.29229736328125 Q833.3011627197266,-360.912353515625 832.5411529541016,-360.2322998046875 Q831.7311553955078,-359.5123291015625 831.1711578369141,-360.45233154296875 Q825.7111968994141,-369.63232421875 820.4911651611328,-379.13232421875 Q817.9611968994141,-383.72235107421875 814.9111480712891,-387.31231689453125 C810.1711578369141,-392.872314453125 801.0211944580078,-390.90234375 797.8311920166016,-384.83233642578125 C795.6911773681641,-380.7723388671875 797.8511505126953,-376.45233154296875 800.0811920166016,-372.892333984375 Q809.3811798095703,-358.04229736328125 818.7411651611328,-342.412353515625 A1.75,1.75 0 0 1 818.7212066650391,-340.58233642578125 Q807.5611724853516,-322.84234619140625 797.6311798095703,-304.46234130859375 C792.2411651611328,-294.4923095703125 806.8811798095703,-288.47235107421875 813.4611968994141,-293.892333984375 Q815.9111480712891,-295.92230224609375 817.7511749267578,-299.142333984375 Q824.4611968994141,-310.872314453125 831.1511993408203,-323.2723388671875 Q831.6411895751953,-324.20233154296875 832.1411895751953,-323.2723388671875 zM668.3911895751953,-304.2623291015625 Q674.6611480712891,-309.47235107421875 677.9511871337891,-318.17230224609375 C683.4111480712891,-332.662353515625 683.7711944580078,-352.20233154296875 676.9311676025391,-367.392333984375 C671.6011505126953,-379.2322998046875 660.1011505126953,-386.872314453125 647.5111846923828,-389.19232177734375 C624.1011505126953,-393.5023193359375 603.3511810302734,-383.96234130859375 596.1011810302734,-360.4923095703125 C589.7811737060547,-340.04229736328125 594.0011749267578,-308.29229736328125 615.0511627197266,-297.18231201171875 Q630.6511993408203,-288.95233154296875 650.7511749267578,-292.93231201171875 Q651.9411773681641,-293.162353515625 652.8911895751953,-292.352294921875 Q658.1211700439453,-287.92230224609375 662.6711578369141,-283.38232421875 C669.5111846923828,-276.54229736328125 674.0211944580078,-273.622314453125 683.2611846923828,-277.09234619140625 Q693.0011749267578,-280.7523193359375 689.9011993408203,-289.88232421875 C689.3412017822266,-291.54229736328125 689.3111724853516,-292.95233154296875 687.0411529541016,-293.0023193359375 C683.2311553955078,-293.09234619140625 680.2311553955078,-292.84234619140625 677.0611724853516,-295.622314453125 Q672.7411651611328,-299.42230224609375 668.3711700439453,-303.2723388671875 Q667.8111724853516,-303.7723388671875 668.3911895751953,-304.2623291015625 z" id="svg_84" class="" transform=""/><path fill="#2f2145" d="   M 316.51 538.59   Q 315.57 538.12 316.01 539.07   Q 319.20 545.93 318.80 555.47   C 318.68 558.44 312.98 560.80 310.50 561.77   Q 291.89 569.04 274.99 562.93   C 262.10 558.27 254.83 546.05 254.27 532.81   C 254.01 526.66 254.94 520.28 256.56 514.33   C 263.03 490.50 280.32 469.22 299.34 452.34   A 0.47 0.47 0.0 0 0 299.29 451.60   C 293.73 447.91 289.37 443.08 285.07 438.09   Q 278.40 430.36 274.46 420.91   C 272.12 415.30 269.52 406.21 278.89 405.58   C 285.28 405.15 291.61 404.39 297.81 403.02   Q 308.47 400.68 318.08 398.69   Q 319.28 398.44 319.91 397.43   Q 352.49 345.08 408.52 320.24   C 446.92 303.21 489.45 301.62 528.68 316.84   Q 561.59 329.61 586.53 357.53   Q 590.79 362.29 594.55 368.05   Q 594.95 368.67 595.38 368.06   Q 614.31 340.90 627.14 313.45   Q 635.91 294.69 652.44 284.71   C 672.21 272.78 695.95 269.69 717.81 277.40   C 738.04 284.53 754.00 297.90 763.10 317.29   Q 769.17 330.25 773.73 342.82   Q 775.58 347.90 774.38 354.09   C 771.24 370.25 761.04 384.31 748.22 395.37   Q 747.12 396.32 745.74 395.91   C 742.82 395.04 739.63 393.62 736.55 394.36   Q 720.59 398.18 704.08 400.66   Q 694.73 402.06 688.28 404.89   C 673.24 411.48 664.22 426.37 658.60 441.37   Q 658.35 442.02 659.05 442.09   C 660.29 442.21 661.47 442.30 662.69 442.57   C 687.75 448.13 712.19 462.67 730.32 481.51   C 739.66 491.22 748.28 503.95 750.77 516.96   Q 754.53 536.72 744.04 552.72   Q 731.68 571.57 711.98 577.00   C 697.94 580.87 682.00 575.03 669.74 566.99   C 664.61 563.63 661.82 560.87 664.45 554.33   Q 668.73 543.67 673.37 533.60   Q 674.04 532.14 672.70 533.02   Q 672.05 533.44 671.52 534.00   C 663.22 542.83 654.67 551.53 644.40 557.70   Q 629.88 566.41 613.75 561.09   C 611.01 560.18 607.52 558.14 605.71 555.75   C 602.89 552.04 605.81 544.25 607.64 540.54   Q 611.72 532.22 613.70 525.53   Q 615.75 518.62 613.57 510.29   C 613.03 508.22 610.82 504.24 608.14 504.39   Q 606.69 504.47 605.49 505.08   Q 589.81 513.04 580.98 516.77   Q 544.29 532.30 505.51 534.95   A 0.53 0.52 87.7 0 0 505.02 535.49   Q 505.23 551.43 508.69 567.65   Q 509.73 572.53 505.60 575.34   C 497.15 581.08 488.64 585.30 478.27 587.30   C 452.60 592.27 429.64 581.10 411.25 563.59   C 409.53 561.95 407.28 559.90 407.37 557.30   Q 407.45 555.12 408.05 552.99   Q 412.00 539.07 419.87 524.02   Q 420.19 523.40 419.49 523.35   C 403.94 522.14 389.55 517.77 374.65 512.36   Q 371.50 511.21 368.09 510.73   A 0.97 0.96 -75.8 0 0 367.05 511.36   C 364.58 518.15 365.64 524.09 369.36 530.19   Q 371.98 534.49 374.38 538.93   C 377.32 544.34 379.68 554.04 373.54 558.04   Q 370.89 559.77 367.63 560.34   Q 347.55 563.84 331.83 551.72   Q 325.64 546.94 318.51 540.02   Q 317.64 539.17 316.51 538.59   Z   M 637.60 363.24   Q 639.36 366.50 641.41 368.60   C 654.06 381.56 670.60 389.16 688.80 388.81   Q 697.40 388.65 706.80 386.85   Q 721.59 384.03 736.16 380.56   A 0.42 0.42 0.0 0 0 736.48 380.14   Q 736.36 373.00 730.79 368.74   Q 726.50 365.47 717.83 363.94   Q 717.50 363.83 716.97 362.95   Q 725.24 361.11 733.25 363.04   Q 741.20 364.95 745.45 372.30   Q 747.04 375.07 747.20 377.74   Q 747.24 378.51 747.72 377.90   L 752.07 372.42   Q 755.20 368.33 758.54 361.76   C 763.19 352.57 762.43 345.57 757.68 336.25   Q 751.50 323.22 749.03 318.95   Q 736.69 297.58 713.14 289.63   Q 687.82 281.07 662.19 294.52   C 646.65 302.67 639.34 317.19 632.02 332.72   C 629.95 337.11 627.50 341.24 625.12 345.50   A 0.54 0.52 -46.0 0 0 625.12 346.01   Q 630.42 355.53 637.60 363.24   Z   M 493.68 412.46   Q 492.94 424.99 492.34 437.50   Q 492.03 443.89 496.98 446.25   C 499.79 447.59 503.31 446.76 506.08 445.84   C 513.11 443.49 519.91 440.48 527.15 438.15   Q 532.36 436.47 537.39 434.66   L 540.48 433.82   A 0.57 0.57 0.0 0 1 541.10 434.70   L 540.06 436.21   Q 533.61 440.97 526.45 444.68   Q 505.96 455.30 488.31 467.90   Q 454.44 492.10 432.91 528.33   C 428.10 536.41 424.38 545.07 421.73 554.06   A 0.91 0.90 30.3 0 0 421.97 554.96   Q 432.29 565.09 445.97 571.69   Q 452.45 574.53 459.99 575.30   Q 478.02 577.24 492.81 568.41   Q 493.99 567.71 494.56 566.21   Q 494.74 565.74 494.61 565.25   Q 486.64 535.10 497.28 506.25   Q 501.07 495.95 506.36 488.17   C 518.05 470.94 532.29 458.07 551.21 450.05   Q 559.50 447.53 567.53 445.87   Q 570.51 445.25 567.84 446.73   Q 563.38 449.20 557.80 453.63   Q 546.73 462.21 536.03 472.04   Q 532.65 475.15 529.99 478.12   Q 529.22 478.98 530.36 478.84   Q 564.62 474.60 596.45 463.36   L 602.50 460.29   Q 615.06 454.41 626.79 447.04   Q 634.60 442.14 641.96 434.72   Q 653.51 423.09 651.84 406.76   Q 650.54 394.04 643.78 383.01   Q 640.75 378.41 633.85 368.66   Q 629.02 361.82 626.43 353.57   L 624.51 347.64   A 0.32 0.32 0.0 0 0 623.93 347.58   Q 604.23 382.33 573.69 407.52   Q 570.08 410.50 560.36 417.42   Q 553.85 422.06 547.02 427.36   Q 543.76 428.06 538.97 431.87   Q 538.13 431.33 539.63 430.12   Q 549.22 422.31 559.18 413.15   C 567.58 405.42 576.43 395.80 582.25 385.61   Q 583.20 383.96 581.90 382.63   C 567.03 367.40 546.21 358.70 525.01 361.61   Q 510.29 363.63 501.73 373.44   Q 501.22 374.01 501.16 373.25   Q 501.11 372.70 501.75 371.61   C 511.80 358.96 529.54 356.17 544.53 358.40   Q 562.21 361.02 577.49 369.43   Q 579.97 370.79 578.63 368.31   Q 577.91 366.98 576.91 365.83   Q 569.32 357.14 560.60 350.10   Q 539.79 333.54 514.74 325.60   C 507.78 323.39 483.85 316.64 483.01 330.03   C 482.87 332.18 483.71 335.14 484.44 337.22   Q 487.51 345.94 489.14 353.29   C 493.31 372.05 494.12 391.12 493.68 412.46   Z   M 391.47 440.52   C 392.72 454.06 398.89 465.26 413.72 466.95   Q 421.46 467.83 429.78 467.19   Q 446.51 465.91 462.84 460.93   Q 471.82 458.20 475.51 451.71   Q 483.74 437.23 484.45 417.73   Q 485.31 408.72 485.18 401.75   Q 484.83 381.52 481.37 359.79   Q 480.18 351.88 477.86 344.28   C 474.76 334.11 470.32 326.07 459.30 323.44   Q 452.88 321.92 446.51 322.63   Q 432.86 324.15 420.30 330.21   Q 410.30 335.03 405.29 344.00   Q 400.38 352.79 397.90 364.33   C 392.81 388.05 389.69 412.51 391.18 437.13   Q 391.29 438.88 391.47 440.52   Z   M 317.07 444.52   Q 339.94 457.85 365.93 462.73   C 369.74 463.44 374.32 463.88 378.23 463.64   C 381.17 463.45 385.75 461.40 385.28 457.75   Q 383.23 441.92 382.35 431.78   Q 381.36 419.54 382.26 407.25   Q 383.80 386.17 388.17 365.49   C 388.83 362.36 389.66 357.41 386.81 355.31   C 380.73 350.84 373.72 355.01 368.77 359.46   C 346.42 379.55 325.74 405.94 317.98 434.28   Q 316.68 439.04 315.44 443.49   Q 315.34 443.88 315.61 444.17   Q 316.05 444.65 317.07 444.52   Z   M 311.10 419.80   Q 312.04 417.55 312.82 415.40   Q 313.05 414.77 312.38 414.76   Q 310.14 414.73 308.49 415.01   Q 298.31 416.79 287.80 418.46   A 0.35 0.35 0.0 0 0 287.55 418.99   Q 294.03 430.22 304.33 439.12   A 0.53 0.52 26.3 0 0 305.19 438.83   Q 307.03 429.59 311.10 419.80   Z   M 649.36 456.69   L 645.82 461.29   Q 645.47 461.75 646.00 461.97   L 649.58 463.54   Q 655.31 466.47 660.81 469.38   Q 676.51 477.67 684.40 493.13   C 692.26 508.55 691.43 527.66 684.88 543.79   Q 682.11 550.62 678.74 557.36   A 0.38 0.37 24.1 0 0 678.94 557.88   C 687.16 560.95 694.50 565.31 703.97 564.96   Q 710.30 564.60 714.94 561.95   C 739.04 550.25 745.93 523.60 730.35 501.25   Q 721.58 488.68 707.90 478.41   Q 682.16 459.11 651.82 453.39   A 0.44 0.44 0.0 0 0 651.36 453.59   L 649.36 456.69   Z   M 533.79 491.04   L 519.04 492.03   A 0.84 0.83 -77.6 0 0 518.36 492.47   Q 511.41 505.29 507.68 519.28   A 0.66 0.66 0.0 0 0 508.35 520.11   C 524.52 519.34 539.43 516.15 554.67 511.69   Q 577.61 504.98 599.20 490.70   Q 608.94 484.25 616.10 476.44   Q 622.89 469.86 625.07 467.31   Q 628.27 463.58 630.83 459.41   Q 631.77 457.88 630.28 458.88   Q 615.67 468.76 598.09 475.38   Q 566.93 487.13 533.79 491.04   Z   M 343.89 481.54   Q 349.00 485.38 354.52 488.17   C 377.61 499.86 401.94 506.54 427.48 510.28   Q 428.66 510.46 429.40 509.53   L 443.36 492.20   L 459.09 476.63   Q 460.08 475.65 458.73 476.00   Q 455.72 476.79 452.70 477.26   C 421.18 482.22 389.41 481.37 358.46 474.66   Q 339.00 470.44 321.24 461.35   Q 320.37 460.91 320.84 461.76   Q 321.26 462.51 321.84 463.15   Q 331.72 473.90 343.89 481.54   Z   M 281.72 551.69   Q 292.16 553.31 302.65 550.44   A 1.03 1.01 -13.9 0 0 303.38 549.25   C 300.74 537.08 299.27 522.98 301.36 510.65   C 302.92 501.51 306.40 494.20 314.50 489.37   A 1.03 1.03 0.0 0 0 314.96 488.16   Q 311.93 478.95 308.84 470.15   Q 308.03 467.85 306.74 466.13   Q 306.79 465.18 306.21 464.81   Q 305.66 464.47 305.18 464.90   Q 293.82 475.18 285.39 485.92   C 275.63 498.34 267.67 514.58 267.12 530.26   Q 266.67 543.48 277.93 550.07   Q 279.59 551.05 281.72 551.69   Z" id="svg_85" class="selected"/><path fill="#bace77" d="   M 757.68 336.25   Q 757.53 336.80 757.17 337.09   Q 756.76 337.43 756.38 337.05   C 754.04 334.70 751.24 332.87 749.03 330.44   Q 744.42 325.35 740.15 318.45   Q 722.36 289.69 688.76 291.60   Q 669.55 292.69 656.04 303.71   Q 646.30 311.66 639.86 326.07   C 637.46 331.43 636.53 338.51 638.20 344.19   Q 644.40 365.30 661.33 375.48   Q 661.81 375.77 661.47 376.21   Q 661.24 376.51 660.44 376.62   Q 654.65 374.63 649.42 371.10   Q 643.67 367.23 637.60 363.24   Q 630.42 355.53 625.12 346.01   A 0.54 0.52 -46.0 0 1 625.12 345.50   C 627.50 341.24 629.95 337.11 632.02 332.72   C 639.34 317.19 646.65 302.67 662.19 294.52   Q 687.82 281.07 713.14 289.63   Q 736.69 297.58 749.03 318.95   Q 751.50 323.22 757.68 336.25   Z" id="svg_86"/><path fill="#9fb955" d="   M 757.68 336.25   C 762.43 345.57 763.19 352.57 758.54 361.76   Q 755.20 368.33 752.07 372.42   L 749.78 357.98   C 749.79 353.25 749.01 348.44 743.50 347.77   Q 738.43 347.16 735.39 349.97   Q 729.16 353.03 722.20 356.16   C 718.92 357.63 715.66 357.63 712.70 359.87   A 0.77 0.77 0.0 0 0 712.45 360.78   Q 712.56 361.06 713.10 361.37   Q 715.23 362.57 716.97 362.95   Q 717.50 363.83 717.83 363.94   Q 717.72 364.60 717.36 364.84   Q 710.83 369.20 703.65 372.41   Q 685.42 380.58 665.50 377.79   Q 662.97 377.44 660.44 376.62   Q 661.24 376.51 661.47 376.21   Q 661.81 375.77 661.33 375.48   Q 644.40 365.30 638.20 344.19   C 636.53 338.51 637.46 331.43 639.86 326.07   Q 646.30 311.66 656.04 303.71   Q 669.55 292.69 688.76 291.60   Q 722.36 289.69 740.15 318.45   Q 744.42 325.35 749.03 330.44   C 751.24 332.87 754.04 334.70 756.38 337.05   Q 756.76 337.43 757.17 337.09   Q 757.53 336.80 757.68 336.25   Z   M 689.87 313.79   Q 689.94 315.15 689.96 316.48   C 690.14 327.27 699.31 335.13 709.45 336.19   Q 719.51 337.24 730.61 335.40   Q 731.28 335.29 731.12 334.62   C 726.97 317.95 716.84 300.55 696.86 302.86   Q 689.23 303.74 681.38 306.87   Q 680.00 307.42 681.28 308.16   L 689.29 312.83   A 1.21 1.18 -76.9 0 1 689.87 313.79   Z" id="svg_87"/><path fill="#2f2145" d="   M 689.29 312.83   L 681.28 308.16   Q 680.00 307.42 681.38 306.87   Q 689.23 303.74 696.86 302.86   C 716.84 300.55 726.97 317.95 731.12 334.62   Q 731.28 335.29 730.61 335.40   Q 719.51 337.24 709.45 336.19   C 699.31 335.13 690.14 327.27 689.96 316.48   Q 689.94 315.15 689.87 313.79   A 1.21 1.18 -76.9 0 0 689.29 312.83   Z   M 713.8279 324.1170   A 7.72 5.90 21.8 0 0 708.8511 315.7719   A 7.72 5.90 21.8 0 0 699.4921 318.3830   A 7.72 5.90 21.8 0 0 704.4689 326.7281   A 7.72 5.90 21.8 0 0 713.8279 324.1170   Z" id="svg_88"/><ellipse fill="#ffffff" cx="706.6599731445312" cy="321.25" transform="rotate(21.8 706.66 321.25)" rx="7.71999979019165" ry="5.900000095367432" id="svg_89"/><path fill="#bace77" d="   M 560.60 350.10   Q 559.48 351.34 557.24 350.00   Q 541.01 340.29 521.64 335.70   Q 511.18 333.22 500.01 334.19   A 2.41 2.41 0.0 0 0 497.82 336.58   Q 497.80 341.79 498.20 346.90   C 498.76 353.92 498.96 360.96 499.52 368.00   Q 499.71 370.30 499.35 375.02   Q 496.98 388.63 495.85 402.49   C 495.57 405.90 494.86 409.48 494.45 412.99   Q 494.44 413.12 494.31 413.13   Q 494.16 413.14 494.01 413.20   Q 493.88 413.26 493.87 413.12   Q 493.83 412.75 493.68 412.46   C 494.12 391.12 493.31 372.05 489.14 353.29   Q 487.51 345.94 484.44 337.22   C 483.71 335.14 482.87 332.18 483.01 330.03   C 483.85 316.64 507.78 323.39 514.74 325.60   Q 539.79 333.54 560.60 350.10   Z" id="svg_90"/><path fill="#bace77" d="   M 481.37 359.79   Q 481.48 360.52 481.08 360.94   A 0.70 0.70 0.0 0 1 479.90 360.64   C 479.58 359.49 479.01 358.51 478.75 357.34   C 476.56 347.32 465.29 337.76 455.85 334.91   C 435.76 328.84 419.44 341.69 412.58 359.67   Q 409.55 367.61 406.53 378.71   C 405.48 382.54 404.23 386.57 402.62 390.21   Q 401.88 391.86 401.85 393.72   Q 401.84 394.22 402.09 394.64   Q 402.87 395.93 401.97 397.73   Q 401.18 399.26 400.60 401.04   Q 394.35 420.18 392.76 440.17   A 0.81 0.81 0.0 0 1 392.10 440.90   Q 391.94 440.93 391.47 440.52   Q 391.29 438.88 391.18 437.13   C 389.69 412.51 392.81 388.05 397.90 364.33   Q 400.38 352.79 405.29 344.00   Q 410.30 335.03 420.30 330.21   Q 432.86 324.15 446.51 322.63   Q 452.88 321.92 459.30 323.44   C 470.32 326.07 474.76 334.11 477.86 344.28   Q 480.18 351.88 481.37 359.79   Z" id="svg_91"/><path fill="#9fb955" d="   M 481.37 359.79   Q 484.83 381.52 485.18 401.75   Q 485.31 408.72 484.45 417.73   Q 484.39 418.63 483.60 418.82   A 0.33 0.33 0.0 0 1 483.19 418.52   Q 482.34 407.21 480.69 396.01   Q 479.70 389.28 478.22 383.02   Q 471.71 367.63 457.04 362.96   C 439.67 357.43 422.38 366.28 412.34 380.34   Q 406.71 388.23 403.85 395.28   L 401.97 397.73   Q 402.87 395.93 402.09 394.64   Q 401.84 394.22 401.85 393.72   Q 401.88 391.86 402.62 390.21   C 404.23 386.57 405.48 382.54 406.53 378.71   Q 409.55 367.61 412.58 359.67   C 419.44 341.69 435.76 328.84 455.85 334.91   C 465.29 337.76 476.56 347.32 478.75 357.34   C 479.01 358.51 479.58 359.49 479.90 360.64   A 0.70 0.70 0.0 0 0 481.08 360.94   Q 481.48 360.52 481.37 359.79   Z" id="svg_92"/><path fill="#9fb955" d="   M 560.60 350.10   Q 569.32 357.14 576.91 365.83   Q 577.91 366.98 578.63 368.31   Q 579.97 370.79 577.49 369.43   Q 562.21 361.02 544.53 358.40   C 529.54 356.17 511.80 358.96 501.75 371.61   Q 500.29 372.78 499.35 375.02   Q 499.71 370.30 499.52 368.00   C 498.96 360.96 498.76 353.92 498.20 346.90   Q 497.80 341.79 497.82 336.58   A 2.41 2.41 0.0 0 1 500.01 334.19   Q 511.18 333.22 521.64 335.70   Q 541.01 340.29 557.24 350.00   Q 559.48 351.34 560.60 350.10   Z" id="svg_93"/><path fill="#bace77" d="   M 626.43 353.57   Q 622.92 365.16 615.05 376.56   Q 607.98 386.80 600.30 395.14   Q 592.57 403.53 585.90 409.02   Q 569.08 422.84 547.02 427.36   Q 553.85 422.06 560.36 417.42   Q 570.08 410.50 573.69 407.52   Q 604.23 382.33 623.93 347.58   A 0.32 0.32 0.0 0 1 624.51 347.64   L 626.43 353.57   Z" id="svg_94"/><path fill="#2f2145" d="   M 749.78 357.98   L 735.39 349.97   Q 738.43 347.16 743.50 347.77   C 749.01 348.44 749.79 353.25 749.78 357.98   Z" id="svg_95"/><path fill="#76a350" d="   M 735.39 349.97   L 749.78 357.98   L 752.07 372.42   L 747.72 377.90   Q 747.24 378.51 747.20 377.74   Q 747.04 375.07 745.45 372.30   Q 741.20 364.95 733.25 363.04   Q 725.24 361.11 716.97 362.95   Q 715.23 362.57 713.10 361.37   Q 712.56 361.06 712.45 360.78   A 0.77 0.77 0.0 0 1 712.70 359.87   C 715.66 357.63 718.92 357.63 722.20 356.16   Q 729.16 353.03 735.39 349.97   Z" id="svg_96"/><path fill="#bace77" d="   M 382.35 431.78   Q 382.37 433.20 382.33 434.59   Q 382.32 434.76 382.24 434.90   Q 382.17 435.03 382.04 435.10   Q 381.56 435.37 381.42 434.84   Q 380.28 430.42 378.58 425.89   C 378.14 424.72 377.87 422.40 377.84 421.11   Q 377.63 412.40 378.43 404.00   Q 378.49 403.42 378.26 403.46   L 378.16 401.42   Q 382.78 389.94 379.71 376.52   C 378.73 372.27 376.03 366.63 370.54 370.52   Q 358.51 379.05 349.59 391.45   Q 348.76 392.60 348.36 394.13   Q 348.23 394.64 347.84 394.99   Q 346.96 395.78 346.70 396.79   Q 341.69 402.17 337.33 408.33   Q 330.77 417.63 324.90 427.68   Q 321.83 430.81 320.02 435.53   Q 318.33 439.95 317.07 444.52   Q 316.05 444.65 315.61 444.17   Q 315.34 443.88 315.44 443.49   Q 316.68 439.04 317.98 434.28   C 325.74 405.94 346.42 379.55 368.77 359.46   C 373.72 355.01 380.73 350.84 386.81 355.31   C 389.66 357.41 388.83 362.36 388.17 365.49   Q 383.80 386.17 382.26 407.25   Q 381.36 419.54 382.35 431.78   Z" id="svg_97"/><path fill="#9fb955" d="   M 626.43 353.57   Q 629.02 361.82 633.85 368.66   Q 640.75 378.41 643.78 383.01   Q 643.66 385.65 644.58 391.25   Q 644.98 393.67 644.73 397.60   C 644.23 405.69 640.52 413.94 636.07 421.14   Q 630.45 430.25 626.18 435.38   Q 617.19 446.17 605.19 456.84   Q 604.82 457.17 604.60 457.61   Q 604.23 458.35 603.24 458.67   Q 602.32 458.97 602.50 460.29   L 596.45 463.36   Q 577.60 456.81 570.49 455.56   Q 566.77 454.91 563.05 454.25   Q 562.13 454.09 560.43 454.15   Q 558.75 454.21 557.80 453.63   Q 563.38 449.20 567.84 446.73   Q 570.51 445.25 567.53 445.87   Q 559.50 447.53 551.21 450.05   Q 550.51 450.28 550.40 449.75   Q 550.26 449.09 549.99 448.47   Q 549.80 448.03 550.17 447.74   Q 551.22 446.91 550.82 445.53   Q 550.68 445.04 550.17 445.11   L 545.78 445.66   Q 539.64 442.94 540.91 437.77   Q 541.28 436.24 540.06 436.21   L 541.10 434.70   A 0.57 0.57 0.0 0 0 540.48 433.82   L 537.39 434.66   Q 537.19 433.16 538.97 431.87   Q 543.76 428.06 547.02 427.36   Q 569.08 422.84 585.90 409.02   Q 592.57 403.53 600.30 395.14   Q 607.98 386.80 615.05 376.56   Q 622.92 365.16 626.43 353.57   Z" id="svg_98"/><path fill="#76a350" d="   M 538.97 431.87   Q 537.19 433.16 537.39 434.66   Q 532.36 436.47 527.15 438.15   C 519.91 440.48 513.11 443.49 506.08 445.84   C 503.31 446.76 499.79 447.59 496.98 446.25   Q 492.03 443.89 492.34 437.50   Q 492.94 424.99 493.68 412.46   Q 493.83 412.75 493.87 413.12   Q 493.88 413.26 494.01 413.20   Q 494.16 413.14 494.31 413.13   Q 494.44 413.12 494.45 412.99   C 494.86 409.48 495.57 405.90 495.85 402.49   Q 496.98 388.63 499.35 375.02   Q 500.29 372.78 501.75 371.61   Q 501.11 372.70 501.16 373.25   Q 501.22 374.01 501.73 373.44   Q 510.29 363.63 525.01 361.61   C 546.21 358.70 567.03 367.40 581.90 382.63   Q 583.20 383.96 582.25 385.61   C 576.43 395.80 567.58 405.42 559.18 413.15   Q 549.22 422.31 539.63 430.12   Q 538.13 431.33 538.97 431.87   Z" id="svg_99"/><path fill="#2f2145" d="   M 478.22 383.02   Q 477.68 383.82 477.58 383.63   C 471.68 372.56 461.31 367.02 449.13 366.65   Q 432.61 366.15 419.62 378.26   Q 411.77 385.58 404.18 396.59   Q 403.68 397.31 403.56 396.44   Q 403.51 396.10 403.85 395.28   Q 406.71 388.23 412.34 380.34   C 422.38 366.28 439.67 357.43 457.04 362.96   Q 471.71 367.63 478.22 383.02   Z" id="svg_100"/><path fill="#76a350" d="   M 637.60 363.24   Q 643.67 367.23 649.42 371.10   Q 654.65 374.63 660.44 376.62   Q 662.97 377.44 665.50 377.79   Q 685.42 380.58 703.65 372.41   Q 710.83 369.20 717.36 364.84   Q 717.72 364.60 717.83 363.94   Q 726.50 365.47 730.79 368.74   Q 736.36 373.00 736.48 380.14   A 0.42 0.42 0.0 0 1 736.16 380.56   Q 721.59 384.03 706.80 386.85   Q 697.40 388.65 688.80 388.81   C 670.60 389.16 654.06 381.56 641.41 368.60   Q 639.36 366.50 637.60 363.24   Z" id="svg_101"/><path fill="#76a350" d="   M 478.22 383.02   Q 479.70 389.28 480.69 396.01   Q 482.34 407.21 483.19 418.52   A 0.33 0.33 0.0 0 0 483.60 418.82   Q 484.39 418.63 484.45 417.73   Q 483.74 437.23 475.51 451.71   Q 471.82 458.20 462.84 460.93   Q 446.51 465.91 429.78 467.19   Q 421.46 467.83 413.72 466.95   C 398.89 465.26 392.72 454.06 391.47 440.52   Q 391.94 440.93 392.10 440.90   A 0.81 0.81 0.0 0 0 392.76 440.17   Q 394.35 420.18 400.60 401.04   Q 401.18 399.26 401.97 397.73   L 403.85 395.28   Q 403.51 396.10 403.56 396.44   Q 403.68 397.31 404.18 396.59   Q 411.77 385.58 419.62 378.26   Q 432.61 366.15 449.13 366.65   C 461.31 367.02 471.68 372.56 477.58 383.63   Q 477.68 383.82 478.22 383.02   Z" id="svg_102" class=""/><path fill="#9fb955" d="   M 378.16 401.42   C 376.80 393.71 372.27 385.98 363.59 386.64   C 357.34 387.11 351.18 392.23 346.70 396.79   Q 346.96 395.78 347.84 394.99   Q 348.23 394.64 348.36 394.13   Q 348.76 392.60 349.59 391.45   Q 358.51 379.05 370.54 370.52   C 376.03 366.63 378.73 372.27 379.71 376.52   Q 382.78 389.94 378.16 401.42   Z" id="svg_103"/><path fill="#76a350" d="   M 643.78 383.01   Q 650.54 394.04 651.84 406.76   Q 653.51 423.09 641.96 434.72   Q 634.60 442.14 626.79 447.04   Q 615.06 454.41 602.50 460.29   Q 602.32 458.97 603.24 458.67   Q 604.23 458.35 604.60 457.61   Q 604.82 457.17 605.19 456.84   Q 617.19 446.17 626.18 435.38   Q 630.45 430.25 636.07 421.14   C 640.52 413.94 644.23 405.69 644.73 397.60   Q 644.98 393.67 644.58 391.25   Q 643.66 385.65 643.78 383.01   Z" id="svg_104"/><path fill="#2f2145" d="   M 378.16 401.42   L 378.26 403.46   Q 378.21 403.81 378.07 404.02   Q 377.72 404.51 377.45 403.97   C 374.92 398.83 372.40 392.10 365.57 392.07   C 359.57 392.05 354.51 395.62 350.29 399.52   Q 336.45 412.34 324.90 427.68   Q 330.77 417.63 337.33 408.33   Q 341.69 402.17 346.70 396.79   C 351.18 392.23 357.34 387.11 363.59 386.64   C 372.27 385.98 376.80 393.71 378.16 401.42   Z" id="svg_105"/><path fill="#76a350" d="   M 378.26 403.46   Q 378.49 403.42 378.43 404.00   Q 377.63 412.40 377.84 421.11   C 377.87 422.40 378.14 424.72 378.58 425.89   Q 380.28 430.42 381.42 434.84   Q 381.56 435.37 382.04 435.10   Q 382.17 435.03 382.24 434.90   Q 382.32 434.76 382.33 434.59   Q 382.37 433.20 382.35 431.78   Q 383.23 441.92 385.28 457.75   C 385.75 461.40 381.17 463.45 378.23 463.64   C 374.32 463.88 369.74 463.44 365.93 462.73   Q 339.94 457.85 317.07 444.52   Q 318.33 439.95 320.02 435.53   Q 321.83 430.81 324.90 427.68   Q 336.45 412.34 350.29 399.52   C 354.51 395.62 359.57 392.05 365.57 392.07   C 372.40 392.10 374.92 398.83 377.45 403.97   Q 377.72 404.51 378.07 404.02   Q 378.21 403.81 378.26 403.46   Z" id="svg_106"/><path fill="#76a350" d="   M 311.10 419.80   Q 307.03 429.59 305.19 438.83   A 0.53 0.52 26.3 0 1 304.33 439.12   Q 294.03 430.22 287.55 418.99   A 0.35 0.35 0.0 0 1 287.80 418.46   Q 298.31 416.79 308.49 415.01   Q 310.14 414.73 312.38 414.76   Q 313.05 414.77 312.82 415.40   Q 312.04 417.55 311.10 419.80   Z" id="svg_107"/><path fill="#bace77" d="   M 540.06 436.21   Q 541.28 436.24 540.91 437.77   Q 539.64 442.94 545.78 445.66   Q 533.46 449.12 523.47 454.38   Q 503.96 464.66 488.61 480.09   Q 460.92 501.67 448.19 536.22   Q 442.28 552.27 444.10 567.22   Q 444.16 567.72 444.45 568.13   Q 445.84 570.03 445.97 571.69   Q 432.29 565.09 421.97 554.96   A 0.91 0.90 30.3 0 1 421.73 554.06   C 424.38 545.07 428.10 536.41 432.91 528.33   Q 454.44 492.10 488.31 467.90   Q 505.96 455.30 526.45 444.68   Q 533.61 440.97 540.06 436.21   Z" id="svg_108"/><path fill="#76a350" d="   M 551.21 450.05   C 532.29 458.07 518.05 470.94 506.36 488.17   Q 501.07 495.95 497.28 506.25   Q 486.64 535.10 494.61 565.25   Q 494.74 565.74 494.56 566.21   Q 493.99 567.71 492.81 568.41   Q 478.02 577.24 459.99 575.30   Q 460.86 575.42 461.43 575.11   Q 461.90 574.86 461.60 574.42   Q 461.10 573.68 461.12 573.25   Q 461.30 567.13 461.45 561.00   Q 462.25 529.37 475.98 501.27   Q 477.78 497.58 482.27 490.70   Q 485.58 485.61 488.61 480.09   Q 503.96 464.66 523.47 454.38   Q 533.46 449.12 545.78 445.66   L 550.17 445.11   Q 550.68 445.04 550.82 445.53   Q 551.22 446.91 550.17 447.74   Q 549.80 448.03 549.99 448.47   Q 550.26 449.09 550.40 449.75   Q 550.51 450.28 551.21 450.05   Z" id="svg_109"/><path fill="#76a350" d="   M 557.80 453.63   Q 558.75 454.21 560.43 454.15   Q 562.13 454.09 563.05 454.25   Q 566.77 454.91 570.49 455.56   Q 577.60 456.81 596.45 463.36   Q 564.62 474.60 530.36 478.84   Q 529.22 478.98 529.99 478.12   Q 532.65 475.15 536.03 472.04   Q 546.73 462.21 557.80 453.63   Z" id="svg_110"/><path fill="#bace77" d="   M 714.94 561.95   Q 715.38 559.98 717.30 558.28   Q 719.53 556.31 720.24 555.25   Q 723.99 549.70 726.19 544.11   Q 736.02 519.12 719.95 498.68   Q 714.09 491.22 706.48 485.28   Q 698.09 478.72 691.57 474.46   Q 676.07 464.34 654.79 457.47   Q 651.90 456.54 649.36 456.69   L 651.36 453.59   A 0.44 0.44 0.0 0 1 651.82 453.39   Q 682.16 459.11 707.90 478.41   Q 721.58 488.68 730.35 501.25   C 745.93 523.60 739.04 550.25 714.94 561.95   Z" id="svg_111"/><path fill="#9fb955" d="   M 649.36 456.69   Q 651.90 456.54 654.79 457.47   Q 676.07 464.34 691.57 474.46   Q 698.09 478.72 706.48 485.28   Q 714.09 491.22 719.95 498.68   Q 736.02 519.12 726.19 544.11   Q 723.99 549.70 720.24 555.25   Q 719.53 556.31 717.30 558.28   Q 715.38 559.98 714.94 561.95   Q 710.30 564.60 703.97 564.96   Q 709.79 549.48 710.23 534.24   C 710.75 516.34 703.98 499.25 691.46 486.35   Q 682.90 477.53 673.57 472.13   Q 666.30 467.92 657.37 464.22   Q 655.57 463.47 653.54 463.47   Q 651.62 463.46 649.58 463.54   L 646.00 461.97   Q 645.47 461.75 645.82 461.29   L 649.36 456.69   Z" id="svg_112"/><path fill="#dda14e" d="   M 616.10 476.44   Q 610.90 478.25 606.30 480.72   Q 598.51 484.91 596.86 485.66   Q 587.57 489.83 580.45 492.34   Q 560.05 499.55 535.65 503.11   A 0.90 0.90 0.0 0 1 534.62 502.28   L 533.79 491.04   Q 566.93 487.13 598.09 475.38   Q 615.67 468.76 630.28 458.88   Q 631.77 457.88 630.83 459.41   Q 628.27 463.58 625.07 467.31   Q 622.89 469.86 616.10 476.44   Z" id="svg_113"/><path fill="#dda14e" d="   M 443.36 492.20   Q 431.72 491.75 420.24 491.37   C 400.48 490.71 381.13 488.47 361.72 485.04   Q 359.76 484.69 352.83 483.17   Q 348.43 482.20 343.89 481.54   Q 331.72 473.90 321.84 463.15   Q 321.26 462.51 320.84 461.76   Q 320.37 460.91 321.24 461.35   Q 339.00 470.44 358.46 474.66   C 389.41 481.37 421.18 482.22 452.70 477.26   Q 455.72 476.79 458.73 476.00   Q 460.08 475.65 459.09 476.63   L 443.36 492.20   Z" id="svg_114"/><path fill="#76a350" d="   M 649.58 463.54   Q 651.62 463.46 653.54 463.47   Q 655.57 463.47 657.37 464.22   Q 666.30 467.92 673.57 472.13   Q 682.90 477.53 691.46 486.35   C 703.98 499.25 710.75 516.34 710.23 534.24   Q 709.79 549.48 703.97 564.96   C 694.50 565.31 687.16 560.95 678.94 557.88   A 0.38 0.37 24.1 0 1 678.74 557.36   Q 682.11 550.62 684.88 543.79   C 691.43 527.66 692.26 508.55 684.40 493.13   Q 676.51 477.67 660.81 469.38   Q 655.31 466.47 649.58 463.54   Z" id="svg_115"/><path fill="#bace77" d="   M 306.74 466.13   Q 305.52 468.30 304.47 470.51   Q 303.23 473.15 302.20 474.89   Q 298.39 481.34 294.71 487.88   Q 278.14 517.29 281.72 551.69   Q 279.59 551.05 277.93 550.07   Q 266.67 543.48 267.12 530.26   C 267.67 514.58 275.63 498.34 285.39 485.92   Q 293.82 475.18 305.18 464.90   Q 305.66 464.47 306.21 464.81   Q 306.79 465.18 306.74 466.13   Z" id="svg_116"/><path fill="#76a350" d="   M 306.74 466.13   Q 308.03 467.85 308.84 470.15   Q 311.93 478.95 314.96 488.16   A 1.03 1.03 0.0 0 1 314.50 489.37   C 306.40 494.20 302.92 501.51 301.36 510.65   C 299.27 522.98 300.74 537.08 303.38 549.25   A 1.03 1.01 -13.9 0 1 302.65 550.44   Q 292.16 553.31 281.72 551.69   Q 278.14 517.29 294.71 487.88   Q 298.39 481.34 302.20 474.89   Q 303.23 473.15 304.47 470.51   Q 305.52 468.30 306.74 466.13   Z" id="svg_117"/><path fill="#c17a34" d="   M 616.10 476.44   Q 608.94 484.25 599.20 490.70   Q 577.61 504.98 554.67 511.69   C 539.43 516.15 524.52 519.34 508.35 520.11   A 0.66 0.66 0.0 0 1 507.68 519.28   Q 511.41 505.29 518.36 492.47   A 0.84 0.83 -77.6 0 1 519.04 492.03   L 533.79 491.04   L 534.62 502.28   A 0.90 0.90 0.0 0 0 535.65 503.11   Q 560.05 499.55 580.45 492.34   Q 587.57 489.83 596.86 485.66   Q 598.51 484.91 606.30 480.72   Q 610.90 478.25 616.10 476.44   Z" id="svg_118"/><path fill="#9fb955" d="   M 488.61 480.09   Q 485.58 485.61 482.27 490.70   Q 477.78 497.58 475.98 501.27   Q 462.25 529.37 461.45 561.00   Q 461.30 567.13 461.12 573.25   Q 461.10 573.68 461.60 574.42   Q 461.90 574.86 461.43 575.11   Q 460.86 575.42 459.99 575.30   Q 452.45 574.53 445.97 571.69   Q 445.84 570.03 444.45 568.13   Q 444.16 567.72 444.10 567.22   Q 442.28 552.27 448.19 536.22   Q 460.92 501.67 488.61 480.09   Z" id="svg_119"/><path fill="#c17a34" d="   M 343.89 481.54   Q 348.43 482.20 352.83 483.17   Q 359.76 484.69 361.72 485.04   C 381.13 488.47 400.48 490.71 420.24 491.37   Q 431.72 491.75 443.36 492.20   L 429.40 509.53   Q 428.66 510.46 427.48 510.28   C 401.94 506.54 377.61 499.86 354.52 488.17   Q 349.00 485.38 343.89 481.54   Z" id="svg_120"/></g></svg>