<?xml version="1.0" encoding="UTF-8" standalone="no"?>
<!DOCTYPE svg PUBLIC "-//W3C//DTD SVG 1.1//EN" "http://www.w3.org/Graphics/SVG/1.1/DTD/svg11.dtd">
<svg xmlns="http://www.w3.org/2000/svg" version="1.1" viewBox="0.00 0.00 1024.00 1024.00">
<clipPath id="clipping-path-0">
<path d="
  M 0.00 0.00
  L 1024.00 0.00
  L 1024.00 1024.00
  L 0.00 1024.00
  L 0.00 0.00
  Z"/>
</clipPath>
<g stroke-width="2.00" fill="none" stroke-linecap="butt" clip-path="url(#clipping-path-0)">
<path stroke="#53624b" vector-effect="non-scaling-stroke" d="
  M 638.31 363.74
  Q 638.19 364.71 638.82 365.43
  Q 663.77 394.07 702.09 387.58
  Q 718.76 384.76 735.23 380.74
  Q 736.78 380.37 736.50 378.79
  C 734.75 368.72 726.57 365.43 717.43 363.88"
/>
<path stroke="#676d4d" vector-effect="non-scaling-stroke" d="
  M 717.43 363.88
  Q 717.53 363.67 717.34 363.04"
/>
<path stroke="#53624b" vector-effect="non-scaling-stroke" d="
  M 717.34 363.04
  Q 725.80 361.22 732.74 362.95
  Q 744.50 365.90 747.40 377.55
  A 0.21 0.21 0.0 0 0 747.77 377.63
  L 752.34 371.92"
/>
<path stroke="#676d4d" vector-effect="non-scaling-stroke" d="
  M 752.34 371.92
  Q 754.64 368.83 758.32 362.11
  C 762.46 354.53 762.71 347.96 759.28 339.95
  Q 752.52 324.20 746.56 315.10
  Q 733.51 295.22 709.29 288.52
  Q 690.66 283.38 671.27 290.40
  Q 651.20 297.67 640.44 316.41
  Q 636.27 323.68 632.89 330.86
  C 630.55 335.82 627.86 340.55 625.25 345.29
  A 0.96 0.96 0.0 0 0 625.25 346.21
  Q 630.71 356.00 638.31 363.74"
/>
<path stroke="#8bae53" vector-effect="non-scaling-stroke" d="
  M 752.34 371.92
  L 749.92 358.19"
/>
<path stroke="#676d4d" vector-effect="non-scaling-stroke" d="
  M 749.92 358.19
  Q 750.30 354.35 748.86 351.12
  Q 747.79 348.73 745.27 347.88
  Q 739.60 345.97 734.94 349.92"
/>
<path stroke="#8bae53" vector-effect="non-scaling-stroke" d="
  M 734.94 349.92
  Q 728.46 353.02 721.82 355.99
  C 718.83 357.33 715.78 357.63 712.85 359.38
  A 1.17 1.17 0.0 0 0 712.47 361.02
  Q 713.18 362.13 714.50 362.48
  Q 716.02 362.89 717.34 363.04"
/>
<path stroke="#8bae53" vector-effect="non-scaling-stroke" d="
  M 717.43 363.88
  Q 717.12 364.47 716.46 364.92
  Q 700.07 376.25 681.22 377.99
  C 673.67 378.69 664.92 378.17 657.88 375.36
  Q 654.68 374.09 648.03 369.78
  Q 643.25 366.69 638.31 363.74"
/>
<path stroke="#53624b" vector-effect="non-scaling-stroke" d="
  M 749.92 358.19
  L 734.94 349.92"
/>
<path stroke="#53624b" vector-effect="non-scaling-stroke" d="
  M 494.15 410.49
  Q 494.07 410.26 493.98 410.03"
/>
<path stroke="#53624b" vector-effect="non-scaling-stroke" d="
  M 493.73 413.31
  Q 493.08 424.53 492.49 435.82
  Q 492.24 440.40 493.14 442.26
  C 495.66 447.54 500.59 447.59 505.58 445.87
  C 516.56 442.08 527.46 438.08 538.44 434.37"
/>
<path stroke="#676d4d" vector-effect="non-scaling-stroke" d="
  M 538.44 434.37
  L 539.51 433.93
  A 1.08 1.08 0.0 0 1 540.58 435.78
  C 535.07 440.00 529.06 443.32 523.04 446.52
  Q 499.16 459.19 480.22 474.11
  C 460.68 489.50 444.33 508.81 431.64 530.65
  Q 425.43 541.31 421.77 553.99
  A 1.03 1.02 30.8 0 0 422.03 555.00
  Q 434.25 567.02 450.30 573.45
  Q 453.80 574.85 461.29 575.31"
/>
<path stroke="#53624b" vector-effect="non-scaling-stroke" d="
  M 461.29 575.31
  Q 478.33 577.06 492.79 568.16
  C 494.09 567.36 494.85 566.30 494.45 564.72
  C 486.49 532.93 493.72 500.92 515.34 476.33
  Q 530.44 459.16 550.58 450.22"
/>
<path stroke="#676d4d" vector-effect="non-scaling-stroke" d="
  M 550.58 450.22
  L 568.23 445.76
  Q 568.69 445.65 568.59 446.10
  Q 568.52 446.38 568.14 446.63
  Q 563.19 449.88 557.79 453.82"
/>
<path stroke="#53624b" vector-effect="non-scaling-stroke" d="
  M 557.79 453.82
  Q 543.30 464.65 530.16 477.94
  Q 529.52 478.59 530.41 478.81
  Q 530.51 478.83 531.00 478.77
  Q 563.64 474.83 595.75 463.51"
/>
<path stroke="#676d4d" vector-effect="non-scaling-stroke" d="
  M 595.75 463.51
  Q 599.76 462.26 602.88 459.40"
/>
<path stroke="#53624b" vector-effect="non-scaling-stroke" d="
  M 602.88 459.40
  Q 618.95 452.88 631.86 443.34
  C 642.68 435.34 651.38 426.35 652.01 412.01
  Q 652.63 397.90 643.92 383.39"
/>
<path stroke="#676d4d" vector-effect="non-scaling-stroke" d="
  M 643.92 383.39
  Q 638.26 375.28 632.58 366.44
  C 628.84 360.60 626.69 355.22 624.99 348.67
  Q 624.88 348.26 624.50 348.10
  A 0.97 0.96 -63.4 0 0 623.28 348.51
  Q 603.00 384.26 570.67 409.93
  Q 557.33 420.52 538.81 432.01"
/>
<path stroke="#53624b" vector-effect="non-scaling-stroke" d="
  M 538.81 432.01
  Q 539.16 430.59 539.81 430.05
  C 555.46 417.04 571.76 403.12 582.29 385.50
  A 2.13 2.13 0.0 0 0 582.01 382.95
  C 567.77 367.88 547.35 359.38 526.68 361.47
  Q 511.44 363.01 501.64 373.29
  A 0.36 0.36 0.0 0 1 501.04 373.13
  L 500.93 372.72"
/>
<path stroke="#676d4d" vector-effect="non-scaling-stroke" d="
  M 500.93 372.72
  C 519.11 348.92 556.05 357.72 578.12 369.77
  A 0.52 0.52 0.0 0 0 578.88 369.19
  Q 578.50 367.62 577.33 366.28
  Q 552.94 338.61 516.90 326.31
  C 509.47 323.78 484.61 316.32 483.11 329.61
  Q 482.81 332.30 484.58 337.71
  Q 492.46 361.79 492.94 381.25
  Q 493.29 395.33 494.15 410.49"
/>
<path stroke="#8bae53" vector-effect="non-scaling-stroke" d="
  M 500.93 372.72
  Q 500.24 372.74 499.84 372.90
  Q 499.44 373.05 499.36 373.71
  Q 497.03 391.70 494.15 410.49"
/>
<path stroke="#8bae53" vector-effect="non-scaling-stroke" d="
  M 643.92 383.39
  Q 644.29 391.78 644.15 399.46
  C 644.11 402.21 643.26 405.69 642.19 408.24
  Q 636.43 422.00 629.18 431.18
  Q 620.08 442.72 602.88 459.40"
/>
<path stroke="#8bae53" vector-effect="non-scaling-stroke" d="
  M 595.75 463.51
  Q 584.13 458.22 572.26 455.72
  Q 565.46 454.28 557.79 453.82"
/>
<path stroke="#8bae53" vector-effect="non-scaling-stroke" d="
  M 550.58 450.22
  L 550.95 446.13
  A 0.76 0.76 0.0 0 0 550.25 445.30
  C 548.60 445.19 547.00 445.10 545.38 445.56
  C 523.93 451.64 504.66 463.67 489.05 479.40
  C 486.67 481.80 485.03 486.01 482.96 489.03
  C 470.76 506.85 463.15 530.84 461.62 552.63
  Q 460.95 562.16 461.29 575.31"
/>
<path stroke="#8bae53" vector-effect="non-scaling-stroke" d="
  M 538.44 434.37
  Q 537.59 433.63 538.81 432.01"
/>
<path stroke="#53624b" vector-effect="non-scaling-stroke" d="
  M 391.47 440.04
  Q 391.93 441.94 392.13 443.99
  Q 392.40 446.76 392.70 447.96
  C 396.61 463.59 409.19 468.09 423.96 467.52
  Q 442.85 466.78 461.62 461.30
  C 467.12 459.70 472.53 456.79 475.32 452.02
  Q 484.18 436.91 484.16 417.82"
/>
<path stroke="#676d4d" vector-effect="non-scaling-stroke" d="
  M 484.16 417.82
  Q 484.49 416.20 484.64 414.49
  Q 485.59 403.78 484.87 392.45
  Q 483.58 372.22 480.65 355.73
  Q 479.21 347.62 476.13 339.32
  C 467.34 315.67 440.29 321.47 422.65 329.11
  C 409.37 334.85 402.58 345.73 399.25 359.06
  Q 391.06 391.80 390.70 426.25
  Q 390.63 432.08 391.47 440.04"
/>
<path stroke="#8bae53" vector-effect="non-scaling-stroke" d="
  M 484.16 417.82
  Q 483.24 417.70 483.19 417.00
  C 482.92 413.49 483.09 410.33 482.42 406.74
  Q 481.88 403.82 481.49 400.01
  Q 480.86 393.66 478.66 384.26"
/>
<path stroke="#676d4d" vector-effect="non-scaling-stroke" d="
  M 478.66 384.26
  Q 473.00 368.09 457.88 363.00
  C 441.64 357.53 424.92 364.50 414.46 377.23
  Q 408.99 383.88 402.34 396.62"
/>
<path stroke="#8bae53" vector-effect="non-scaling-stroke" d="
  M 402.34 396.62
  Q 394.64 415.95 392.71 438.24
  Q 392.61 439.43 391.47 440.04"
/>
<path stroke="#53624b" vector-effect="non-scaling-stroke" d="
  M 478.66 384.26
  Q 475.67 380.64 472.74 377.25
  Q 465.86 369.29 456.02 367.53
  Q 445.36 365.62 436.57 368.25
  C 423.53 372.15 412.32 384.28 405.07 395.46
  C 404.49 396.36 403.40 396.48 402.34 396.62"
/>
<path stroke="#53624b" vector-effect="non-scaling-stroke" d="
  M 316.89 444.35
  Q 339.17 457.41 364.42 462.45
  C 369.14 463.39 386.13 466.54 385.19 457.00
  Q 384.02 445.17 382.19 434.27"
/>
<path stroke="#676d4d" vector-effect="non-scaling-stroke" d="
  M 382.19 434.27
  C 382.28 427.79 381.76 421.42 381.98 415.11
  Q 382.77 392.02 388.19 365.73
  C 389.35 360.15 389.65 354.74 382.44 353.58
  C 375.95 352.53 369.78 358.36 365.43 362.48
  C 341.24 385.38 322.80 411.27 315.51 443.61
  A 0.72 0.70 -64.4 0 0 315.76 444.34
  Q 316.33 444.79 316.89 444.35"
/>
<path stroke="#8bae53" vector-effect="non-scaling-stroke" d="
  M 382.19 434.27
  Q 377.12 424.09 377.93 413.01
  Q 378.20 409.34 378.68 405.86"
/>
<path stroke="#676d4d" vector-effect="non-scaling-stroke" d="
  M 378.68 405.86
  C 378.91 396.50 373.35 384.43 362.16 386.62
  Q 357.62 387.51 352.37 391.26
  Q 348.97 393.68 345.25 398.00
  Q 334.05 411.01 325.82 426.26"
/>
<path stroke="#8bae53" vector-effect="non-scaling-stroke" d="
  M 325.82 426.26
  Q 321.41 430.59 319.33 436.52
  Q 317.87 440.70 316.89 444.35"
/>
<path stroke="#53624b" vector-effect="non-scaling-stroke" d="
  M 378.68 405.86
  Q 376.61 402.09 374.68 398.52
  C 368.75 387.52 357.40 392.79 350.59 399.34
  Q 336.32 413.05 325.82 426.26"
/>
<path stroke="#53624b" vector-effect="non-scaling-stroke" d="
  M 312.69 415.99
  Q 312.93 415.45 312.39 414.84
  A 0.90 0.87 -24.9 0 0 311.58 414.56
  L 288.36 418.39
  A 0.75 0.74 -20.0 0 0 287.84 419.50
  Q 294.23 430.21 304.20 438.93
  A 0.66 0.66 0.0 0 0 305.28 438.57
  Q 307.82 426.84 312.69 415.99"
/>
<path stroke="#53624b" vector-effect="non-scaling-stroke" d="
  M 651.84 464.43
  C 657.79 467.70 663.97 470.90 669.21 474.80
  C 688.75 489.33 694.20 515.44 686.79 538.29
  Q 683.62 548.04 678.91 556.85
  A 0.79 0.78 -64.0 0 0 679.28 557.95
  Q 686.23 561.03 693.99 563.70
  Q 697.16 564.78 704.45 565.17"
/>
<path stroke="#676d4d" vector-effect="non-scaling-stroke" d="
  M 704.45 565.17
  Q 720.67 562.16 729.94 550.42
  Q 742.58 534.41 737.02 514.79
  C 734.14 504.64 725.46 493.79 717.64 486.63
  Q 689.92 461.23 652.67 453.54
  Q 651.41 453.28 650.78 454.40
  Q 648.95 457.62 646.66 460.19
  Q 645.29 461.73 647.19 462.51
  L 651.84 464.43"
/>
<path stroke="#8bae53" vector-effect="non-scaling-stroke" d="
  M 704.45 565.17
  Q 709.18 551.19 709.58 545.51
  C 709.93 540.52 710.97 535.70 710.62 530.80
  Q 710.08 523.08 708.30 515.75
  C 703.69 496.78 689.94 481.46 673.15 471.62
  Q 666.89 467.95 656.82 463.93
  Q 653.12 462.45 651.84 464.43"
/>
<path stroke="#784e3d" vector-effect="non-scaling-stroke" d="
  M 533.69 491.08
  Q 527.40 491.43 521.10 492.03
  C 519.83 492.16 518.76 491.77 518.02 493.16
  Q 511.32 505.78 507.69 519.40
  A 0.60 0.60 0.0 0 0 508.30 520.15
  Q 533.32 518.67 559.03 510.34
  Q 579.71 503.65 600.74 489.46
  Q 608.90 483.95 614.24 477.92"
/>
<path stroke="#86614a" vector-effect="non-scaling-stroke" d="
  M 614.24 477.92
  Q 623.72 470.19 630.45 459.92
  Q 631.74 457.95 629.77 459.25
  C 611.76 471.14 590.89 478.94 569.99 484.18
  Q 552.06 488.68 533.69 491.08"
/>
<path stroke="#cf8e41" vector-effect="non-scaling-stroke" d="
  M 614.24 477.92
  Q 610.83 477.88 606.73 480.18
  C 585.35 492.17 560.54 499.18 535.62 502.85
  Q 535.09 502.92 535.03 502.39
  L 533.69 491.08"
/>
<path stroke="#784e3d" vector-effect="non-scaling-stroke" d="
  M 344.64 481.67
  Q 349.11 485.55 354.56 488.22
  Q 389.54 505.37 428.18 510.24
  Q 428.75 510.31 429.12 509.86
  L 442.67 492.86"
/>
<path stroke="#86614a" vector-effect="non-scaling-stroke" d="
  M 442.67 492.86
  L 458.61 476.98
  Q 459.66 475.94 458.20 476.21
  Q 408.44 485.43 358.95 474.69
  C 345.87 471.86 333.75 467.79 322.34 461.91
  Q 319.65 460.52 321.65 462.79
  Q 331.93 474.50 344.64 481.67"
/>
<path stroke="#cf8e41" vector-effect="non-scaling-stroke" d="
  M 442.67 492.86
  Q 436.37 491.17 432.75 491.21
  C 425.21 491.29 417.67 491.68 410.35 490.64
  Q 406.28 490.06 402.00 490.21
  C 399.65 490.29 397.19 489.39 395.25 489.28
  Q 389.09 488.94 387.22 488.69
  Q 366.50 485.90 344.64 481.67"
/>
<path stroke="#53624b" vector-effect="non-scaling-stroke" d="
  M 280.95 551.43
  Q 291.61 553.63 302.61 550.35
  A 1.15 1.14 -14.9 0 0 303.41 548.99
  Q 299.53 532.27 300.78 515.47
  C 301.58 504.88 305.02 495.18 314.54 489.32
  A 0.89 0.89 0.0 0 0 314.92 488.28
  Q 311.85 478.72 308.49 469.24
  Q 307.83 467.39 306.50 466.35"
/>
<path stroke="#676d4d" vector-effect="non-scaling-stroke" d="
  M 306.50 466.35
  Q 306.96 465.16 306.09 464.80
  A 0.80 0.80 0.0 0 0 305.27 464.94
  C 287.39 480.71 272.60 499.59 267.87 522.87
  C 265.31 535.51 268.19 546.32 280.95 551.43"
/>
<path stroke="#8bae53" vector-effect="non-scaling-stroke" d="
  M 306.50 466.35
  C 296.16 484.43 285.06 502.52 282.05 523.56
  Q 281.33 528.56 281.23 537.48
  Q 281.15 544.42 280.95 551.43"
/>
<path stroke="#676d4d" vector-effect="non-scaling-stroke" d="
  M 691.00 323.09
  C 697.65 338.97 716.64 338.11 730.65 335.62
  Q 731.48 335.47 731.30 334.65
  C 727.66 318.38 716.66 300.44 697.52 302.54
  Q 688.96 303.47 680.80 306.85
  A 0.52 0.51 -19.8 0 0 680.50 307.48
  Q 680.73 308.25 681.43 308.65
  Q 685.03 310.65 688.61 312.77
  A 1.87 1.82 11.5 0 1 689.49 314.07
  C 689.96 317.08 689.79 320.19 691.00 323.09"
/>
<path stroke="#676d4d" vector-effect="non-scaling-stroke" d="
  M 713.8229 324.1395
  A 7.72 5.91 21.9 0 0 708.8644 315.7765
  A 7.72 5.91 21.9 0 0 699.4971 318.3805
  A 7.72 5.91 21.9 0 0 704.4556 326.7435
  A 7.72 5.91 21.9 0 0 713.8229 324.1395"
/>
</g>
<g fill="#9fb955">
<path d="
  M 752.34 371.92
  L 749.92 358.19
  Q 750.30 354.35 748.86 351.12
  Q 747.79 348.73 745.27 347.88
  Q 739.60 345.97 734.94 349.92
  Q 728.46 353.02 721.82 355.99
  C 718.83 357.33 715.78 357.63 712.85 359.38
  A 1.17 1.17 0.0 0 0 712.47 361.02
  Q 713.18 362.13 714.50 362.48
  Q 716.02 362.89 717.34 363.04
  Q 717.53 363.67 717.43 363.88
  Q 717.12 364.47 716.46 364.92
  Q 700.07 376.25 681.22 377.99
  C 673.67 378.69 664.92 378.17 657.88 375.36
  Q 654.68 374.09 648.03 369.78
  Q 643.25 366.69 638.31 363.74
  Q 630.71 356.00 625.25 346.21
  A 0.96 0.96 0.0 0 1 625.25 345.29
  C 627.86 340.55 630.55 335.82 632.89 330.86
  Q 636.27 323.68 640.44 316.41
  Q 651.20 297.67 671.27 290.40
  Q 690.66 283.38 709.29 288.52
  Q 733.51 295.22 746.56 315.10
  Q 752.52 324.20 759.28 339.95
  C 762.71 347.96 762.46 354.53 758.32 362.11
  Q 754.64 368.83 752.34 371.92
  Z
  M 691.00 323.09
  C 697.65 338.97 716.64 338.11 730.65 335.62
  Q 731.48 335.47 731.30 334.65
  C 727.66 318.38 716.66 300.44 697.52 302.54
  Q 688.96 303.47 680.80 306.85
  A 0.52 0.51 -19.8 0 0 680.50 307.48
  Q 680.73 308.25 681.43 308.65
  Q 685.03 310.65 688.61 312.77
  A 1.87 1.82 11.5 0 1 689.49 314.07
  C 689.96 317.08 689.79 320.19 691.00 323.09
  Z"
/>
<path d="
  M 713.8229 324.1395
  A 7.72 5.91 21.9 0 1 704.4556 326.7435
  A 7.72 5.91 21.9 0 1 699.4971 318.3805
  A 7.72 5.91 21.9 0 1 708.8644 315.7765
  A 7.72 5.91 21.9 0 1 713.8229 324.1395
  Z"
/>
<path d="
  M 500.93 372.72
  Q 500.24 372.74 499.84 372.90
  Q 499.44 373.05 499.36 373.71
  Q 497.03 391.70 494.15 410.49
  Q 493.29 395.33 492.94 381.25
  Q 492.46 361.79 484.58 337.71
  Q 482.81 332.30 483.11 329.61
  C 484.61 316.32 509.47 323.78 516.90 326.31
  Q 552.94 338.61 577.33 366.28
  Q 578.50 367.62 578.88 369.19
  A 0.52 0.52 0.0 0 1 578.12 369.77
  C 556.05 357.72 519.11 348.92 500.93 372.72
  Z"
/>
<path d="
  M 484.16 417.82
  Q 483.24 417.70 483.19 417.00
  C 482.92 413.49 483.09 410.33 482.42 406.74
  Q 481.88 403.82 481.49 400.01
  Q 480.86 393.66 478.66 384.26
  Q 473.00 368.09 457.88 363.00
  C 441.64 357.53 424.92 364.50 414.46 377.23
  Q 408.99 383.88 402.34 396.62
  Q 394.64 415.95 392.71 438.24
  Q 392.61 439.43 391.47 440.04
  Q 390.63 432.08 390.70 426.25
  Q 391.06 391.80 399.25 359.06
  C 402.58 345.73 409.37 334.85 422.65 329.11
  C 440.29 321.47 467.34 315.67 476.13 339.32
  Q 479.21 347.62 480.65 355.73
  Q 483.58 372.22 484.87 392.45
  Q 485.59 403.78 484.64 414.49
  Q 484.49 416.20 484.16 417.82
  Z"
/>
<path d="
  M 643.92 383.39
  Q 644.29 391.78 644.15 399.46
  C 644.11 402.21 643.26 405.69 642.19 408.24
  Q 636.43 422.00 629.18 431.18
  Q 620.08 442.72 602.88 459.40
  Q 599.76 462.26 595.75 463.51
  Q 584.13 458.22 572.26 455.72
  Q 565.46 454.28 557.79 453.82
  Q 563.19 449.88 568.14 446.63
  Q 568.52 446.38 568.59 446.10
  Q 568.69 445.65 568.23 445.76
  L 550.58 450.22
  L 550.95 446.13
  A 0.76 0.76 0.0 0 0 550.25 445.30
  C 548.60 445.19 547.00 445.10 545.38 445.56
  C 523.93 451.64 504.66 463.67 489.05 479.40
  C 486.67 481.80 485.03 486.01 482.96 489.03
  C 470.76 506.85 463.15 530.84 461.62 552.63
  Q 460.95 562.16 461.29 575.31
  Q 453.80 574.85 450.30 573.45
  Q 434.25 567.02 422.03 555.00
  A 1.03 1.02 30.8 0 1 421.77 553.99
  Q 425.43 541.31 431.64 530.65
  C 444.33 508.81 460.68 489.50 480.22 474.11
  Q 499.16 459.19 523.04 446.52
  C 529.06 443.32 535.07 440.00 540.58 435.78
  A 1.08 1.08 0.0 0 0 539.51 433.93
  L 538.44 434.37
  Q 537.59 433.63 538.81 432.01
  Q 557.33 420.52 570.67 409.93
  Q 603.00 384.26 623.28 348.51
  A 0.97 0.96 -63.4 0 1 624.50 348.10
  Q 624.88 348.26 624.99 348.67
  C 626.69 355.22 628.84 360.60 632.58 366.44
  Q 638.26 375.28 643.92 383.39
  Z"
/>
<path d="
  M 382.19 434.27
  Q 377.12 424.09 377.93 413.01
  Q 378.20 409.34 378.68 405.86
  C 378.91 396.50 373.35 384.43 362.16 386.62
  Q 357.62 387.51 352.37 391.26
  Q 348.97 393.68 345.25 398.00
  Q 334.05 411.01 325.82 426.26
  Q 321.41 430.59 319.33 436.52
  Q 317.87 440.70 316.89 444.35
  Q 316.33 444.79 315.76 444.34
  A 0.72 0.70 -64.4 0 1 315.51 443.61
  C 322.80 411.27 341.24 385.38 365.43 362.48
  C 369.78 358.36 375.95 352.53 382.44 353.58
  C 389.65 354.74 389.35 360.15 388.19 365.73
  Q 382.77 392.02 381.98 415.11
  C 381.76 421.42 382.28 427.79 382.19 434.27
  Z"
/>
<path d="
  M 704.45 565.17
  Q 709.18 551.19 709.58 545.51
  C 709.93 540.52 710.97 535.70 710.62 530.80
  Q 710.08 523.08 708.30 515.75
  C 703.69 496.78 689.94 481.46 673.15 471.62
  Q 666.89 467.95 656.82 463.93
  Q 653.12 462.45 651.84 464.43
  L 647.19 462.51
  Q 645.29 461.73 646.66 460.19
  Q 648.95 457.62 650.78 454.40
  Q 651.41 453.28 652.67 453.54
  Q 689.92 461.23 717.64 486.63
  C 725.46 493.79 734.14 504.64 737.02 514.79
  Q 742.58 534.41 729.94 550.42
  Q 720.67 562.16 704.45 565.17
  Z"
/>
<path d="
  M 306.50 466.35
  C 296.16 484.43 285.06 502.52 282.05 523.56
  Q 281.33 528.56 281.23 537.48
  Q 281.15 544.42 280.95 551.43
  C 268.19 546.32 265.31 535.51 267.87 522.87
  C 272.60 499.59 287.39 480.71 305.27 464.94
  A 0.80 0.80 0.0 0 1 306.09 464.80
  Q 306.96 465.16 306.50 466.35
  Z"
/>
</g>
<g fill="#2f2145">
<path d="
  M 595.17 368.33
  Q 613.55 342.24 627.56 312.66
  C 642.83 280.42 681.40 266.70 713.99 276.24
  C 736.93 282.95 754.70 298.10 764.54 320.31
  Q 769.83 332.26 773.70 342.96
  Q 775.48 347.89 774.42 353.54
  C 771.28 370.23 760.98 384.56 747.88 395.49
  A 2.33 2.31 -53.6 0 1 745.51 395.86
  C 742.00 394.43 738.47 393.76 734.81 394.65
  Q 719.95 398.28 704.93 400.50
  C 693.64 402.16 683.63 405.64 675.70 413.44
  Q 664.94 424.02 658.72 441.20
  Q 658.46 441.92 659.21 442.06
  Q 687.64 447.20 713.26 466.50
  C 734.27 482.33 755.96 506.93 751.08 534.90
  C 747.39 556.00 727.13 576.19 705.77 577.99
  C 691.99 579.15 677.30 572.90 666.61 564.60
  Q 662.01 561.03 664.12 555.47
  Q 667.88 545.54 673.55 533.31
  A 0.31 0.30 4.6 0 0 673.19 532.89
  L 672.78 533.00
  Q 672.45 533.09 672.20 533.34
  C 662.98 542.86 654.36 551.98 643.54 558.19
  C 632.87 564.31 618.80 565.07 608.30 558.19
  C 603.56 555.08 604.06 549.28 605.88 544.76
  C 610.72 532.74 618.40 521.49 612.57 507.97
  C 610.58 503.35 606.59 504.19 603.10 506.08
  C 572.82 522.57 539.33 532.42 505.64 534.95
  Q 505.04 535.00 505.04 535.60
  Q 505.24 551.01 508.70 567.65
  C 509.93 573.57 504.92 575.95 500.72 578.42
  C 469.74 596.63 439.01 588.25 413.78 565.83
  C 409.78 562.26 406.10 559.81 407.94 553.51
  Q 412.31 538.51 419.84 524.14
  A 0.55 0.55 0.0 0 0 419.41 523.34
  C 403.16 521.68 388.63 517.41 372.99 511.85
  Q 370.65 511.02 368.29 510.76
  Q 367.32 510.65 366.99 511.57
  C 361.00 528.15 379.03 536.37 377.20 551.69
  C 376.37 558.62 369.40 560.49 363.39 560.93
  Q 349.48 561.95 338.51 556.03
  C 330.71 551.83 323.60 544.78 316.75 538.50
  A 0.29 0.29 0.0 0 0 316.27 538.64
  Q 316.12 539.21 316.34 539.79
  Q 319.24 547.28 318.74 554.70
  Q 318.52 557.86 315.71 559.31
  Q 300.35 567.19 285.00 565.32
  C 263.05 562.63 252.17 545.78 254.59 524.94
  C 257.91 496.41 277.72 471.51 299.22 452.51
  Q 299.74 452.05 299.19 451.63
  C 288.00 442.97 278.59 431.75 273.61 418.72
  C 271.68 413.65 270.85 406.58 278.32 405.67
  C 282.94 405.11 287.64 405.00 292.22 404.10
  Q 305.67 401.43 318.00 398.68
  C 319.18 398.41 319.79 397.70 320.42 396.71
  Q 356.86 339.19 419.21 316.11
  C 449.06 305.06 482.63 303.31 513.83 311.99
  C 545.51 320.81 575.81 340.87 594.80 368.33
  A 0.23 0.22 -44.4 0 0 595.17 368.33
  Z
  M 638.31 363.74
  Q 638.19 364.71 638.82 365.43
  Q 663.77 394.07 702.09 387.58
  Q 718.76 384.76 735.23 380.74
  Q 736.78 380.37 736.50 378.79
  C 734.75 368.72 726.57 365.43 717.43 363.88
  Q 717.53 363.67 717.34 363.04
  Q 725.80 361.22 732.74 362.95
  Q 744.50 365.90 747.40 377.55
  A 0.21 0.21 0.0 0 0 747.77 377.63
  L 752.34 371.92
  Q 754.64 368.83 758.32 362.11
  C 762.46 354.53 762.71 347.96 759.28 339.95
  Q 752.52 324.20 746.56 315.10
  Q 733.51 295.22 709.29 288.52
  Q 690.66 283.38 671.27 290.40
  Q 651.20 297.67 640.44 316.41
  Q 636.27 323.68 632.89 330.86
  C 630.55 335.82 627.86 340.55 625.25 345.29
  A 0.96 0.96 0.0 0 0 625.25 346.21
  Q 630.71 356.00 638.31 363.74
  Z
  M 494.15 410.49
  Q 494.07 410.26 493.98 410.03
  L 493.73 413.31
  Q 493.08 424.53 492.49 435.82
  Q 492.24 440.40 493.14 442.26
  C 495.66 447.54 500.59 447.59 505.58 445.87
  C 516.56 442.08 527.46 438.08 538.44 434.37
  L 539.51 433.93
  A 1.08 1.08 0.0 0 1 540.58 435.78
  C 535.07 440.00 529.06 443.32 523.04 446.52
  Q 499.16 459.19 480.22 474.11
  C 460.68 489.50 444.33 508.81 431.64 530.65
  Q 425.43 541.31 421.77 553.99
  A 1.03 1.02 30.8 0 0 422.03 555.00
  Q 434.25 567.02 450.30 573.45
  Q 453.80 574.85 461.29 575.31
  Q 478.33 577.06 492.79 568.16
  C 494.09 567.36 494.85 566.30 494.45 564.72
  C 486.49 532.93 493.72 500.92 515.34 476.33
  Q 530.44 459.16 550.58 450.22
  L 568.23 445.76
  Q 568.69 445.65 568.59 446.10
  Q 568.52 446.38 568.14 446.63
  Q 563.19 449.88 557.79 453.82
  Q 543.30 464.65 530.16 477.94
  Q 529.52 478.59 530.41 478.81
  Q 530.51 478.83 531.00 478.77
  Q 563.64 474.83 595.75 463.51
  Q 599.76 462.26 602.88 459.40
  Q 618.95 452.88 631.86 443.34
  C 642.68 435.34 651.38 426.35 652.01 412.01
  Q 652.63 397.90 643.92 383.39
  Q 638.26 375.28 632.58 366.44
  C 628.84 360.60 626.69 355.22 624.99 348.67
  Q 624.88 348.26 624.50 348.10
  A 0.97 0.96 -63.4 0 0 623.28 348.51
  Q 603.00 384.26 570.67 409.93
  Q 557.33 420.52 538.81 432.01
  Q 539.16 430.59 539.81 430.05
  C 555.46 417.04 571.76 403.12 582.29 385.50
  A 2.13 2.13 0.0 0 0 582.01 382.95
  C 567.77 367.88 547.35 359.38 526.68 361.47
  Q 511.44 363.01 501.64 373.29
  A 0.36 0.36 0.0 0 1 501.04 373.13
  L 500.93 372.72
  C 519.11 348.92 556.05 357.72 578.12 369.77
  A 0.52 0.52 0.0 0 0 578.88 369.19
  Q 578.50 367.62 577.33 366.28
  Q 552.94 338.61 516.90 326.31
  C 509.47 323.78 484.61 316.32 483.11 329.61
  Q 482.81 332.30 484.58 337.71
  Q 492.46 361.79 492.94 381.25
  Q 493.29 395.33 494.15 410.49
  Z
  M 391.47 440.04
  Q 391.93 441.94 392.13 443.99
  Q 392.40 446.76 392.70 447.96
  C 396.61 463.59 409.19 468.09 423.96 467.52
  Q 442.85 466.78 461.62 461.30
  C 467.12 459.70 472.53 456.79 475.32 452.02
  Q 484.18 436.91 484.16 417.82
  Q 484.49 416.20 484.64 414.49
  Q 485.59 403.78 484.87 392.45
  Q 483.58 372.22 480.65 355.73
  Q 479.21 347.62 476.13 339.32
  C 467.34 315.67 440.29 321.47 422.65 329.11
  C 409.37 334.85 402.58 345.73 399.25 359.06
  Q 391.06 391.80 390.70 426.25
  Q 390.63 432.08 391.47 440.04
  Z
  M 316.89 444.35
  Q 339.17 457.41 364.42 462.45
  C 369.14 463.39 386.13 466.54 385.19 457.00
  Q 384.02 445.17 382.19 434.27
  C 382.28 427.79 381.76 421.42 381.98 415.11
  Q 382.77 392.02 388.19 365.73
  C 389.35 360.15 389.65 354.74 382.44 353.58
  C 375.95 352.53 369.78 358.36 365.43 362.48
  C 341.24 385.38 322.80 411.27 315.51 443.61
  A 0.72 0.70 -64.4 0 0 315.76 444.34
  Q 316.33 444.79 316.89 444.35
  Z
  M 312.69 415.99
  Q 312.93 415.45 312.39 414.84
  A 0.90 0.87 -24.9 0 0 311.58 414.56
  L 288.36 418.39
  A 0.75 0.74 -20.0 0 0 287.84 419.50
  Q 294.23 430.21 304.20 438.93
  A 0.66 0.66 0.0 0 0 305.28 438.57
  Q 307.82 426.84 312.69 415.99
  Z
  M 651.84 464.43
  C 657.79 467.70 663.97 470.90 669.21 474.80
  C 688.75 489.33 694.20 515.44 686.79 538.29
  Q 683.62 548.04 678.91 556.85
  A 0.79 0.78 -64.0 0 0 679.28 557.95
  Q 686.23 561.03 693.99 563.70
  Q 697.16 564.78 704.45 565.17
  Q 720.67 562.16 729.94 550.42
  Q 742.58 534.41 737.02 514.79
  C 734.14 504.64 725.46 493.79 717.64 486.63
  Q 689.92 461.23 652.67 453.54
  Q 651.41 453.28 650.78 454.40
  Q 648.95 457.62 646.66 460.19
  Q 645.29 461.73 647.19 462.51
  L 651.84 464.43
  Z
  M 533.69 491.08
  Q 527.40 491.43 521.10 492.03
  C 519.83 492.16 518.76 491.77 518.02 493.16
  Q 511.32 505.78 507.69 519.40
  A 0.60 0.60 0.0 0 0 508.30 520.15
  Q 533.32 518.67 559.03 510.34
  Q 579.71 503.65 600.74 489.46
  Q 608.90 483.95 614.24 477.92
  Q 623.72 470.19 630.45 459.92
  Q 631.74 457.95 629.77 459.25
  C 611.76 471.14 590.89 478.94 569.99 484.18
  Q 552.06 488.68 533.69 491.08
  Z
  M 344.64 481.67
  Q 349.11 485.55 354.56 488.22
  Q 389.54 505.37 428.18 510.24
  Q 428.75 510.31 429.12 509.86
  L 442.67 492.86
  L 458.61 476.98
  Q 459.66 475.94 458.20 476.21
  Q 408.44 485.43 358.95 474.69
  C 345.87 471.86 333.75 467.79 322.34 461.91
  Q 319.65 460.52 321.65 462.79
  Q 331.93 474.50 344.64 481.67
  Z
  M 280.95 551.43
  Q 291.61 553.63 302.61 550.35
  A 1.15 1.14 -14.9 0 0 303.41 548.99
  Q 299.53 532.27 300.78 515.47
  C 301.58 504.88 305.02 495.18 314.54 489.32
  A 0.89 0.89 0.0 0 0 314.92 488.28
  Q 311.85 478.72 308.49 469.24
  Q 307.83 467.39 306.50 466.35
  Q 306.96 465.16 306.09 464.80
  A 0.80 0.80 0.0 0 0 305.27 464.94
  C 287.39 480.71 272.60 499.59 267.87 522.87
  C 265.31 535.51 268.19 546.32 280.95 551.43
  Z"
/>
<path d="
  M 730.65 335.62
  C 716.64 338.11 697.65 338.97 691.00 323.09
  C 689.79 320.19 689.96 317.08 689.49 314.07
  A 1.87 1.82 11.5 0 0 688.61 312.77
  Q 685.03 310.65 681.43 308.65
  Q 680.73 308.25 680.50 307.48
  A 0.52 0.51 -19.8 0 1 680.80 306.85
  Q 688.96 303.47 697.52 302.54
  C 716.66 300.44 727.66 318.38 731.30 334.65
  Q 731.48 335.47 730.65 335.62
  Z
  M 713.8229 324.1395
  A 7.72 5.91 21.9 0 0 708.8644 315.7765
  A 7.72 5.91 21.9 0 0 699.4971 318.3805
  A 7.72 5.91 21.9 0 0 704.4556 326.7435
  A 7.72 5.91 21.9 0 0 713.8229 324.1395
  Z"
/>
<path d="
  M 749.92 358.19
  L 734.94 349.92
  Q 739.60 345.97 745.27 347.88
  Q 747.79 348.73 748.86 351.12
  Q 750.30 354.35 749.92 358.19
  Z"
/>
<path d="
  M 478.66 384.26
  Q 475.67 380.64 472.74 377.25
  Q 465.86 369.29 456.02 367.53
  Q 445.36 365.62 436.57 368.25
  C 423.53 372.15 412.32 384.28 405.07 395.46
  C 404.49 396.36 403.40 396.48 402.34 396.62
  Q 408.99 383.88 414.46 377.23
  C 424.92 364.50 441.64 357.53 457.88 363.00
  Q 473.00 368.09 478.66 384.26
  Z"
/>
<path d="
  M 378.68 405.86
  Q 376.61 402.09 374.68 398.52
  C 368.75 387.52 357.40 392.79 350.59 399.34
  Q 336.32 413.05 325.82 426.26
  Q 334.05 411.01 345.25 398.00
  Q 348.97 393.68 352.37 391.26
  Q 357.62 387.51 362.16 386.62
  C 373.35 384.43 378.91 396.50 378.68 405.86
  Z"
/>
</g>
<g fill="#c17a34">
<path d="
  M 614.24 477.92
  Q 608.90 483.95 600.74 489.46
  Q 579.71 503.65 559.03 510.34
  Q 533.32 518.67 508.30 520.15
  A 0.60 0.60 0.0 0 1 507.69 519.40
  Q 511.32 505.78 518.02 493.16
  C 518.76 491.77 519.83 492.16 521.10 492.03
  Q 527.40 491.43 533.69 491.08
  L 535.03 502.39
  Q 535.09 502.92 535.62 502.85
  C 560.54 499.18 585.35 492.17 606.73 480.18
  Q 610.83 477.88 614.24 477.92
  Z"
/>
<path d="
  M 442.67 492.86
  L 429.12 509.86
  Q 428.75 510.31 428.18 510.24
  Q 389.54 505.37 354.56 488.22
  Q 349.11 485.55 344.64 481.67
  Q 366.50 485.90 387.22 488.69
  Q 389.09 488.94 395.25 489.28
  C 397.19 489.39 399.65 490.29 402.00 490.21
  Q 406.28 490.06 410.35 490.64
  C 417.67 491.68 425.21 491.29 432.75 491.21
  Q 436.37 491.17 442.67 492.86
  Z"
/>
</g>
<g fill="#76a350">
<path d="
  M 734.94 349.92
  L 749.92 358.19
  L 752.34 371.92
  L 747.77 377.63
  A 0.21 0.21 0.0 0 1 747.40 377.55
  Q 744.50 365.90 732.74 362.95
  Q 725.80 361.22 717.34 363.04
  Q 716.02 362.89 714.50 362.48
  Q 713.18 362.13 712.47 361.02
  A 1.17 1.17 0.0 0 1 712.85 359.38
  C 715.78 357.63 718.83 357.33 721.82 355.99
  Q 728.46 353.02 734.94 349.92
  Z"
/>
<path d="
  M 538.81 432.01
  Q 537.59 433.63 538.44 434.37
  C 527.46 438.08 516.56 442.08 505.58 445.87
  C 500.59 447.59 495.66 447.54 493.14 442.26
  Q 492.24 440.40 492.49 435.82
  Q 493.08 424.53 493.73 413.31
  Q 494.92 411.77 493.98 410.03
  Q 494.07 410.26 494.15 410.49
  Q 497.03 391.70 499.36 373.71
  Q 499.44 373.05 499.84 372.90
  Q 500.24 372.74 500.93 372.72
  L 501.04 373.13
  A 0.36 0.36 0.0 0 0 501.64 373.29
  Q 511.44 363.01 526.68 361.47
  C 547.35 359.38 567.77 367.88 582.01 382.95
  A 2.13 2.13 0.0 0 1 582.29 385.50
  C 571.76 403.12 555.46 417.04 539.81 430.05
  Q 539.16 430.59 538.81 432.01
  Z"
/>
<path d="
  M 717.43 363.88
  C 726.57 365.43 734.75 368.72 736.50 378.79
  Q 736.78 380.37 735.23 380.74
  Q 718.76 384.76 702.09 387.58
  Q 663.77 394.07 638.82 365.43
  Q 638.19 364.71 638.31 363.74
  Q 643.25 366.69 648.03 369.78
  Q 654.68 374.09 657.88 375.36
  C 664.92 378.17 673.67 378.69 681.22 377.99
  Q 700.07 376.25 716.46 364.92
  Q 717.12 364.47 717.43 363.88
  Z"
/>
<path d="
  M 478.66 384.26
  Q 480.86 393.66 481.49 400.01
  Q 481.88 403.82 482.42 406.74
  C 483.09 410.33 482.92 413.49 483.19 417.00
  Q 483.24 417.70 484.16 417.82
  Q 484.18 436.91 475.32 452.02
  C 472.53 456.79 467.12 459.70 461.62 461.30
  Q 442.85 466.78 423.96 467.52
  C 409.19 468.09 396.61 463.59 392.70 447.96
  Q 392.40 446.76 392.13 443.99
  Q 391.93 441.94 391.47 440.04
  Q 392.61 439.43 392.71 438.24
  Q 394.64 415.95 402.34 396.62
  C 403.40 396.48 404.49 396.36 405.07 395.46
  C 412.32 384.28 423.53 372.15 436.57 368.25
  Q 445.36 365.62 456.02 367.53
  Q 465.86 369.29 472.74 377.25
  Q 475.67 380.64 478.66 384.26
  Z"
/>
<path d="
  M 643.92 383.39
  Q 652.63 397.90 652.01 412.01
  C 651.38 426.35 642.68 435.34 631.86 443.34
  Q 618.95 452.88 602.88 459.40
  Q 620.08 442.72 629.18 431.18
  Q 636.43 422.00 642.19 408.24
  C 643.26 405.69 644.11 402.21 644.15 399.46
  Q 644.29 391.78 643.92 383.39
  Z"
/>
<path d="
  M 378.68 405.86
  Q 378.20 409.34 377.93 413.01
  Q 377.12 424.09 382.19 434.27
  Q 384.02 445.17 385.19 457.00
  C 386.13 466.54 369.14 463.39 364.42 462.45
  Q 339.17 457.41 316.89 444.35
  Q 317.87 440.70 319.33 436.52
  Q 321.41 430.59 325.82 426.26
  Q 336.32 413.05 350.59 399.34
  C 357.40 392.79 368.75 387.52 374.68 398.52
  Q 376.61 402.09 378.68 405.86
  Z"
/>
<path d="
  M 312.69 415.99
  Q 307.82 426.84 305.28 438.57
  A 0.66 0.66 0.0 0 1 304.20 438.93
  Q 294.23 430.21 287.84 419.50
  A 0.75 0.74 -20.0 0 1 288.36 418.39
  L 311.58 414.56
  A 0.90 0.87 -24.9 0 1 312.39 414.84
  Q 312.93 415.45 312.69 415.99
  Z"
/>
<path d="
  M 550.58 450.22
  Q 530.44 459.16 515.34 476.33
  C 493.72 500.92 486.49 532.93 494.45 564.72
  C 494.85 566.30 494.09 567.36 492.79 568.16
  Q 478.33 577.06 461.29 575.31
  Q 460.95 562.16 461.62 552.63
  C 463.15 530.84 470.76 506.85 482.96 489.03
  C 485.03 486.01 486.67 481.80 489.05 479.40
  C 504.66 463.67 523.93 451.64 545.38 445.56
  C 547.00 445.10 548.60 445.19 550.25 445.30
  A 0.76 0.76 0.0 0 1 550.95 446.13
  L 550.58 450.22
  Z"
/>
<path d="
  M 557.79 453.82
  Q 565.46 454.28 572.26 455.72
  Q 584.13 458.22 595.75 463.51
  Q 563.64 474.83 531.00 478.77
  Q 530.51 478.83 530.41 478.81
  Q 529.52 478.59 530.16 477.94
  Q 543.30 464.65 557.79 453.82
  Z"
/>
<path d="
  M 704.45 565.17
  Q 697.16 564.78 693.99 563.70
  Q 686.23 561.03 679.28 557.95
  A 0.79 0.78 -64.0 0 1 678.91 556.85
  Q 683.62 548.04 686.79 538.29
  C 694.20 515.44 688.75 489.33 669.21 474.80
  C 663.97 470.90 657.79 467.70 651.84 464.43
  Q 653.12 462.45 656.82 463.93
  Q 666.89 467.95 673.15 471.62
  C 689.94 481.46 703.69 496.78 708.30 515.75
  Q 710.08 523.08 710.62 530.80
  C 710.97 535.70 709.93 540.52 709.58 545.51
  Q 709.18 551.19 704.45 565.17
  Z"
/>
<path d="
  M 306.50 466.35
  Q 307.83 467.39 308.49 469.24
  Q 311.85 478.72 314.92 488.28
  A 0.89 0.89 0.0 0 1 314.54 489.32
  C 305.02 495.18 301.58 504.88 300.78 515.47
  Q 299.53 532.27 303.41 548.99
  A 1.15 1.14 -14.9 0 1 302.61 550.35
  Q 291.61 553.63 280.95 551.43
  Q 281.15 544.42 281.23 537.48
  Q 281.33 528.56 282.05 523.56
  C 285.06 502.52 296.16 484.43 306.50 466.35
  Z"
/>
</g>
<g fill="#dda14e">
<path d="
  M 614.24 477.92
  Q 610.83 477.88 606.73 480.18
  C 585.35 492.17 560.54 499.18 535.62 502.85
  Q 535.09 502.92 535.03 502.39
  L 533.69 491.08
  Q 552.06 488.68 569.99 484.18
  C 590.89 478.94 611.76 471.14 629.77 459.25
  Q 631.74 457.95 630.45 459.92
  Q 623.72 470.19 614.24 477.92
  Z"
/>
<path d="
  M 442.67 492.86
  Q 436.37 491.17 432.75 491.21
  C 425.21 491.29 417.67 491.68 410.35 490.64
  Q 406.28 490.06 402.00 490.21
  C 399.65 490.29 397.19 489.39 395.25 489.28
  Q 389.09 488.94 387.22 488.69
  Q 366.50 485.90 344.64 481.67
  Q 331.93 474.50 321.65 462.79
  Q 319.65 460.52 322.34 461.91
  C 333.75 467.79 345.87 471.86 358.95 474.69
  Q 408.44 485.43 458.20 476.21
  Q 459.66 475.94 458.61 476.98
  L 442.67 492.86
  Z"
/>
</g>
</svg>
